<ttFont>
    <TTGlyph name=".ttfautohint" xMin="0" yMin="0" xMax="0" yMax="0">
      <contour>
        <pt x="0" y="0" on="1"/>
      </contour>
    </TTGlyph>
    <TTGlyph name="A" xMin="-10" yMin="0" xMax="720" yMax="700">
      <contour>
        <pt x="185" y="0" on="1"/>
        <pt x="-10" y="0" on="1"/>
        <pt x="255" y="700" on="1"/>
        <pt x="455" y="700" on="1"/>
        <pt x="720" y="0" on="1"/>
        <pt x="525" y="0" on="1"/>
        <pt x="480" y="125" on="1"/>
        <pt x="230" y="125" on="1"/>
      </contour>
      <contour>
        <pt x="275" y="255" on="1"/>
        <pt x="435" y="255" on="1"/>
        <pt x="355" y="490" on="1"/>
      </contour>
    </TTGlyph>
    <TTGlyph name="AE" xMin="-10" yMin="0" xMax="975" yMax="700">
      <contour>
        <pt x="-10" y="0" on="1"/>
        <pt x="255" y="700" on="1"/>
        <pt x="975" y="700" on="1"/>
        <pt x="975" y="560" on="1"/>
        <pt x="640" y="560" on="1"/>
        <pt x="640" y="425" on="1"/>
        <pt x="895" y="425" on="1"/>
        <pt x="895" y="285" on="1"/>
        <pt x="640" y="285" on="1"/>
        <pt x="640" y="140" on="1"/>
        <pt x="975" y="140" on="1"/>
        <pt x="975" y="0" on="1"/>
        <pt x="460" y="0" on="1"/>
        <pt x="460" y="125" on="1"/>
        <pt x="230" y="125" on="1"/>
        <pt x="185" y="0" on="1"/>
      </contour>
      <contour>
        <pt x="275" y="255" on="1"/>
        <pt x="460" y="255" on="1"/>
        <pt x="460" y="560" on="1"/>
        <pt x="380" y="560" on="1"/>
      </contour>
    </TTGlyph>
    <TTGlyph name="Aacute" xMin="-10" yMin="0" xMax="720" yMax="901">
      <component glyphName=".ttfautohint" x="0" y="0" flags="0x1000"/>
      <component glyphName="A" x="0" y="0" flags="0x1204"/>
      <component glyphName="acute" x="275" y="96" flags="0x1004"/>
    </TTGlyph>
    <TTGlyph name="Abreve" xMin="-10" yMin="0" xMax="720" yMax="911">
      <component glyphName=".ttfautohint" x="0" y="0" flags="0x1000"/>
      <component glyphName="A" x="0" y="0" flags="0x1204"/>
      <component glyphName="breve" x="175" y="96" flags="0x1004"/>
    </TTGlyph>
    <TTGlyph name="Acircumflex" xMin="-10" yMin="0" xMax="720" yMax="901">
      <component glyphName=".ttfautohint" x="0" y="0" flags="0x1000"/>
      <component glyphName="A" x="0" y="0" flags="0x1204"/>
      <component glyphName="circumflex" x="165" y="96" flags="0x1004"/>
    </TTGlyph>
    <TTGlyph name="Adieresis" xMin="-10" yMin="0" xMax="720" yMax="871">
      <component glyphName=".ttfautohint" x="0" y="0" flags="0x1000"/>
      <component glyphName="A" x="0" y="0" flags="0x1204"/>
      <component glyphName="dieresis" x="155" y="66" flags="0x1004"/>
    </TTGlyph>
    <TTGlyph name="Agrave" xMin="-10" yMin="0" xMax="720" yMax="900">
      <component glyphName=".ttfautohint" x="0" y="0" flags="0x1000"/>
      <component glyphName="A" x="0" y="0" flags="0x1204"/>
      <component glyphName="grave" x="185" y="190" flags="0x1004"/>
    </TTGlyph>
    <TTGlyph name="Amacron" xMin="-10" yMin="0" xMax="720" yMax="881">
      <component glyphName=".ttfautohint" x="0" y="0" flags="0x1000"/>
      <component glyphName="A" x="0" y="0" flags="0x1204"/>
      <component glyphName="macron" x="205" y="96" flags="0x1004"/>
    </TTGlyph>
    <TTGlyph name="Aogonek" xMin="-10" yMin="-200" xMax="720" yMax="700">
      <component glyphName=".ttfautohint" x="0" y="0" flags="0x1000"/>
      <component glyphName="A" x="0" y="0" flags="0x1204"/>
      <component glyphName="ogonek" x="505" y="0" flags="0x1004"/>
    </TTGlyph>
    <TTGlyph name="Aring" xMin="-10" yMin="0" xMax="720" yMax="926">
      <component glyphName=".ttfautohint" x="0" y="0" flags="0x1000"/>
      <component glyphName="A" x="0" y="0" flags="0x1204"/>
      <component glyphName="ring" x="485" y="96" flags="0x1004"/>
    </TTGlyph>
    <TTGlyph name="Atilde" xMin="-10" yMin="0" xMax="720" yMax="891">
      <component glyphName=".ttfautohint" x="0" y="0" flags="0x1000"/>
      <component glyphName="A" x="0" y="0" flags="0x1204"/>
      <component glyphName="tilde" x="180" y="76" flags="0x1004"/>
    </TTGlyph>
    <TTGlyph name="B" xMin="60" yMin="0" xMax="680" yMax="700">
      <contour>
        <pt x="60" y="700" on="1"/>
        <pt x="460" y="700" on="1"/>
        <pt x="558" y="700" on="0"/>
        <pt x="650" y="611" on="0"/>
        <pt x="650" y="520" on="1"/>
        <pt x="650" y="460" on="0"/>
        <pt x="598" y="385" on="0"/>
        <pt x="560" y="370" on="1"/>
        <pt x="641" y="348" on="0"/>
        <pt x="670" y="262" on="1"/>
        <pt x="680" y="231" on="0"/>
        <pt x="680" y="190" on="1"/>
        <pt x="680" y="92" on="0"/>
        <pt x="588" y="0" on="0"/>
        <pt x="490" y="0" on="1"/>
        <pt x="60" y="0" on="1"/>
      </contour>
      <contour>
        <pt x="500" y="220" on="1"/>
        <pt x="500" y="280" on="0"/>
        <pt x="440" y="280" on="1"/>
        <pt x="240" y="280" on="1"/>
        <pt x="240" y="140" on="1"/>
        <pt x="440" y="140" on="1"/>
        <pt x="500" y="140" on="0"/>
        <pt x="500" y="200" on="1"/>
      </contour>
      <contour>
        <pt x="470" y="500" on="1"/>
        <pt x="470" y="560" on="0"/>
        <pt x="410" y="560" on="1"/>
        <pt x="240" y="560" on="1"/>
        <pt x="240" y="420" on="1"/>
        <pt x="410" y="420" on="1"/>
        <pt x="470" y="420" on="0"/>
        <pt x="470" y="480" on="1"/>
      </contour>
    </TTGlyph>
    <TTGlyph name="C" xMin="40" yMin="-10" xMax="600" yMax="700">
      <contour>
        <pt x="600" y="10" on="1"/>
        <pt x="377" y="-10" on="0"/>
        <pt x="230" y="-10" on="1"/>
        <pt x="132" y="-10" on="0"/>
        <pt x="40" y="82" on="0"/>
        <pt x="40" y="180" on="1"/>
        <pt x="40" y="500" on="1"/>
        <pt x="40" y="605" on="0"/>
        <pt x="135" y="700" on="0"/>
        <pt x="240" y="700" on="1"/>
        <pt x="600" y="700" on="1"/>
        <pt x="600" y="560" on="1"/>
        <pt x="280" y="560" on="1"/>
        <pt x="220" y="560" on="0"/>
        <pt x="220" y="500" on="1"/>
        <pt x="220" y="180" on="1"/>
        <pt x="220" y="157" on="0"/>
        <pt x="247" y="130" on="0"/>
        <pt x="289" y="130" on="0"/>
        <pt x="339" y="131" on="0"/>
        <pt x="393" y="133" on="0"/>
        <pt x="448" y="135" on="0"/>
        <pt x="535" y="141" on="0"/>
        <pt x="600" y="145" on="1"/>
      </contour>
    </TTGlyph>
    <TTGlyph name="Cacute" xMin="40" yMin="-10" xMax="600" yMax="901">
      <component glyphName=".ttfautohint" x="40" y="0" flags="0x1000"/>
      <component glyphName="C" x="0" y="0" flags="0x1204"/>
      <component glyphName="acute" x="240" y="96" flags="0x1004"/>
    </TTGlyph>
    <TTGlyph name="Ccaron" xMin="40" yMin="-10" xMax="600" yMax="901">
      <component glyphName=".ttfautohint" x="40" y="0" flags="0x1000"/>
      <component glyphName="C" x="0" y="0" flags="0x1204"/>
      <component glyphName="caron" x="150" y="96" flags="0x1004"/>
    </TTGlyph>
    <TTGlyph name="Ccedilla" xMin="40" yMin="-200" xMax="600" yMax="700">
      <component glyphName=".ttfautohint" x="40" y="0" flags="0x1000"/>
      <component glyphName="C" x="0" y="0" flags="0x1204"/>
      <component glyphName="cedilla" x="250" y="0" flags="0x1004"/>
    </TTGlyph>
    <TTGlyph name="D" xMin="60" yMin="0" xMax="680" yMax="700">
      <contour>
        <pt x="450" y="700" on="1"/>
        <pt x="563" y="700" on="0"/>
        <pt x="680" y="583" on="0"/>
        <pt x="680" y="470" on="1"/>
        <pt x="680" y="230" on="1"/>
        <pt x="680" y="117" on="0"/>
        <pt x="563" y="0" on="0"/>
        <pt x="450" y="0" on="1"/>
        <pt x="60" y="0" on="1"/>
        <pt x="60" y="700" on="1"/>
      </contour>
      <contour>
        <pt x="500" y="470" on="1"/>
        <pt x="500" y="560" on="0"/>
        <pt x="410" y="560" on="1"/>
        <pt x="240" y="560" on="1"/>
        <pt x="240" y="140" on="1"/>
        <pt x="410" y="140" on="1"/>
        <pt x="500" y="140" on="0"/>
        <pt x="500" y="230" on="1"/>
      </contour>
    </TTGlyph>
    <TTGlyph name="Dcaron" xMin="60" yMin="0" xMax="680" yMax="901">
      <component glyphName=".ttfautohint" x="60" y="0" flags="0x1000"/>
      <component glyphName="D" x="0" y="0" flags="0x1204"/>
      <component glyphName="caron" x="150" y="96" flags="0x1004"/>
    </TTGlyph>
    <TTGlyph name="Dcroat" xMin="20" yMin="0" xMax="700" yMax="700">
      <contour>
        <pt x="80" y="420" on="1"/>
        <pt x="80" y="700" on="1"/>
        <pt x="470" y="700" on="1"/>
        <pt x="583" y="700" on="0"/>
        <pt x="700" y="583" on="0"/>
        <pt x="700" y="470" on="1"/>
        <pt x="700" y="230" on="1"/>
        <pt x="700" y="117" on="0"/>
        <pt x="583" y="0" on="0"/>
        <pt x="470" y="0" on="1"/>
        <pt x="80" y="0" on="1"/>
        <pt x="80" y="285" on="1"/>
        <pt x="20" y="285" on="1"/>
        <pt x="20" y="420" on="1"/>
      </contour>
      <contour>
        <pt x="520" y="470" on="1"/>
        <pt x="520" y="560" on="0"/>
        <pt x="430" y="560" on="1"/>
        <pt x="260" y="560" on="1"/>
        <pt x="260" y="420" on="1"/>
        <pt x="380" y="420" on="1"/>
        <pt x="380" y="285" on="1"/>
        <pt x="260" y="285" on="1"/>
        <pt x="260" y="140" on="1"/>
        <pt x="430" y="140" on="1"/>
        <pt x="520" y="140" on="0"/>
        <pt x="520" y="230" on="1"/>
      </contour>
    </TTGlyph>
    <TTGlyph name="E" xMin="60" yMin="0" xMax="615" yMax="700">
      <contour>
        <pt x="615" y="0" on="1"/>
        <pt x="60" y="0" on="1"/>
        <pt x="60" y="700" on="1"/>
        <pt x="615" y="700" on="1"/>
        <pt x="615" y="560" on="1"/>
        <pt x="240" y="560" on="1"/>
        <pt x="240" y="425" on="1"/>
        <pt x="535" y="425" on="1"/>
        <pt x="535" y="285" on="1"/>
        <pt x="240" y="285" on="1"/>
        <pt x="240" y="140" on="1"/>
        <pt x="615" y="140" on="1"/>
      </contour>
    </TTGlyph>
    <TTGlyph name="Eacute" xMin="60" yMin="0" xMax="615" yMax="901">
      <component glyphName=".ttfautohint" x="60" y="0" flags="0x1000"/>
      <component glyphName="E" x="0" y="0" flags="0x1204"/>
      <component glyphName="acute" x="257" y="96" flags="0x1004"/>
    </TTGlyph>
    <TTGlyph name="Ecaron" xMin="60" yMin="0" xMax="615" yMax="901">
      <component glyphName=".ttfautohint" x="60" y="0" flags="0x1000"/>
      <component glyphName="E" x="0" y="0" flags="0x1204"/>
      <component glyphName="caron" x="157" y="96" flags="0x1004"/>
    </TTGlyph>
    <TTGlyph name="Ecircumflex" xMin="60" yMin="0" xMax="615" yMax="901">
      <component glyphName=".ttfautohint" x="60" y="0" flags="0x1000"/>
      <component glyphName="E" x="0" y="0" flags="0x1204"/>
      <component glyphName="circumflex" x="147" y="96" flags="0x1004"/>
    </TTGlyph>
    <TTGlyph name="Edieresis" xMin="60" yMin="0" xMax="615" yMax="901">
      <component glyphName=".ttfautohint" x="60" y="0" flags="0x1000"/>
      <component glyphName="E" x="0" y="0" flags="0x1204"/>
      <component glyphName="dieresis" x="137" y="96" flags="0x1004"/>
    </TTGlyph>
    <TTGlyph name="Edotaccent" xMin="60" yMin="0" xMax="615" yMax="901">
      <component glyphName=".ttfautohint" x="60" y="0" flags="0x1000"/>
      <component glyphName="E" x="0" y="0" flags="0x1204"/>
      <component glyphName="dotaccent" x="232" y="96" flags="0x1004"/>
    </TTGlyph>
    <TTGlyph name="Egrave" xMin="60" yMin="0" xMax="615" yMax="901">
      <component glyphName=".ttfautohint" x="60" y="0" flags="0x1000"/>
      <component glyphName="E" x="0" y="0" flags="0x1204"/>
      <component glyphName="grave" x="192" y="191" flags="0x1004"/>
    </TTGlyph>
    <TTGlyph name="Emacron" xMin="60" yMin="0" xMax="615" yMax="881">
      <component glyphName=".ttfautohint" x="60" y="0" flags="0x1000"/>
      <component glyphName="E" x="0" y="0" flags="0x1204"/>
      <component glyphName="macron" x="167" y="96" flags="0x1004"/>
    </TTGlyph>
    <TTGlyph name="Eogonek" xMin="60" yMin="-200" xMax="615" yMax="700">
      <component glyphName=".ttfautohint" x="60" y="0" flags="0x1000"/>
      <component glyphName="E" x="0" y="0" flags="0x1204"/>
      <component glyphName="ogonek" x="400" y="0" flags="0x1004"/>
    </TTGlyph>
    <TTGlyph name="Eth" xMin="20" yMin="0" xMax="700" yMax="700">
      <contour>
        <pt x="80" y="420" on="1"/>
        <pt x="80" y="700" on="1"/>
        <pt x="470" y="700" on="1"/>
        <pt x="583" y="700" on="0"/>
        <pt x="700" y="583" on="0"/>
        <pt x="700" y="470" on="1"/>
        <pt x="700" y="230" on="1"/>
        <pt x="700" y="117" on="0"/>
        <pt x="583" y="0" on="0"/>
        <pt x="470" y="0" on="1"/>
        <pt x="80" y="0" on="1"/>
        <pt x="80" y="285" on="1"/>
        <pt x="20" y="285" on="1"/>
        <pt x="20" y="420" on="1"/>
      </contour>
      <contour>
        <pt x="520" y="470" on="1"/>
        <pt x="520" y="560" on="0"/>
        <pt x="430" y="560" on="1"/>
        <pt x="260" y="560" on="1"/>
        <pt x="260" y="420" on="1"/>
        <pt x="380" y="420" on="1"/>
        <pt x="380" y="285" on="1"/>
        <pt x="260" y="285" on="1"/>
        <pt x="260" y="140" on="1"/>
        <pt x="430" y="140" on="1"/>
        <pt x="520" y="140" on="0"/>
        <pt x="520" y="230" on="1"/>
      </contour>
    </TTGlyph>
    <TTGlyph name="Euro" xMin="10" yMin="-10" xMax="640" yMax="700">
      <contour>
        <pt x="640" y="10" on="1"/>
        <pt x="417" y="-10" on="0"/>
        <pt x="270" y="-10" on="1"/>
        <pt x="172" y="-10" on="0"/>
        <pt x="80" y="82" on="0"/>
        <pt x="80" y="180" on="1"/>
        <pt x="80" y="220" on="1"/>
        <pt x="10" y="220" on="1"/>
        <pt x="20" y="325" on="1"/>
        <pt x="80" y="325" on="1"/>
        <pt x="80" y="365" on="1"/>
        <pt x="10" y="365" on="1"/>
        <pt x="20" y="470" on="1"/>
        <pt x="80" y="470" on="1"/>
        <pt x="80" y="500" on="1"/>
        <pt x="80" y="605" on="0"/>
        <pt x="175" y="700" on="0"/>
        <pt x="280" y="700" on="1"/>
        <pt x="640" y="700" on="1"/>
        <pt x="640" y="560" on="1"/>
        <pt x="320" y="560" on="1"/>
        <pt x="260" y="560" on="0"/>
        <pt x="260" y="500" on="1"/>
        <pt x="260" y="470" on="1"/>
        <pt x="500" y="470" on="1"/>
        <pt x="500" y="365" on="1"/>
        <pt x="260" y="365" on="1"/>
        <pt x="260" y="325" on="1"/>
        <pt x="500" y="325" on="1"/>
        <pt x="500" y="220" on="1"/>
        <pt x="260" y="220" on="1"/>
        <pt x="260" y="180" on="1"/>
        <pt x="260" y="157" on="0"/>
        <pt x="287" y="130" on="0"/>
        <pt x="329" y="130" on="0"/>
        <pt x="379" y="131" on="0"/>
        <pt x="433" y="133" on="0"/>
        <pt x="488" y="135" on="0"/>
        <pt x="575" y="141" on="0"/>
        <pt x="640" y="145" on="1"/>
      </contour>
    </TTGlyph>
    <TTGlyph name="F" xMin="60" yMin="0" xMax="615" yMax="700">
      <contour>
        <pt x="240" y="0" on="1"/>
        <pt x="60" y="0" on="1"/>
        <pt x="60" y="700" on="1"/>
        <pt x="615" y="700" on="1"/>
        <pt x="615" y="560" on="1"/>
        <pt x="240" y="560" on="1"/>
        <pt x="240" y="395" on="1"/>
        <pt x="535" y="395" on="1"/>
        <pt x="535" y="255" on="1"/>
        <pt x="240" y="255" on="1"/>
      </contour>
    </TTGlyph>
    <TTGlyph name="G" xMin="40" yMin="-10" xMax="660" yMax="700">
      <contour>
        <pt x="660" y="15" on="1"/>
        <pt x="426" y="-10" on="0"/>
        <pt x="230" y="-10" on="1"/>
        <pt x="132" y="-10" on="0"/>
        <pt x="40" y="82" on="0"/>
        <pt x="40" y="180" on="1"/>
        <pt x="40" y="500" on="1"/>
        <pt x="40" y="605" on="0"/>
        <pt x="135" y="700" on="0"/>
        <pt x="240" y="700" on="1"/>
        <pt x="600" y="700" on="1"/>
        <pt x="600" y="560" on="1"/>
        <pt x="280" y="560" on="1"/>
        <pt x="220" y="560" on="0"/>
        <pt x="220" y="500" on="1"/>
        <pt x="220" y="180" on="1"/>
        <pt x="220" y="157" on="0"/>
        <pt x="247" y="130" on="0"/>
        <pt x="270" y="130" on="1"/>
        <pt x="385" y="130" on="0"/>
        <pt x="480" y="135" on="1"/>
        <pt x="480" y="280" on="1"/>
        <pt x="350" y="280" on="1"/>
        <pt x="350" y="400" on="1"/>
        <pt x="660" y="400" on="1"/>
      </contour>
    </TTGlyph>
    <TTGlyph name="Gbreve" xMin="40" yMin="-10" xMax="660" yMax="900">
      <component glyphName=".ttfautohint" x="40" y="0" flags="0x1000"/>
      <component glyphName="G" x="0" y="0" flags="0x1204"/>
      <component glyphName="breve" x="170" y="85" flags="0x1004"/>
    </TTGlyph>
    <TTGlyph name="Gcommaaccent" xMin="40" yMin="-279" xMax="660" yMax="700">
      <component glyphName=".ttfautohint" x="40" y="0" flags="0x1000"/>
      <component glyphName="G" x="0" y="0" flags="0x1204"/>
      <component glyphName="commaaccent" x="265" y="-9" flags="0x1004"/>
    </TTGlyph>
    <TTGlyph name="H" xMin="60" yMin="0" xMax="670" yMax="700">
      <contour>
        <pt x="670" y="0" on="1"/>
        <pt x="490" y="0" on="1"/>
        <pt x="490" y="285" on="1"/>
        <pt x="240" y="285" on="1"/>
        <pt x="240" y="0" on="1"/>
        <pt x="60" y="0" on="1"/>
        <pt x="60" y="700" on="1"/>
        <pt x="240" y="700" on="1"/>
        <pt x="240" y="425" on="1"/>
        <pt x="490" y="425" on="1"/>
        <pt x="490" y="700" on="1"/>
        <pt x="670" y="700" on="1"/>
      </contour>
    </TTGlyph>
    <TTGlyph name="I" xMin="30" yMin="0" xMax="390" yMax="700">
      <contour>
        <pt x="390" y="0" on="1"/>
        <pt x="30" y="0" on="1"/>
        <pt x="30" y="140" on="1"/>
        <pt x="120" y="140" on="1"/>
        <pt x="120" y="560" on="1"/>
        <pt x="30" y="560" on="1"/>
        <pt x="30" y="700" on="1"/>
        <pt x="390" y="700" on="1"/>
        <pt x="390" y="560" on="1"/>
        <pt x="300" y="560" on="1"/>
        <pt x="300" y="140" on="1"/>
        <pt x="390" y="140" on="1"/>
      </contour>
    </TTGlyph>
    <TTGlyph name="Iacute" xMin="30" yMin="0" xMax="390" yMax="901">
      <component glyphName=".ttfautohint" x="30" y="0" flags="0x1000"/>
      <component glyphName="I" x="0" y="0" flags="0x1204"/>
      <component glyphName="acute" x="130" y="96" flags="0x1004"/>
    </TTGlyph>
    <TTGlyph name="Icircumflex" xMin="20" yMin="0" xMax="400" yMax="900">
      <component glyphName=".ttfautohint" x="20" y="0" flags="0x1000"/>
      <component glyphName="I" x="0" y="0" flags="0x1204"/>
      <component glyphName="circumflex" x="20" y="95" flags="0x1004"/>
    </TTGlyph>
    <TTGlyph name="Idieresis" xMin="10" yMin="0" xMax="410" yMax="901">
      <component glyphName=".ttfautohint" x="10" y="0" flags="0x1000"/>
      <component glyphName="I" x="0" y="0" flags="0x1204"/>
      <component glyphName="dieresis" x="10" y="96" flags="0x1004"/>
    </TTGlyph>
    <TTGlyph name="Idotaccent" xMin="30" yMin="0" xMax="390" yMax="900">
      <component glyphName=".ttfautohint" x="30" y="0" flags="0x1000"/>
      <component glyphName="I" x="0" y="0" flags="0x1204"/>
      <component glyphName="dotaccent" x="125" y="95" flags="0x1004"/>
    </TTGlyph>
    <TTGlyph name="Igrave" xMin="30" yMin="0" xMax="390" yMax="900">
      <component glyphName=".ttfautohint" x="30" y="0" flags="0x1000"/>
      <component glyphName="I" x="0" y="0" flags="0x1204"/>
      <component glyphName="grave" x="55" y="190" flags="0x1004"/>
    </TTGlyph>
    <TTGlyph name="Imacron" xMin="30" yMin="0" xMax="390" yMax="881">
      <component glyphName=".ttfautohint" x="30" y="0" flags="0x1000"/>
      <component glyphName="I" x="0" y="0" flags="0x1204"/>
      <component glyphName="macron" x="60" y="96" flags="0x1004"/>
    </TTGlyph>
    <TTGlyph name="Iogonek" xMin="30" yMin="-200" xMax="390" yMax="700">
      <component glyphName=".ttfautohint" x="30" y="0" flags="0x1000"/>
      <component glyphName="I" x="0" y="0" flags="0x1204"/>
      <component glyphName="ogonek" x="85" y="0" flags="0x1004"/>
    </TTGlyph>
    <TTGlyph name="Itilde" xMin="30" yMin="0" xMax="390" yMax="911">
      <component glyphName=".ttfautohint" x="30" y="0" flags="0x1000"/>
      <component glyphName="I" x="0" y="0" flags="0x1204"/>
      <component glyphName="tilde" x="35" y="96" flags="0x1004"/>
    </TTGlyph>
    <TTGlyph name="J" xMin="10" yMin="-10" xMax="400" yMax="700">
      <contour>
        <pt x="400" y="82" on="0"/>
        <pt x="308" y="-10" on="0"/>
        <pt x="117" y="-10" on="0"/>
        <pt x="10" y="0" on="1"/>
        <pt x="10" y="135" on="1"/>
        <pt x="88" y="130" on="0"/>
        <pt x="170" y="130" on="1"/>
        <pt x="193" y="130" on="0"/>
        <pt x="220" y="157" on="0"/>
        <pt x="220" y="180" on="1"/>
        <pt x="220" y="560" on="1"/>
        <pt x="90" y="560" on="1"/>
        <pt x="90" y="700" on="1"/>
        <pt x="400" y="700" on="1"/>
        <pt x="400" y="180" on="1"/>
      </contour>
    </TTGlyph>
    <TTGlyph name="Jcircumflex" xMin="10" yMin="-10" xMax="440" yMax="901">
      <component glyphName=".ttfautohint" x="10" y="0" flags="0x1000"/>
      <component glyphName="J" x="0" y="0" flags="0x1204"/>
      <component glyphName="circumflex" x="60" y="96" flags="0x1004"/>
    </TTGlyph>
    <TTGlyph name="K" xMin="60" yMin="0" xMax="676" yMax="700">
      <contour>
        <pt x="240" y="0" on="1"/>
        <pt x="60" y="0" on="1"/>
        <pt x="60" y="700" on="1"/>
        <pt x="240" y="700" on="1"/>
        <pt x="240" y="425" on="1"/>
        <pt x="330" y="425" on="1"/>
        <pt x="486" y="700" on="1"/>
        <pt x="676" y="700" on="1"/>
        <pt x="480" y="355" on="1"/>
        <pt x="675" y="0" on="1"/>
        <pt x="485" y="0" on="1"/>
        <pt x="330" y="285" on="1"/>
        <pt x="240" y="285" on="1"/>
      </contour>
    </TTGlyph>
    <TTGlyph name="Kcommaaccent" xMin="60" yMin="-270" xMax="676" yMax="700">
      <component glyphName=".ttfautohint" x="60" y="0" flags="0x1000"/>
      <component glyphName="K" x="0" y="0" flags="0x1204"/>
      <component glyphName="commaaccent" x="253" y="0" flags="0x1004"/>
    </TTGlyph>
    <TTGlyph name="L" xMin="60" yMin="0" xMax="605" yMax="700">
      <contour>
        <pt x="240" y="140" on="1"/>
        <pt x="605" y="140" on="1"/>
        <pt x="605" y="0" on="1"/>
        <pt x="60" y="0" on="1"/>
        <pt x="60" y="700" on="1"/>
        <pt x="240" y="700" on="1"/>
      </contour>
    </TTGlyph>
    <TTGlyph name="Lacute" xMin="60" yMin="0" xMax="605" yMax="901">
      <component glyphName=".ttfautohint" x="60" y="0" flags="0x1000"/>
      <component glyphName="L" x="0" y="0" flags="0x1204"/>
      <component glyphName="acute" x="77" y="96" flags="0x1004"/>
    </TTGlyph>
    <TTGlyph name="Lcaron" xMin="60" yMin="0" xMax="605" yMax="700">
      <contour>
        <pt x="300" y="700" on="1"/>
        <pt x="470" y="700" on="1"/>
        <pt x="470" y="570" on="1"/>
        <pt x="400" y="460" on="1"/>
        <pt x="320" y="460" on="1"/>
        <pt x="360" y="560" on="1"/>
        <pt x="300" y="560" on="1"/>
      </contour>
      <contour>
        <pt x="240" y="140" on="1"/>
        <pt x="605" y="140" on="1"/>
        <pt x="605" y="0" on="1"/>
        <pt x="60" y="0" on="1"/>
        <pt x="60" y="700" on="1"/>
        <pt x="240" y="700" on="1"/>
      </contour>
    </TTGlyph>
    <TTGlyph name="Lcommaaccent" xMin="60" yMin="-270" xMax="605" yMax="700">
      <component glyphName=".ttfautohint" x="60" y="0" flags="0x1000"/>
      <component glyphName="L" x="0" y="0" flags="0x1204"/>
      <component glyphName="commaaccent" x="222" y="0" flags="0x1004"/>
    </TTGlyph>
    <TTGlyph name="Lslash" xMin="20" yMin="0" xMax="625" yMax="700">
      <contour>
        <pt x="80" y="393" on="1"/>
        <pt x="80" y="700" on="1"/>
        <pt x="260" y="700" on="1"/>
        <pt x="260" y="494" on="1"/>
        <pt x="350" y="545" on="1"/>
        <pt x="350" y="380" on="1"/>
        <pt x="260" y="329" on="1"/>
        <pt x="260" y="140" on="1"/>
        <pt x="625" y="140" on="1"/>
        <pt x="625" y="0" on="1"/>
        <pt x="80" y="0" on="1"/>
        <pt x="80" y="228" on="1"/>
        <pt x="20" y="195" on="1"/>
        <pt x="20" y="360" on="1"/>
      </contour>
    </TTGlyph>
    <TTGlyph name="M" xMin="60" yMin="0" xMax="840" yMax="700">
      <contour>
        <pt x="660" y="390" on="1"/>
        <pt x="520" y="140" on="1"/>
        <pt x="380" y="140" on="1"/>
        <pt x="240" y="390" on="1"/>
        <pt x="240" y="0" on="1"/>
        <pt x="60" y="0" on="1"/>
        <pt x="60" y="700" on="1"/>
        <pt x="250" y="700" on="1"/>
        <pt x="450" y="330" on="1"/>
        <pt x="650" y="700" on="1"/>
        <pt x="840" y="700" on="1"/>
        <pt x="840" y="0" on="1"/>
        <pt x="660" y="0" on="1"/>
      </contour>
    </TTGlyph>
    <TTGlyph name="N" xMin="60" yMin="0" xMax="670" yMax="700">
      <contour>
        <pt x="670" y="0" on="1"/>
        <pt x="480" y="0" on="1"/>
        <pt x="240" y="420" on="1"/>
        <pt x="240" y="0" on="1"/>
        <pt x="60" y="0" on="1"/>
        <pt x="60" y="700" on="1"/>
        <pt x="250" y="700" on="1"/>
        <pt x="490" y="280" on="1"/>
        <pt x="490" y="700" on="1"/>
        <pt x="670" y="700" on="1"/>
      </contour>
    </TTGlyph>
    <TTGlyph name="Nacute" xMin="60" yMin="0" xMax="670" yMax="891">
      <component glyphName=".ttfautohint" x="60" y="0" flags="0x1000"/>
      <component glyphName="N" x="0" y="0" flags="0x1204"/>
      <component glyphName="acute" x="285" y="86" flags="0x1004"/>
    </TTGlyph>
    <TTGlyph name="Ncaron" xMin="60" yMin="0" xMax="670" yMax="891">
      <component glyphName=".ttfautohint" x="60" y="0" flags="0x1000"/>
      <component glyphName="N" x="0" y="0" flags="0x1204"/>
      <component glyphName="caron" x="175" y="86" flags="0x1004"/>
    </TTGlyph>
    <TTGlyph name="Ncommaaccent" xMin="60" yMin="-270" xMax="670" yMax="700">
      <component glyphName=".ttfautohint" x="60" y="0" flags="0x1000"/>
      <component glyphName="N" x="0" y="0" flags="0x1204"/>
      <component glyphName="commaaccent" x="280" y="0" flags="0x1004"/>
    </TTGlyph>
    <TTGlyph name="Ntilde" xMin="60" yMin="0" xMax="670" yMax="901">
      <component glyphName=".ttfautohint" x="60" y="0" flags="0x1000"/>
      <component glyphName="N" x="0" y="0" flags="0x1204"/>
      <component glyphName="tilde" x="190" y="86" flags="0x1004"/>
    </TTGlyph>
    <TTGlyph name="O" xMin="40" yMin="-10" xMax="690" yMax="710">
      <contour>
        <pt x="510" y="510" on="1"/>
        <pt x="510" y="570" on="0"/>
        <pt x="450" y="570" on="1"/>
        <pt x="280" y="570" on="1"/>
        <pt x="220" y="570" on="0"/>
        <pt x="220" y="510" on="1"/>
        <pt x="220" y="190" on="1"/>
        <pt x="220" y="130" on="0"/>
        <pt x="280" y="130" on="1"/>
        <pt x="450" y="130" on="1"/>
        <pt x="510" y="130" on="0"/>
        <pt x="510" y="190" on="1"/>
      </contour>
      <contour>
        <pt x="690" y="190" on="1"/>
        <pt x="690" y="85" on="0"/>
        <pt x="595" y="-10" on="0"/>
        <pt x="490" y="-10" on="1"/>
        <pt x="240" y="-10" on="1"/>
        <pt x="135" y="-10" on="0"/>
        <pt x="40" y="85" on="0"/>
        <pt x="40" y="190" on="1"/>
        <pt x="40" y="510" on="1"/>
        <pt x="40" y="615" on="0"/>
        <pt x="135" y="710" on="0"/>
        <pt x="240" y="710" on="1"/>
        <pt x="490" y="710" on="1"/>
        <pt x="595" y="710" on="0"/>
        <pt x="690" y="615" on="0"/>
        <pt x="690" y="510" on="1"/>
      </contour>
    </TTGlyph>
    <TTGlyph name="OE" xMin="40" yMin="0" xMax="975" yMax="700">
      <contour>
        <pt x="975" y="0" on="1"/>
        <pt x="240" y="0" on="1"/>
        <pt x="135" y="0" on="0"/>
        <pt x="40" y="95" on="0"/>
        <pt x="40" y="200" on="1"/>
        <pt x="40" y="500" on="1"/>
        <pt x="40" y="605" on="0"/>
        <pt x="135" y="700" on="0"/>
        <pt x="240" y="700" on="1"/>
        <pt x="975" y="700" on="1"/>
        <pt x="975" y="560" on="1"/>
        <pt x="640" y="560" on="1"/>
        <pt x="640" y="425" on="1"/>
        <pt x="895" y="425" on="1"/>
        <pt x="895" y="285" on="1"/>
        <pt x="640" y="285" on="1"/>
        <pt x="640" y="140" on="1"/>
        <pt x="975" y="140" on="1"/>
      </contour>
      <contour>
        <pt x="460" y="140" on="1"/>
        <pt x="460" y="560" on="1"/>
        <pt x="280" y="560" on="1"/>
        <pt x="220" y="560" on="0"/>
        <pt x="220" y="500" on="1"/>
        <pt x="220" y="200" on="1"/>
        <pt x="220" y="140" on="0"/>
        <pt x="280" y="140" on="1"/>
      </contour>
    </TTGlyph>
    <TTGlyph name="Oacute" xMin="40" yMin="-10" xMax="690" yMax="911">
      <component glyphName=".ttfautohint" x="40" y="0" flags="0x1000"/>
      <component glyphName="O" x="0" y="0" flags="0x1204"/>
      <component glyphName="acute" x="285" y="106" flags="0x1004"/>
    </TTGlyph>
    <TTGlyph name="Ocircumflex" xMin="40" yMin="-10" xMax="690" yMax="911">
      <component glyphName=".ttfautohint" x="40" y="0" flags="0x1000"/>
      <component glyphName="O" x="0" y="0" flags="0x1204"/>
      <component glyphName="circumflex" x="175" y="106" flags="0x1004"/>
    </TTGlyph>
    <TTGlyph name="Odieresis" xMin="40" yMin="-10" xMax="690" yMax="901">
      <component glyphName=".ttfautohint" x="40" y="0" flags="0x1000"/>
      <component glyphName="O" x="0" y="0" flags="0x1204"/>
      <component glyphName="dieresis" x="165" y="96" flags="0x1004"/>
    </TTGlyph>
    <TTGlyph name="Ograve" xMin="40" yMin="-10" xMax="690" yMax="910">
      <component glyphName=".ttfautohint" x="40" y="0" flags="0x1000"/>
      <component glyphName="O" x="0" y="0" flags="0x1204"/>
      <component glyphName="grave" x="210" y="200" flags="0x1004"/>
    </TTGlyph>
    <TTGlyph name="Ohungarumlaut" xMin="40" yMin="-10" xMax="690" yMax="911">
      <component glyphName=".ttfautohint" x="40" y="0" flags="0x1000"/>
      <component glyphName="O" x="0" y="0" flags="0x1204"/>
      <component glyphName="hungarumlaut" x="215" y="106" flags="0x1004"/>
    </TTGlyph>
    <TTGlyph name="Omacron" xMin="40" yMin="-10" xMax="690" yMax="881">
      <component glyphName=".ttfautohint" x="40" y="0" flags="0x1000"/>
      <component glyphName="O" x="0" y="0" flags="0x1204"/>
      <component glyphName="macron" x="215" y="96" flags="0x1004"/>
    </TTGlyph>
    <TTGlyph name="Oslash" xMin="25" yMin="-15" xMax="705" yMax="715">
      <contour>
        <pt x="25" y="50" on="1"/>
        <pt x="56" y="84" on="1"/>
        <pt x="40" y="125" on="0"/>
        <pt x="40" y="190" on="1"/>
        <pt x="40" y="510" on="1"/>
        <pt x="40" y="615" on="0"/>
        <pt x="135" y="710" on="0"/>
        <pt x="240" y="710" on="1"/>
        <pt x="490" y="710" on="1"/>
        <pt x="562" y="710" on="0"/>
        <pt x="609" y="686" on="1"/>
        <pt x="635" y="715" on="1"/>
        <pt x="705" y="650" on="1"/>
        <pt x="673" y="615" on="1"/>
        <pt x="690" y="575" on="0"/>
        <pt x="690" y="510" on="1"/>
        <pt x="690" y="190" on="1"/>
        <pt x="690" y="85" on="0"/>
        <pt x="595" y="-10" on="0"/>
        <pt x="490" y="-10" on="1"/>
        <pt x="240" y="-10" on="1"/>
        <pt x="167" y="-10" on="0"/>
        <pt x="121" y="13" on="1"/>
        <pt x="95" y="-15" on="1"/>
      </contour>
      <contour>
        <pt x="220" y="262" on="1"/>
        <pt x="491" y="558" on="1"/>
        <pt x="476" y="570" on="0"/>
        <pt x="450" y="570" on="1"/>
        <pt x="280" y="570" on="1"/>
        <pt x="220" y="570" on="0"/>
        <pt x="220" y="510" on="1"/>
      </contour>
      <contour>
        <pt x="510" y="437" on="1"/>
        <pt x="238" y="141" on="1"/>
        <pt x="252" y="130" on="0"/>
        <pt x="280" y="130" on="1"/>
        <pt x="450" y="130" on="1"/>
        <pt x="510" y="130" on="0"/>
        <pt x="510" y="190" on="1"/>
      </contour>
    </TTGlyph>
    <TTGlyph name="Otilde" xMin="40" yMin="-10" xMax="690" yMax="911">
      <component glyphName=".ttfautohint" x="40" y="0" flags="0x1000"/>
      <component glyphName="O" x="0" y="0" flags="0x1204"/>
      <component glyphName="tilde" x="190" y="96" flags="0x1004"/>
    </TTGlyph>
    <TTGlyph name="P" xMin="60" yMin="0" xMax="680" yMax="700">
      <contour>
        <pt x="60" y="700" on="1"/>
        <pt x="480" y="700" on="1"/>
        <pt x="585" y="700" on="0"/>
        <pt x="680" y="605" on="0"/>
        <pt x="680" y="500" on="1"/>
        <pt x="680" y="400" on="1"/>
        <pt x="680" y="295" on="0"/>
        <pt x="585" y="200" on="0"/>
        <pt x="480" y="200" on="1"/>
        <pt x="240" y="200" on="1"/>
        <pt x="240" y="0" on="1"/>
        <pt x="60" y="0" on="1"/>
      </contour>
      <contour>
        <pt x="500" y="500" on="1"/>
        <pt x="500" y="560" on="0"/>
        <pt x="440" y="560" on="1"/>
        <pt x="240" y="560" on="1"/>
        <pt x="240" y="340" on="1"/>
        <pt x="440" y="340" on="1"/>
        <pt x="500" y="340" on="0"/>
        <pt x="500" y="400" on="1"/>
      </contour>
    </TTGlyph>
    <TTGlyph name="Q" xMin="40" yMin="-170" xMax="690" yMax="710">
      <contour>
        <pt x="550" y="-160" on="1"/>
        <pt x="480" y="-170" on="0"/>
        <pt x="352" y="-170" on="0"/>
        <pt x="270" y="-88" on="0"/>
        <pt x="270" y="-20" on="1"/>
        <pt x="270" y="-10" on="1"/>
        <pt x="240" y="-10" on="1"/>
        <pt x="135" y="-10" on="0"/>
        <pt x="40" y="85" on="0"/>
        <pt x="40" y="190" on="1"/>
        <pt x="40" y="510" on="1"/>
        <pt x="40" y="615" on="0"/>
        <pt x="135" y="710" on="0"/>
        <pt x="240" y="710" on="1"/>
        <pt x="490" y="710" on="1"/>
        <pt x="595" y="710" on="0"/>
        <pt x="690" y="615" on="0"/>
        <pt x="690" y="510" on="1"/>
        <pt x="690" y="190" on="1"/>
        <pt x="690" y="85" on="0"/>
        <pt x="595" y="-10" on="0"/>
        <pt x="490" y="-10" on="1"/>
        <pt x="440" y="-10" on="1"/>
        <pt x="440" y="-20" on="1"/>
        <pt x="440" y="-35" on="0"/>
        <pt x="460" y="-55" on="0"/>
        <pt x="475" y="-55" on="1"/>
        <pt x="550" y="-55" on="1"/>
      </contour>
      <contour>
        <pt x="510" y="510" on="1"/>
        <pt x="510" y="570" on="0"/>
        <pt x="450" y="570" on="1"/>
        <pt x="280" y="570" on="1"/>
        <pt x="220" y="570" on="0"/>
        <pt x="220" y="510" on="1"/>
        <pt x="220" y="190" on="1"/>
        <pt x="220" y="130" on="0"/>
        <pt x="280" y="130" on="1"/>
        <pt x="450" y="130" on="1"/>
        <pt x="510" y="130" on="0"/>
        <pt x="510" y="190" on="1"/>
      </contour>
    </TTGlyph>
    <TTGlyph name="R" xMin="60" yMin="0" xMax="690" yMax="700">
      <contour>
        <pt x="60" y="700" on="1"/>
        <pt x="480" y="700" on="1"/>
        <pt x="585" y="700" on="0"/>
        <pt x="680" y="605" on="0"/>
        <pt x="680" y="500" on="1"/>
        <pt x="680" y="410" on="1"/>
        <pt x="680" y="327" on="0"/>
        <pt x="625" y="235" on="0"/>
        <pt x="565" y="220" on="1"/>
        <pt x="690" y="0" on="1"/>
        <pt x="495" y="0" on="1"/>
        <pt x="380" y="210" on="1"/>
        <pt x="240" y="210" on="1"/>
        <pt x="240" y="0" on="1"/>
        <pt x="60" y="0" on="1"/>
      </contour>
      <contour>
        <pt x="500" y="500" on="1"/>
        <pt x="500" y="560" on="0"/>
        <pt x="440" y="560" on="1"/>
        <pt x="240" y="560" on="1"/>
        <pt x="240" y="350" on="1"/>
        <pt x="440" y="350" on="1"/>
        <pt x="500" y="350" on="0"/>
        <pt x="500" y="410" on="1"/>
      </contour>
    </TTGlyph>
    <TTGlyph name="Racute" xMin="60" yMin="0" xMax="690" yMax="901">
      <component glyphName=".ttfautohint" x="60" y="0" flags="0x1000"/>
      <component glyphName="R" x="0" y="0" flags="0x1204"/>
      <component glyphName="acute" x="260" y="96" flags="0x1004"/>
    </TTGlyph>
    <TTGlyph name="Rcaron" xMin="60" yMin="0" xMax="690" yMax="901">
      <component glyphName=".ttfautohint" x="60" y="0" flags="0x1000"/>
      <component glyphName="R" x="0" y="0" flags="0x1204"/>
      <component glyphName="caron" x="160" y="96" flags="0x1004"/>
    </TTGlyph>
    <TTGlyph name="Rcommaaccent" xMin="60" yMin="-270" xMax="690" yMax="700">
      <component glyphName=".ttfautohint" x="60" y="0" flags="0x1000"/>
      <component glyphName="R" x="0" y="0" flags="0x1204"/>
      <component glyphName="commaaccent" x="275" y="0" flags="0x1004"/>
    </TTGlyph>
    <TTGlyph name="S" xMin="30" yMin="-10" xMax="640" yMax="700">
      <contour>
        <pt x="39" y="145" on="1"/>
        <pt x="313" y="130" on="0"/>
        <pt x="410" y="130" on="1"/>
        <pt x="433" y="130" on="0"/>
        <pt x="460" y="157" on="0"/>
        <pt x="460" y="180" on="1"/>
        <pt x="460" y="270" on="1"/>
        <pt x="230" y="270" on="1"/>
        <pt x="125" y="270" on="0"/>
        <pt x="30" y="365" on="0"/>
        <pt x="30" y="470" on="1"/>
        <pt x="30" y="500" on="1"/>
        <pt x="30" y="605" on="0"/>
        <pt x="125" y="700" on="0"/>
        <pt x="230" y="700" on="1"/>
        <pt x="581" y="700" on="1"/>
        <pt x="581" y="560" on="1"/>
        <pt x="270" y="560" on="1"/>
        <pt x="210" y="560" on="0"/>
        <pt x="210" y="500" on="1"/>
        <pt x="210" y="480" on="1"/>
        <pt x="210" y="420" on="0"/>
        <pt x="270" y="420" on="1"/>
        <pt x="450" y="420" on="1"/>
        <pt x="548" y="420" on="0"/>
        <pt x="640" y="328" on="0"/>
        <pt x="640" y="230" on="1"/>
        <pt x="640" y="180" on="1"/>
        <pt x="640" y="82" on="0"/>
        <pt x="548" y="-10" on="0"/>
        <pt x="450" y="-10" on="1"/>
        <pt x="399" y="-10" on="0"/>
        <pt x="342" y="-8" on="1"/>
        <pt x="250" y="-4" on="1"/>
        <pt x="148" y="1" on="0"/>
        <pt x="39" y="10" on="1"/>
      </contour>
    </TTGlyph>
    <TTGlyph name="Sacute" xMin="30" yMin="-10" xMax="640" yMax="901">
      <component glyphName=".ttfautohint" x="30" y="0" flags="0x1000"/>
      <component glyphName="S" x="0" y="0" flags="0x1204"/>
      <component glyphName="acute" x="245" y="96" flags="0x1004"/>
    </TTGlyph>
    <TTGlyph name="Scaron" xMin="30" yMin="-10" xMax="640" yMax="901">
      <component glyphName=".ttfautohint" x="30" y="0" flags="0x1000"/>
      <component glyphName="S" x="0" y="0" flags="0x1204"/>
      <component glyphName="caron" x="145" y="96" flags="0x1004"/>
    </TTGlyph>
    <TTGlyph name="Scedilla" xMin="30" yMin="-209" xMax="640" yMax="700">
      <component glyphName=".ttfautohint" x="30" y="0" flags="0x1000"/>
      <component glyphName="S" x="0" y="0" flags="0x1204"/>
      <component glyphName="cedilla" x="235" y="-9" flags="0x1004"/>
    </TTGlyph>
    <TTGlyph name="Scommaaccent" xMin="30" yMin="-279" xMax="640" yMax="700">
      <component glyphName=".ttfautohint" x="30" y="0" flags="0x1000"/>
      <component glyphName="S" x="0" y="0" flags="0x1204"/>
      <component glyphName="commaaccent" x="255" y="-9" flags="0x1004"/>
    </TTGlyph>
    <TTGlyph name="T" xMin="10" yMin="0" xMax="610" yMax="700">
      <contour>
        <pt x="400" y="0" on="1"/>
        <pt x="220" y="0" on="1"/>
        <pt x="220" y="560" on="1"/>
        <pt x="10" y="560" on="1"/>
        <pt x="10" y="700" on="1"/>
        <pt x="610" y="700" on="1"/>
        <pt x="610" y="560" on="1"/>
        <pt x="400" y="560" on="1"/>
      </contour>
    </TTGlyph>
    <TTGlyph name="Tcaron" xMin="10" yMin="0" xMax="610" yMax="901">
      <component glyphName=".ttfautohint" x="10" y="0" flags="0x1000"/>
      <component glyphName="T" x="0" y="0" flags="0x1204"/>
      <component glyphName="caron" x="120" y="96" flags="0x1004"/>
    </TTGlyph>
    <TTGlyph name="Tcommaaccent" xMin="10" yMin="-270" xMax="610" yMax="700">
      <component glyphName=".ttfautohint" x="10" y="0" flags="0x1000"/>
      <component glyphName="T" x="0" y="0" flags="0x1204"/>
      <component glyphName="commaaccent" x="225" y="0" flags="0x1004"/>
    </TTGlyph>
    <TTGlyph name="Thorn" xMin="60" yMin="-10" xMax="700" yMax="710">
      <contour>
        <pt x="700" y="270" on="1"/>
        <pt x="700" y="165" on="0"/>
        <pt x="605" y="70" on="0"/>
        <pt x="500" y="70" on="1"/>
        <pt x="240" y="70" on="1"/>
        <pt x="240" y="-10" on="1"/>
        <pt x="60" y="-10" on="1"/>
        <pt x="60" y="710" on="1"/>
        <pt x="240" y="710" on="1"/>
        <pt x="240" y="630" on="1"/>
        <pt x="500" y="630" on="1"/>
        <pt x="605" y="630" on="0"/>
        <pt x="700" y="535" on="0"/>
        <pt x="700" y="430" on="1"/>
      </contour>
      <contour>
        <pt x="520" y="430" on="1"/>
        <pt x="520" y="490" on="0"/>
        <pt x="460" y="490" on="1"/>
        <pt x="240" y="490" on="1"/>
        <pt x="240" y="210" on="1"/>
        <pt x="460" y="210" on="1"/>
        <pt x="520" y="210" on="0"/>
        <pt x="520" y="270" on="1"/>
      </contour>
    </TTGlyph>
    <TTGlyph name="U" xMin="60" yMin="-10" xMax="690" yMax="700">
      <contour>
        <pt x="510" y="700" on="1"/>
        <pt x="690" y="700" on="1"/>
        <pt x="690" y="190" on="1"/>
        <pt x="690" y="85" on="0"/>
        <pt x="595" y="-10" on="0"/>
        <pt x="490" y="-10" on="1"/>
        <pt x="260" y="-10" on="1"/>
        <pt x="155" y="-10" on="0"/>
        <pt x="60" y="85" on="0"/>
        <pt x="60" y="190" on="1"/>
        <pt x="60" y="700" on="1"/>
        <pt x="240" y="700" on="1"/>
        <pt x="240" y="190" on="1"/>
        <pt x="240" y="130" on="0"/>
        <pt x="300" y="130" on="1"/>
        <pt x="450" y="130" on="1"/>
        <pt x="510" y="130" on="0"/>
        <pt x="510" y="190" on="1"/>
      </contour>
    </TTGlyph>
    <TTGlyph name="Uacute" xMin="60" yMin="-10" xMax="690" yMax="891">
      <component glyphName=".ttfautohint" x="60" y="0" flags="0x1000"/>
      <component glyphName="U" x="0" y="0" flags="0x1204"/>
      <component glyphName="acute" x="295" y="86" flags="0x1004"/>
    </TTGlyph>
    <TTGlyph name="Ucircumflex" xMin="60" yMin="-10" xMax="690" yMax="901">
      <component glyphName=".ttfautohint" x="60" y="0" flags="0x1000"/>
      <component glyphName="U" x="0" y="0" flags="0x1204"/>
      <component glyphName="circumflex" x="185" y="96" flags="0x1004"/>
    </TTGlyph>
    <TTGlyph name="Udieresis" xMin="60" yMin="-10" xMax="690" yMax="891">
      <component glyphName=".ttfautohint" x="60" y="0" flags="0x1000"/>
      <component glyphName="U" x="0" y="0" flags="0x1204"/>
      <component glyphName="dieresis" x="175" y="86" flags="0x1004"/>
    </TTGlyph>
    <TTGlyph name="Ugrave" xMin="60" yMin="-10" xMax="690" yMax="891">
      <component glyphName=".ttfautohint" x="60" y="0" flags="0x1000"/>
      <component glyphName="U" x="0" y="0" flags="0x1204"/>
      <component glyphName="grave" x="220" y="181" flags="0x1004"/>
    </TTGlyph>
    <TTGlyph name="Uhungarumlaut" xMin="60" yMin="-10" xMax="690" yMax="891">
      <component glyphName=".ttfautohint" x="60" y="0" flags="0x1000"/>
      <component glyphName="U" x="0" y="0" flags="0x1204"/>
      <component glyphName="hungarumlaut" x="225" y="86" flags="0x1004"/>
    </TTGlyph>
    <TTGlyph name="Umacron" xMin="60" yMin="-10" xMax="690" yMax="871">
      <component glyphName=".ttfautohint" x="60" y="0" flags="0x1000"/>
      <component glyphName="U" x="0" y="0" flags="0x1204"/>
      <component glyphName="macron" x="225" y="86" flags="0x1004"/>
    </TTGlyph>
    <TTGlyph name="Uogonek" xMin="60" yMin="-200" xMax="690" yMax="700">
      <component glyphName=".ttfautohint" x="60" y="0" flags="0x1000"/>
      <component glyphName="U" x="0" y="0" flags="0x1204"/>
      <component glyphName="ogonek" x="275" y="0" flags="0x1004"/>
    </TTGlyph>
    <TTGlyph name="Uring" xMin="60" yMin="-10" xMax="690" yMax="916">
      <component glyphName=".ttfautohint" x="60" y="0" flags="0x1000"/>
      <component glyphName="U" x="0" y="0" flags="0x1204"/>
      <component glyphName="ring" x="505" y="86" flags="0x1004"/>
    </TTGlyph>
    <TTGlyph name="V" xMin="-10" yMin="0" xMax="720" yMax="700">
      <contour>
        <pt x="355" y="210" on="1"/>
        <pt x="525" y="700" on="1"/>
        <pt x="720" y="700" on="1"/>
        <pt x="455" y="0" on="1"/>
        <pt x="255" y="0" on="1"/>
        <pt x="-10" y="700" on="1"/>
        <pt x="185" y="700" on="1"/>
      </contour>
    </TTGlyph>
    <TTGlyph name="W" xMin="-10" yMin="0" xMax="990" yMax="700">
      <contour>
        <pt x="570" y="700" on="1"/>
        <pt x="690" y="250" on="1"/>
        <pt x="795" y="700" on="1"/>
        <pt x="990" y="700" on="1"/>
        <pt x="800" y="0" on="1"/>
        <pt x="610" y="0" on="1"/>
        <pt x="490" y="435" on="1"/>
        <pt x="370" y="0" on="1"/>
        <pt x="180" y="0" on="1"/>
        <pt x="-10" y="700" on="1"/>
        <pt x="185" y="700" on="1"/>
        <pt x="290" y="250" on="1"/>
        <pt x="410" y="700" on="1"/>
      </contour>
    </TTGlyph>
    <TTGlyph name="X" xMin="-10" yMin="0" xMax="670" yMax="700">
      <contour>
        <pt x="465" y="700" on="1"/>
        <pt x="665" y="700" on="1"/>
        <pt x="440" y="350" on="1"/>
        <pt x="670" y="0" on="1"/>
        <pt x="470" y="0" on="1"/>
        <pt x="330" y="220" on="1"/>
        <pt x="190" y="0" on="1"/>
        <pt x="-10" y="0" on="1"/>
        <pt x="220" y="350" on="1"/>
        <pt x="-5" y="700" on="1"/>
        <pt x="194" y="700" on="1"/>
        <pt x="330" y="480" on="1"/>
      </contour>
    </TTGlyph>
    <TTGlyph name="Y" xMin="-20" yMin="0" xMax="690" yMax="700">
      <contour>
        <pt x="-20" y="700" on="1"/>
        <pt x="170" y="700" on="1"/>
        <pt x="335" y="360" on="1"/>
        <pt x="500" y="700" on="1"/>
        <pt x="690" y="700" on="1"/>
        <pt x="425" y="185" on="1"/>
        <pt x="425" y="0" on="1"/>
        <pt x="245" y="0" on="1"/>
        <pt x="245" y="185" on="1"/>
      </contour>
    </TTGlyph>
    <TTGlyph name="Yacute" xMin="-20" yMin="0" xMax="690" yMax="891">
      <component glyphName=".ttfautohint" x="0" y="0" flags="0x1000"/>
      <component glyphName="Y" x="0" y="0" flags="0x1204"/>
      <component glyphName="acute" x="245" y="86" flags="0x1004"/>
    </TTGlyph>
    <TTGlyph name="Ydieresis" xMin="-20" yMin="0" xMax="690" yMax="871">
      <component glyphName=".ttfautohint" x="0" y="0" flags="0x1000"/>
      <component glyphName="Y" x="0" y="0" flags="0x1204"/>
      <component glyphName="dieresis" x="135" y="66" flags="0x1004"/>
    </TTGlyph>
    <TTGlyph name="Z" xMin="20" yMin="0" xMax="590" yMax="700">
      <contour>
        <pt x="590" y="560" on="1"/>
        <pt x="240" y="140" on="1"/>
        <pt x="590" y="140" on="1"/>
        <pt x="590" y="0" on="1"/>
        <pt x="20" y="0" on="1"/>
        <pt x="20" y="140" on="1"/>
        <pt x="370" y="560" on="1"/>
        <pt x="20" y="560" on="1"/>
        <pt x="20" y="700" on="1"/>
        <pt x="590" y="700" on="1"/>
      </contour>
    </TTGlyph>
    <TTGlyph name="Zacute" xMin="20" yMin="0" xMax="590" yMax="901">
      <component glyphName=".ttfautohint" x="20" y="0" flags="0x1000"/>
      <component glyphName="Z" x="0" y="0" flags="0x1204"/>
      <component glyphName="acute" x="215" y="96" flags="0x1004"/>
    </TTGlyph>
    <TTGlyph name="Zcaron" xMin="20" yMin="0" xMax="590" yMax="901">
      <component glyphName=".ttfautohint" x="20" y="0" flags="0x1000"/>
      <component glyphName="Z" x="0" y="0" flags="0x1204"/>
      <component glyphName="caron" x="115" y="96" flags="0x1004"/>
    </TTGlyph>
    <TTGlyph name="Zdotaccent" xMin="20" yMin="0" xMax="590" yMax="901">
      <component glyphName=".ttfautohint" x="20" y="0" flags="0x1000"/>
      <component glyphName="Z" x="0" y="0" flags="0x1204"/>
      <component glyphName="dotaccent" x="220" y="96" flags="0x1004"/>
    </TTGlyph>
    <TTGlyph name="a" xMin="25" yMin="-10" xMax="555" yMax="540">
      <contour>
        <pt x="260" y="130" on="1"/>
        <pt x="313" y="130" on="0"/>
        <pt x="380" y="150" on="1"/>
        <pt x="380" y="210" on="1"/>
        <pt x="235" y="210" on="1"/>
        <pt x="220" y="210" on="0"/>
        <pt x="200" y="190" on="0"/>
        <pt x="200" y="175" on="1"/>
        <pt x="200" y="165" on="1"/>
        <pt x="200" y="150" on="0"/>
        <pt x="220" y="130" on="0"/>
        <pt x="235" y="130" on="1"/>
      </contour>
      <contour>
        <pt x="75" y="520" on="1"/>
        <pt x="258" y="540" on="0"/>
        <pt x="405" y="540" on="1"/>
        <pt x="473" y="540" on="0"/>
        <pt x="555" y="458" on="0"/>
        <pt x="555" y="390" on="1"/>
        <pt x="555" y="0" on="1"/>
        <pt x="400" y="0" on="1"/>
        <pt x="390" y="50" on="1"/>
        <pt x="343" y="19" on="0"/>
        <pt x="244" y="-10" on="0"/>
        <pt x="210" y="-10" on="1"/>
        <pt x="175" y="-10" on="1"/>
        <pt x="107" y="-10" on="0"/>
        <pt x="25" y="72" on="0"/>
        <pt x="25" y="140" on="1"/>
        <pt x="25" y="185" on="1"/>
        <pt x="25" y="253" on="0"/>
        <pt x="107" y="335" on="0"/>
        <pt x="175" y="335" on="1"/>
        <pt x="380" y="335" on="1"/>
        <pt x="380" y="375" on="1"/>
        <pt x="380" y="390" on="0"/>
        <pt x="360" y="410" on="0"/>
        <pt x="345" y="410" on="1"/>
        <pt x="280" y="410" on="0"/>
        <pt x="123" y="398" on="0"/>
        <pt x="75" y="395" on="1"/>
      </contour>
    </TTGlyph>
    <TTGlyph name="aacute" xMin="25" yMin="-10" xMax="555" yMax="741">
      <component glyphName=".ttfautohint" x="25" y="0" flags="0x1000"/>
      <component glyphName="a" x="0" y="0" flags="0x1204"/>
      <component glyphName="acute" x="209" y="-64" flags="0x1004"/>
    </TTGlyph>
    <TTGlyph name="abreve" xMin="25" yMin="-10" xMax="555" yMax="740">
      <contour>
        <pt x="260" y="580" on="1"/>
        <pt x="130" y="580" on="0"/>
        <pt x="130" y="710" on="1"/>
        <pt x="130" y="740" on="1"/>
        <pt x="260" y="740" on="1"/>
        <pt x="260" y="715" on="1"/>
        <pt x="260" y="700" on="0"/>
        <pt x="280" y="680" on="0"/>
        <pt x="295" y="680" on="1"/>
        <pt x="325" y="680" on="1"/>
        <pt x="340" y="680" on="0"/>
        <pt x="360" y="700" on="0"/>
        <pt x="360" y="715" on="1"/>
        <pt x="360" y="740" on="1"/>
        <pt x="490" y="740" on="1"/>
        <pt x="490" y="710" on="1"/>
        <pt x="490" y="580" on="0"/>
        <pt x="360" y="580" on="1"/>
      </contour>
      <contour>
        <pt x="260" y="130" on="1"/>
        <pt x="313" y="130" on="0"/>
        <pt x="380" y="150" on="1"/>
        <pt x="380" y="210" on="1"/>
        <pt x="235" y="210" on="1"/>
        <pt x="220" y="210" on="0"/>
        <pt x="200" y="190" on="0"/>
        <pt x="200" y="175" on="1"/>
        <pt x="200" y="165" on="1"/>
        <pt x="200" y="150" on="0"/>
        <pt x="220" y="130" on="0"/>
        <pt x="235" y="130" on="1"/>
      </contour>
      <contour>
        <pt x="75" y="520" on="1"/>
        <pt x="258" y="540" on="0"/>
        <pt x="405" y="540" on="1"/>
        <pt x="473" y="540" on="0"/>
        <pt x="555" y="458" on="0"/>
        <pt x="555" y="390" on="1"/>
        <pt x="555" y="0" on="1"/>
        <pt x="400" y="0" on="1"/>
        <pt x="390" y="50" on="1"/>
        <pt x="343" y="19" on="0"/>
        <pt x="244" y="-10" on="0"/>
        <pt x="210" y="-10" on="1"/>
        <pt x="175" y="-10" on="1"/>
        <pt x="107" y="-10" on="0"/>
        <pt x="25" y="72" on="0"/>
        <pt x="25" y="140" on="1"/>
        <pt x="25" y="185" on="1"/>
        <pt x="25" y="253" on="0"/>
        <pt x="107" y="335" on="0"/>
        <pt x="175" y="335" on="1"/>
        <pt x="380" y="335" on="1"/>
        <pt x="380" y="375" on="1"/>
        <pt x="380" y="390" on="0"/>
        <pt x="360" y="410" on="0"/>
        <pt x="345" y="410" on="1"/>
        <pt x="280" y="410" on="0"/>
        <pt x="123" y="398" on="0"/>
        <pt x="75" y="395" on="1"/>
      </contour>
    </TTGlyph>
    <TTGlyph name="acircumflex" xMin="25" yMin="-10" xMax="555" yMax="741">
      <component glyphName=".ttfautohint" x="25" y="0" flags="0x1000"/>
      <component glyphName="a" x="0" y="0" flags="0x1204"/>
      <component glyphName="circumflex" x="130" y="-64" flags="0x1004"/>
    </TTGlyph>
    <TTGlyph name="acute" xMin="10" yMin="635" xMax="250" yMax="805">
      <contour>
        <pt x="10" y="635" on="1"/>
        <pt x="70" y="805" on="1"/>
        <pt x="250" y="805" on="1"/>
        <pt x="140" y="635" on="1"/>
      </contour>
    </TTGlyph>
    <TTGlyph name="adieresis" xMin="25" yMin="-10" xMax="555" yMax="731">
      <component glyphName=".ttfautohint" x="25" y="0" flags="0x1000"/>
      <component glyphName="a" x="0" y="0" flags="0x1204"/>
      <component glyphName="dieresis" x="120" y="-74" flags="0x1004"/>
    </TTGlyph>
    <TTGlyph name="ae" xMin="25" yMin="-10" xMax="880" yMax="540">
      <contour>
        <pt x="75" y="520" on="1"/>
        <pt x="228" y="540" on="0"/>
        <pt x="360" y="540" on="1"/>
        <pt x="422" y="540" on="0"/>
        <pt x="465" y="505" on="1"/>
        <pt x="504" y="540" on="0"/>
        <pt x="570" y="540" on="1"/>
        <pt x="720" y="540" on="1"/>
        <pt x="795" y="540" on="0"/>
        <pt x="880" y="455" on="0"/>
        <pt x="880" y="380" on="1"/>
        <pt x="880" y="205" on="1"/>
        <pt x="545" y="205" on="1"/>
        <pt x="545" y="150" on="1"/>
        <pt x="545" y="139" on="0"/>
        <pt x="565" y="120" on="0"/>
        <pt x="580" y="120" on="1"/>
        <pt x="680" y="120" on="0"/>
        <pt x="860" y="135" on="1"/>
        <pt x="860" y="10" on="1"/>
        <pt x="673" y="-10" on="0"/>
        <pt x="520" y="-10" on="1"/>
        <pt x="451" y="-10" on="0"/>
        <pt x="414" y="22" on="1"/>
        <pt x="397" y="36" on="0"/>
        <pt x="390" y="55" on="1"/>
        <pt x="340" y="20" on="0"/>
        <pt x="238" y="-10" on="0"/>
        <pt x="200" y="-10" on="1"/>
        <pt x="175" y="-10" on="1"/>
        <pt x="107" y="-10" on="0"/>
        <pt x="25" y="72" on="0"/>
        <pt x="25" y="140" on="1"/>
        <pt x="25" y="185" on="1"/>
        <pt x="25" y="253" on="0"/>
        <pt x="107" y="335" on="0"/>
        <pt x="175" y="335" on="1"/>
        <pt x="370" y="335" on="1"/>
        <pt x="370" y="379" on="1"/>
        <pt x="368" y="393" on="0"/>
        <pt x="349" y="410" on="0"/>
        <pt x="322" y="410" on="1"/>
        <pt x="270" y="410" on="0"/>
        <pt x="166" y="402" on="1"/>
        <pt x="75" y="395" on="1"/>
      </contour>
      <contour>
        <pt x="585" y="415" on="1"/>
        <pt x="545" y="415" on="0"/>
        <pt x="545" y="375" on="1"/>
        <pt x="545" y="330" on="1"/>
        <pt x="705" y="330" on="1"/>
        <pt x="705" y="375" on="1"/>
        <pt x="705" y="415" on="0"/>
        <pt x="665" y="415" on="1"/>
      </contour>
      <contour>
        <pt x="250" y="130" on="1"/>
        <pt x="303" y="130" on="0"/>
        <pt x="370" y="150" on="1"/>
        <pt x="370" y="210" on="1"/>
        <pt x="235" y="210" on="1"/>
        <pt x="220" y="210" on="0"/>
        <pt x="200" y="190" on="0"/>
        <pt x="200" y="175" on="1"/>
        <pt x="200" y="165" on="1"/>
        <pt x="200" y="150" on="0"/>
        <pt x="220" y="130" on="0"/>
        <pt x="235" y="130" on="1"/>
      </contour>
    </TTGlyph>
    <TTGlyph name="afii10017" xMin="-10" yMin="0" xMax="720" yMax="700">
      <contour>
        <pt x="185" y="0" on="1"/>
        <pt x="-10" y="0" on="1"/>
        <pt x="255" y="700" on="1"/>
        <pt x="455" y="700" on="1"/>
        <pt x="720" y="0" on="1"/>
        <pt x="525" y="0" on="1"/>
        <pt x="480" y="125" on="1"/>
        <pt x="230" y="125" on="1"/>
      </contour>
      <contour>
        <pt x="275" y="255" on="1"/>
        <pt x="435" y="255" on="1"/>
        <pt x="355" y="490" on="1"/>
      </contour>
    </TTGlyph>
    <TTGlyph name="afii10018" xMin="60" yMin="0" xMax="680" yMax="700">
      <contour>
        <pt x="240" y="430" on="1"/>
        <pt x="480" y="430" on="1"/>
        <pt x="585" y="430" on="0"/>
        <pt x="680" y="335" on="0"/>
        <pt x="680" y="230" on="1"/>
        <pt x="680" y="200" on="1"/>
        <pt x="680" y="95" on="0"/>
        <pt x="585" y="0" on="0"/>
        <pt x="480" y="0" on="1"/>
        <pt x="60" y="0" on="1"/>
        <pt x="60" y="700" on="1"/>
        <pt x="615" y="700" on="1"/>
        <pt x="615" y="560" on="1"/>
        <pt x="240" y="560" on="1"/>
      </contour>
      <contour>
        <pt x="500" y="230" on="1"/>
        <pt x="500" y="290" on="0"/>
        <pt x="440" y="290" on="1"/>
        <pt x="240" y="290" on="1"/>
        <pt x="240" y="140" on="1"/>
        <pt x="440" y="140" on="1"/>
        <pt x="500" y="140" on="0"/>
        <pt x="500" y="200" on="1"/>
      </contour>
    </TTGlyph>
    <TTGlyph name="afii10019" xMin="60" yMin="0" xMax="680" yMax="700">
      <contour>
        <pt x="60" y="700" on="1"/>
        <pt x="460" y="700" on="1"/>
        <pt x="558" y="700" on="0"/>
        <pt x="650" y="611" on="0"/>
        <pt x="650" y="520" on="1"/>
        <pt x="650" y="460" on="0"/>
        <pt x="598" y="385" on="0"/>
        <pt x="560" y="370" on="1"/>
        <pt x="641" y="348" on="0"/>
        <pt x="670" y="262" on="1"/>
        <pt x="680" y="231" on="0"/>
        <pt x="680" y="190" on="1"/>
        <pt x="680" y="92" on="0"/>
        <pt x="588" y="0" on="0"/>
        <pt x="490" y="0" on="1"/>
        <pt x="60" y="0" on="1"/>
      </contour>
      <contour>
        <pt x="500" y="220" on="1"/>
        <pt x="500" y="280" on="0"/>
        <pt x="440" y="280" on="1"/>
        <pt x="240" y="280" on="1"/>
        <pt x="240" y="140" on="1"/>
        <pt x="440" y="140" on="1"/>
        <pt x="500" y="140" on="0"/>
        <pt x="500" y="200" on="1"/>
      </contour>
      <contour>
        <pt x="470" y="500" on="1"/>
        <pt x="470" y="560" on="0"/>
        <pt x="410" y="560" on="1"/>
        <pt x="240" y="560" on="1"/>
        <pt x="240" y="420" on="1"/>
        <pt x="410" y="420" on="1"/>
        <pt x="470" y="420" on="0"/>
        <pt x="470" y="480" on="1"/>
      </contour>
    </TTGlyph>
    <TTGlyph name="afii10020" xMin="60" yMin="0" xMax="605" yMax="700">
      <contour>
        <pt x="240" y="0" on="1"/>
        <pt x="60" y="0" on="1"/>
        <pt x="60" y="700" on="1"/>
        <pt x="605" y="700" on="1"/>
        <pt x="605" y="560" on="1"/>
        <pt x="240" y="560" on="1"/>
      </contour>
    </TTGlyph>
    <TTGlyph name="afii10021" xMin="10" yMin="-130" xMax="760" yMax="700">
      <contour>
        <pt x="160" y="700" on="1"/>
        <pt x="685" y="700" on="1"/>
        <pt x="685" y="140" on="1"/>
        <pt x="760" y="140" on="1"/>
        <pt x="760" y="-130" on="1"/>
        <pt x="590" y="-130" on="1"/>
        <pt x="580" y="0" on="1"/>
        <pt x="190" y="0" on="1"/>
        <pt x="180" y="-130" on="1"/>
        <pt x="10" y="-130" on="1"/>
        <pt x="10" y="140" on="1"/>
        <pt x="75" y="140" on="1"/>
        <pt x="104" y="173" on="0"/>
        <pt x="133" y="256" on="0"/>
        <pt x="135" y="290" on="1"/>
      </contour>
      <contour>
        <pt x="505" y="140" on="1"/>
        <pt x="505" y="560" on="1"/>
        <pt x="320" y="560" on="1"/>
        <pt x="305" y="310" on="1"/>
        <pt x="302" y="249" on="0"/>
        <pt x="275" y="187" on="1"/>
        <pt x="264" y="161" on="0"/>
        <pt x="250" y="140" on="1"/>
      </contour>
    </TTGlyph>
    <TTGlyph name="afii10022" xMin="60" yMin="0" xMax="615" yMax="700">
      <contour>
        <pt x="615" y="0" on="1"/>
        <pt x="60" y="0" on="1"/>
        <pt x="60" y="700" on="1"/>
        <pt x="615" y="700" on="1"/>
        <pt x="615" y="560" on="1"/>
        <pt x="240" y="560" on="1"/>
        <pt x="240" y="425" on="1"/>
        <pt x="535" y="425" on="1"/>
        <pt x="535" y="285" on="1"/>
        <pt x="240" y="285" on="1"/>
        <pt x="240" y="140" on="1"/>
        <pt x="615" y="140" on="1"/>
      </contour>
    </TTGlyph>
    <TTGlyph name="afii10023" xMin="60" yMin="0" xMax="615" yMax="900">
      <contour>
        <pt x="615" y="0" on="1"/>
        <pt x="60" y="0" on="1"/>
        <pt x="60" y="700" on="1"/>
        <pt x="615" y="700" on="1"/>
        <pt x="615" y="560" on="1"/>
        <pt x="240" y="560" on="1"/>
        <pt x="240" y="425" on="1"/>
        <pt x="535" y="425" on="1"/>
        <pt x="535" y="285" on="1"/>
        <pt x="240" y="285" on="1"/>
        <pt x="240" y="140" on="1"/>
        <pt x="615" y="140" on="1"/>
      </contour>
      <contour>
        <pt x="140" y="900" on="1"/>
        <pt x="310" y="900" on="1"/>
        <pt x="310" y="760" on="1"/>
        <pt x="140" y="760" on="1"/>
      </contour>
      <contour>
        <pt x="370" y="900" on="1"/>
        <pt x="540" y="900" on="1"/>
        <pt x="540" y="760" on="1"/>
        <pt x="370" y="760" on="1"/>
      </contour>
    </TTGlyph>
    <TTGlyph name="afii10024" xMin="0" yMin="0" xMax="1010" yMax="710">
      <contour>
        <pt x="905" y="710" on="1"/>
        <pt x="930" y="710" on="0"/>
        <pt x="995" y="700" on="1"/>
        <pt x="995" y="565" on="1"/>
        <pt x="955" y="565" on="1"/>
        <pt x="940" y="565" on="0"/>
        <pt x="916" y="546" on="0"/>
        <pt x="910" y="535" on="1"/>
        <pt x="815" y="355" on="1"/>
        <pt x="1010" y="0" on="1"/>
        <pt x="820" y="0" on="1"/>
        <pt x="665" y="285" on="1"/>
        <pt x="595" y="285" on="1"/>
        <pt x="595" y="0" on="1"/>
        <pt x="415" y="0" on="1"/>
        <pt x="415" y="285" on="1"/>
        <pt x="345" y="285" on="1"/>
        <pt x="190" y="0" on="1"/>
        <pt x="0" y="0" on="1"/>
        <pt x="195" y="355" on="1"/>
        <pt x="100" y="535" on="1"/>
        <pt x="94" y="546" on="0"/>
        <pt x="70" y="565" on="0"/>
        <pt x="55" y="565" on="1"/>
        <pt x="15" y="565" on="1"/>
        <pt x="15" y="700" on="1"/>
        <pt x="80" y="710" on="0"/>
        <pt x="105" y="710" on="1"/>
        <pt x="158" y="710" on="0"/>
        <pt x="223" y="657" on="0"/>
        <pt x="245" y="615" on="1"/>
        <pt x="345" y="425" on="1"/>
        <pt x="415" y="425" on="1"/>
        <pt x="415" y="700" on="1"/>
        <pt x="595" y="700" on="1"/>
        <pt x="595" y="425" on="1"/>
        <pt x="665" y="425" on="1"/>
        <pt x="765" y="615" on="1"/>
        <pt x="787" y="657" on="0"/>
        <pt x="852" y="710" on="0"/>
      </contour>
    </TTGlyph>
    <TTGlyph name="afii10025" xMin="20" yMin="-10" xMax="610" yMax="700">
      <contour>
        <pt x="20" y="145" on="1"/>
        <pt x="275" y="130" on="0"/>
        <pt x="380" y="130" on="1"/>
        <pt x="403" y="130" on="0"/>
        <pt x="430" y="157" on="0"/>
        <pt x="430" y="180" on="1"/>
        <pt x="430" y="220" on="1"/>
        <pt x="430" y="280" on="0"/>
        <pt x="370" y="280" on="1"/>
        <pt x="130" y="280" on="1"/>
        <pt x="130" y="420" on="1"/>
        <pt x="350" y="420" on="1"/>
        <pt x="410" y="420" on="0"/>
        <pt x="410" y="480" on="1"/>
        <pt x="410" y="500" on="1"/>
        <pt x="410" y="560" on="0"/>
        <pt x="350" y="560" on="1"/>
        <pt x="30" y="560" on="1"/>
        <pt x="30" y="700" on="1"/>
        <pt x="400" y="700" on="1"/>
        <pt x="498" y="700" on="0"/>
        <pt x="590" y="611" on="0"/>
        <pt x="590" y="520" on="1"/>
        <pt x="590" y="460" on="0"/>
        <pt x="535" y="385" on="0"/>
        <pt x="490" y="370" on="1"/>
        <pt x="571" y="348" on="0"/>
        <pt x="600" y="262" on="1"/>
        <pt x="610" y="231" on="0"/>
        <pt x="610" y="190" on="1"/>
        <pt x="610" y="180" on="1"/>
        <pt x="610" y="82" on="0"/>
        <pt x="518" y="-10" on="0"/>
        <pt x="420" y="-10" on="1"/>
        <pt x="253" y="-10" on="0"/>
        <pt x="20" y="10" on="1"/>
      </contour>
    </TTGlyph>
    <TTGlyph name="afii10026" xMin="60" yMin="0" xMax="670" yMax="700">
      <contour>
        <pt x="670" y="0" on="1"/>
        <pt x="490" y="0" on="1"/>
        <pt x="490" y="430" on="1"/>
        <pt x="250" y="0" on="1"/>
        <pt x="60" y="0" on="1"/>
        <pt x="60" y="700" on="1"/>
        <pt x="240" y="700" on="1"/>
        <pt x="240" y="270" on="1"/>
        <pt x="480" y="700" on="1"/>
        <pt x="670" y="700" on="1"/>
      </contour>
    </TTGlyph>
    <TTGlyph name="afii10027" xMin="60" yMin="0" xMax="670" yMax="910">
      <contour>
        <pt x="490" y="0" on="1"/>
        <pt x="490" y="430" on="1"/>
        <pt x="250" y="0" on="1"/>
        <pt x="60" y="0" on="1"/>
        <pt x="60" y="700" on="1"/>
        <pt x="240" y="700" on="1"/>
        <pt x="240" y="270" on="1"/>
        <pt x="480" y="700" on="1"/>
        <pt x="670" y="700" on="1"/>
        <pt x="670" y="0" on="1"/>
      </contour>
      <contour>
        <pt x="310" y="750" on="1"/>
        <pt x="180" y="750" on="0"/>
        <pt x="180" y="880" on="1"/>
        <pt x="180" y="910" on="1"/>
        <pt x="310" y="910" on="1"/>
        <pt x="310" y="885" on="1"/>
        <pt x="310" y="870" on="0"/>
        <pt x="330" y="850" on="0"/>
        <pt x="345" y="850" on="1"/>
        <pt x="375" y="850" on="1"/>
        <pt x="390" y="850" on="0"/>
        <pt x="410" y="870" on="0"/>
        <pt x="410" y="885" on="1"/>
        <pt x="410" y="910" on="1"/>
        <pt x="540" y="910" on="1"/>
        <pt x="540" y="880" on="1"/>
        <pt x="540" y="750" on="0"/>
        <pt x="410" y="750" on="1"/>
      </contour>
    </TTGlyph>
    <TTGlyph name="afii10028" xMin="60" yMin="0" xMax="675" yMax="710">
      <contour>
        <pt x="570" y="710" on="1"/>
        <pt x="595" y="710" on="0"/>
        <pt x="660" y="700" on="1"/>
        <pt x="660" y="565" on="1"/>
        <pt x="620" y="565" on="1"/>
        <pt x="605" y="565" on="0"/>
        <pt x="581" y="546" on="0"/>
        <pt x="575" y="535" on="1"/>
        <pt x="480" y="355" on="1"/>
        <pt x="675" y="0" on="1"/>
        <pt x="485" y="0" on="1"/>
        <pt x="330" y="285" on="1"/>
        <pt x="240" y="285" on="1"/>
        <pt x="240" y="0" on="1"/>
        <pt x="60" y="0" on="1"/>
        <pt x="60" y="700" on="1"/>
        <pt x="240" y="700" on="1"/>
        <pt x="240" y="425" on="1"/>
        <pt x="330" y="425" on="1"/>
        <pt x="430" y="615" on="1"/>
        <pt x="452" y="657" on="0"/>
        <pt x="517" y="710" on="0"/>
      </contour>
    </TTGlyph>
    <TTGlyph name="afii10029" xMin="10" yMin="-10" xMax="685" yMax="700">
      <contour>
        <pt x="265" y="73" on="0"/>
        <pt x="183" y="-10" on="0"/>
        <pt x="63" y="-10" on="0"/>
        <pt x="10" y="0" on="1"/>
        <pt x="10" y="135" on="1"/>
        <pt x="55" y="135" on="1"/>
        <pt x="74" y="135" on="0"/>
        <pt x="99" y="161" on="0"/>
        <pt x="100" y="180" on="1"/>
        <pt x="130" y="700" on="1"/>
        <pt x="685" y="700" on="1"/>
        <pt x="685" y="0" on="1"/>
        <pt x="505" y="0" on="1"/>
        <pt x="505" y="560" on="1"/>
        <pt x="295" y="560" on="1"/>
        <pt x="270" y="145" on="1"/>
      </contour>
    </TTGlyph>
    <TTGlyph name="afii10030" xMin="60" yMin="0" xMax="840" yMax="700">
      <contour>
        <pt x="660" y="390" on="1"/>
        <pt x="520" y="140" on="1"/>
        <pt x="380" y="140" on="1"/>
        <pt x="240" y="390" on="1"/>
        <pt x="240" y="0" on="1"/>
        <pt x="60" y="0" on="1"/>
        <pt x="60" y="700" on="1"/>
        <pt x="250" y="700" on="1"/>
        <pt x="450" y="330" on="1"/>
        <pt x="650" y="700" on="1"/>
        <pt x="840" y="700" on="1"/>
        <pt x="840" y="0" on="1"/>
        <pt x="660" y="0" on="1"/>
      </contour>
    </TTGlyph>
    <TTGlyph name="afii10031" xMin="60" yMin="0" xMax="670" yMax="700">
      <contour>
        <pt x="670" y="0" on="1"/>
        <pt x="490" y="0" on="1"/>
        <pt x="490" y="285" on="1"/>
        <pt x="240" y="285" on="1"/>
        <pt x="240" y="0" on="1"/>
        <pt x="60" y="0" on="1"/>
        <pt x="60" y="700" on="1"/>
        <pt x="240" y="700" on="1"/>
        <pt x="240" y="425" on="1"/>
        <pt x="490" y="425" on="1"/>
        <pt x="490" y="700" on="1"/>
        <pt x="670" y="700" on="1"/>
      </contour>
    </TTGlyph>
    <TTGlyph name="afii10032" xMin="40" yMin="-10" xMax="690" yMax="710">
      <contour>
        <pt x="510" y="510" on="1"/>
        <pt x="510" y="570" on="0"/>
        <pt x="450" y="570" on="1"/>
        <pt x="280" y="570" on="1"/>
        <pt x="220" y="570" on="0"/>
        <pt x="220" y="510" on="1"/>
        <pt x="220" y="190" on="1"/>
        <pt x="220" y="130" on="0"/>
        <pt x="280" y="130" on="1"/>
        <pt x="450" y="130" on="1"/>
        <pt x="510" y="130" on="0"/>
        <pt x="510" y="190" on="1"/>
      </contour>
      <contour>
        <pt x="690" y="190" on="1"/>
        <pt x="690" y="85" on="0"/>
        <pt x="595" y="-10" on="0"/>
        <pt x="490" y="-10" on="1"/>
        <pt x="240" y="-10" on="1"/>
        <pt x="135" y="-10" on="0"/>
        <pt x="40" y="85" on="0"/>
        <pt x="40" y="190" on="1"/>
        <pt x="40" y="510" on="1"/>
        <pt x="40" y="615" on="0"/>
        <pt x="135" y="710" on="0"/>
        <pt x="240" y="710" on="1"/>
        <pt x="490" y="710" on="1"/>
        <pt x="595" y="710" on="0"/>
        <pt x="690" y="615" on="0"/>
        <pt x="690" y="510" on="1"/>
      </contour>
    </TTGlyph>
    <TTGlyph name="afii10033" xMin="60" yMin="0" xMax="670" yMax="700">
      <contour>
        <pt x="670" y="0" on="1"/>
        <pt x="490" y="0" on="1"/>
        <pt x="490" y="560" on="1"/>
        <pt x="240" y="560" on="1"/>
        <pt x="240" y="0" on="1"/>
        <pt x="60" y="0" on="1"/>
        <pt x="60" y="700" on="1"/>
        <pt x="670" y="700" on="1"/>
      </contour>
    </TTGlyph>
    <TTGlyph name="afii10034" xMin="60" yMin="0" xMax="680" yMax="700">
      <contour>
        <pt x="60" y="700" on="1"/>
        <pt x="480" y="700" on="1"/>
        <pt x="585" y="700" on="0"/>
        <pt x="680" y="605" on="0"/>
        <pt x="680" y="500" on="1"/>
        <pt x="680" y="400" on="1"/>
        <pt x="680" y="295" on="0"/>
        <pt x="585" y="200" on="0"/>
        <pt x="480" y="200" on="1"/>
        <pt x="240" y="200" on="1"/>
        <pt x="240" y="0" on="1"/>
        <pt x="60" y="0" on="1"/>
      </contour>
      <contour>
        <pt x="500" y="500" on="1"/>
        <pt x="500" y="560" on="0"/>
        <pt x="440" y="560" on="1"/>
        <pt x="240" y="560" on="1"/>
        <pt x="240" y="340" on="1"/>
        <pt x="440" y="340" on="1"/>
        <pt x="500" y="340" on="0"/>
        <pt x="500" y="400" on="1"/>
      </contour>
    </TTGlyph>
    <TTGlyph name="afii10035" xMin="40" yMin="-10" xMax="600" yMax="700">
      <contour>
        <pt x="600" y="10" on="1"/>
        <pt x="377" y="-10" on="0"/>
        <pt x="230" y="-10" on="1"/>
        <pt x="132" y="-10" on="0"/>
        <pt x="40" y="82" on="0"/>
        <pt x="40" y="180" on="1"/>
        <pt x="40" y="500" on="1"/>
        <pt x="40" y="605" on="0"/>
        <pt x="135" y="700" on="0"/>
        <pt x="240" y="700" on="1"/>
        <pt x="600" y="700" on="1"/>
        <pt x="600" y="560" on="1"/>
        <pt x="280" y="560" on="1"/>
        <pt x="220" y="560" on="0"/>
        <pt x="220" y="500" on="1"/>
        <pt x="220" y="180" on="1"/>
        <pt x="220" y="157" on="0"/>
        <pt x="247" y="130" on="0"/>
        <pt x="289" y="130" on="0"/>
        <pt x="339" y="131" on="0"/>
        <pt x="393" y="133" on="0"/>
        <pt x="448" y="135" on="0"/>
        <pt x="535" y="141" on="0"/>
        <pt x="600" y="145" on="1"/>
      </contour>
    </TTGlyph>
    <TTGlyph name="afii10036" xMin="10" yMin="0" xMax="610" yMax="700">
      <contour>
        <pt x="400" y="0" on="1"/>
        <pt x="220" y="0" on="1"/>
        <pt x="220" y="560" on="1"/>
        <pt x="10" y="560" on="1"/>
        <pt x="10" y="700" on="1"/>
        <pt x="610" y="700" on="1"/>
        <pt x="610" y="560" on="1"/>
        <pt x="400" y="560" on="1"/>
      </contour>
    </TTGlyph>
    <TTGlyph name="afii10037" xMin="-20" yMin="-10" xMax="710" yMax="700">
      <contour>
        <pt x="228" y="-10" on="1"/>
        <pt x="178" y="-10" on="0"/>
        <pt x="125" y="0" on="1"/>
        <pt x="125" y="135" on="1"/>
        <pt x="215" y="135" on="1"/>
        <pt x="244" y="135" on="0"/>
        <pt x="255" y="158" on="1"/>
        <pt x="260" y="168" on="0"/>
        <pt x="260" y="191" on="0"/>
        <pt x="255" y="200" on="1"/>
        <pt x="-20" y="700" on="1"/>
        <pt x="180" y="700" on="1"/>
        <pt x="360" y="345" on="1"/>
        <pt x="510" y="700" on="1"/>
        <pt x="710" y="700" on="1"/>
        <pt x="455" y="150" on="1"/>
        <pt x="420" y="71" on="0"/>
        <pt x="371" y="32" on="1"/>
        <pt x="317" y="-10" on="0"/>
      </contour>
    </TTGlyph>
    <TTGlyph name="afii10038" xMin="30" yMin="-20" xMax="850" yMax="720">
      <contour>
        <pt x="850" y="250" on="1"/>
        <pt x="850" y="145" on="0"/>
        <pt x="755" y="50" on="0"/>
        <pt x="650" y="50" on="1"/>
        <pt x="530" y="50" on="1"/>
        <pt x="530" y="-20" on="1"/>
        <pt x="350" y="-20" on="1"/>
        <pt x="350" y="50" on="1"/>
        <pt x="230" y="50" on="1"/>
        <pt x="125" y="50" on="0"/>
        <pt x="30" y="145" on="0"/>
        <pt x="30" y="250" on="1"/>
        <pt x="30" y="450" on="1"/>
        <pt x="30" y="555" on="0"/>
        <pt x="125" y="650" on="0"/>
        <pt x="230" y="650" on="1"/>
        <pt x="350" y="650" on="1"/>
        <pt x="350" y="720" on="1"/>
        <pt x="530" y="720" on="1"/>
        <pt x="530" y="650" on="1"/>
        <pt x="650" y="650" on="1"/>
        <pt x="755" y="650" on="0"/>
        <pt x="850" y="555" on="0"/>
        <pt x="850" y="450" on="1"/>
      </contour>
      <contour>
        <pt x="670" y="450" on="1"/>
        <pt x="670" y="510" on="0"/>
        <pt x="610" y="510" on="1"/>
        <pt x="520" y="510" on="1"/>
        <pt x="520" y="190" on="1"/>
        <pt x="610" y="190" on="1"/>
        <pt x="670" y="190" on="0"/>
        <pt x="670" y="250" on="1"/>
      </contour>
      <contour>
        <pt x="210" y="250" on="1"/>
        <pt x="210" y="190" on="0"/>
        <pt x="270" y="190" on="1"/>
        <pt x="360" y="190" on="1"/>
        <pt x="360" y="510" on="1"/>
        <pt x="270" y="510" on="1"/>
        <pt x="210" y="510" on="0"/>
        <pt x="210" y="450" on="1"/>
      </contour>
    </TTGlyph>
    <TTGlyph name="afii10039" xMin="-10" yMin="0" xMax="670" yMax="700">
      <contour>
        <pt x="465" y="700" on="1"/>
        <pt x="665" y="700" on="1"/>
        <pt x="440" y="350" on="1"/>
        <pt x="670" y="0" on="1"/>
        <pt x="470" y="0" on="1"/>
        <pt x="330" y="220" on="1"/>
        <pt x="190" y="0" on="1"/>
        <pt x="-10" y="0" on="1"/>
        <pt x="220" y="350" on="1"/>
        <pt x="-5" y="700" on="1"/>
        <pt x="194" y="700" on="1"/>
        <pt x="330" y="480" on="1"/>
      </contour>
    </TTGlyph>
    <TTGlyph name="afii10040" xMin="60" yMin="-130" xMax="745" yMax="700">
      <contour>
        <pt x="60" y="0" on="1"/>
        <pt x="60" y="700" on="1"/>
        <pt x="240" y="700" on="1"/>
        <pt x="240" y="140" on="1"/>
        <pt x="490" y="140" on="1"/>
        <pt x="490" y="700" on="1"/>
        <pt x="670" y="700" on="1"/>
        <pt x="670" y="140" on="1"/>
        <pt x="745" y="140" on="1"/>
        <pt x="745" y="-130" on="1"/>
        <pt x="575" y="-130" on="1"/>
        <pt x="565" y="0" on="1"/>
      </contour>
    </TTGlyph>
    <TTGlyph name="afii10041" xMin="40" yMin="0" xMax="645" yMax="700">
      <contour>
        <pt x="465" y="230" on="1"/>
        <pt x="345" y="220" on="0"/>
        <pt x="132" y="220" on="0"/>
        <pt x="40" y="312" on="0"/>
        <pt x="40" y="410" on="1"/>
        <pt x="40" y="700" on="1"/>
        <pt x="220" y="700" on="1"/>
        <pt x="220" y="410" on="1"/>
        <pt x="220" y="387" on="0"/>
        <pt x="247" y="360" on="0"/>
        <pt x="270" y="360" on="1"/>
        <pt x="352" y="360" on="0"/>
        <pt x="465" y="370" on="1"/>
        <pt x="465" y="700" on="1"/>
        <pt x="645" y="700" on="1"/>
        <pt x="645" y="0" on="1"/>
        <pt x="465" y="0" on="1"/>
      </contour>
    </TTGlyph>
    <TTGlyph name="afii10042" xMin="60" yMin="0" xMax="940" yMax="700">
      <contour>
        <pt x="940" y="0" on="1"/>
        <pt x="60" y="0" on="1"/>
        <pt x="60" y="700" on="1"/>
        <pt x="240" y="700" on="1"/>
        <pt x="240" y="140" on="1"/>
        <pt x="410" y="140" on="1"/>
        <pt x="410" y="700" on="1"/>
        <pt x="590" y="700" on="1"/>
        <pt x="590" y="140" on="1"/>
        <pt x="760" y="140" on="1"/>
        <pt x="760" y="700" on="1"/>
        <pt x="940" y="700" on="1"/>
      </contour>
    </TTGlyph>
    <TTGlyph name="afii10043" xMin="60" yMin="-130" xMax="1015" yMax="700">
      <contour>
        <pt x="60" y="0" on="1"/>
        <pt x="60" y="700" on="1"/>
        <pt x="240" y="700" on="1"/>
        <pt x="240" y="140" on="1"/>
        <pt x="410" y="140" on="1"/>
        <pt x="410" y="700" on="1"/>
        <pt x="590" y="700" on="1"/>
        <pt x="590" y="140" on="1"/>
        <pt x="760" y="140" on="1"/>
        <pt x="760" y="700" on="1"/>
        <pt x="940" y="700" on="1"/>
        <pt x="940" y="140" on="1"/>
        <pt x="1015" y="140" on="1"/>
        <pt x="1015" y="-130" on="1"/>
        <pt x="845" y="-130" on="1"/>
        <pt x="835" y="0" on="1"/>
      </contour>
    </TTGlyph>
    <TTGlyph name="afii10044" xMin="10" yMin="0" xMax="770" yMax="700">
      <contour>
        <pt x="330" y="700" on="1"/>
        <pt x="330" y="460" on="1"/>
        <pt x="570" y="460" on="1"/>
        <pt x="675" y="460" on="0"/>
        <pt x="770" y="365" on="0"/>
        <pt x="770" y="260" on="1"/>
        <pt x="770" y="200" on="1"/>
        <pt x="770" y="95" on="0"/>
        <pt x="675" y="0" on="0"/>
        <pt x="570" y="0" on="1"/>
        <pt x="150" y="0" on="1"/>
        <pt x="150" y="560" on="1"/>
        <pt x="10" y="560" on="1"/>
        <pt x="10" y="700" on="1"/>
      </contour>
      <contour>
        <pt x="590" y="260" on="1"/>
        <pt x="590" y="320" on="0"/>
        <pt x="530" y="320" on="1"/>
        <pt x="330" y="320" on="1"/>
        <pt x="330" y="140" on="1"/>
        <pt x="530" y="140" on="1"/>
        <pt x="590" y="140" on="0"/>
        <pt x="590" y="200" on="1"/>
      </contour>
    </TTGlyph>
    <TTGlyph name="afii10045" xMin="60" yMin="0" xMax="930" yMax="700">
      <contour>
        <pt x="240" y="460" on="1"/>
        <pt x="470" y="460" on="1"/>
        <pt x="575" y="460" on="0"/>
        <pt x="670" y="365" on="0"/>
        <pt x="670" y="260" on="1"/>
        <pt x="670" y="200" on="1"/>
        <pt x="670" y="95" on="0"/>
        <pt x="575" y="0" on="0"/>
        <pt x="470" y="0" on="1"/>
        <pt x="60" y="0" on="1"/>
        <pt x="60" y="700" on="1"/>
        <pt x="240" y="700" on="1"/>
      </contour>
      <contour>
        <pt x="930" y="0" on="1"/>
        <pt x="750" y="0" on="1"/>
        <pt x="750" y="700" on="1"/>
        <pt x="930" y="700" on="1"/>
      </contour>
      <contour>
        <pt x="490" y="260" on="1"/>
        <pt x="490" y="320" on="0"/>
        <pt x="430" y="320" on="1"/>
        <pt x="240" y="320" on="1"/>
        <pt x="240" y="140" on="1"/>
        <pt x="430" y="140" on="1"/>
        <pt x="490" y="140" on="0"/>
        <pt x="490" y="200" on="1"/>
      </contour>
    </TTGlyph>
    <TTGlyph name="afii10046" xMin="60" yMin="0" xMax="680" yMax="700">
      <contour>
        <pt x="240" y="460" on="1"/>
        <pt x="480" y="460" on="1"/>
        <pt x="585" y="460" on="0"/>
        <pt x="680" y="365" on="0"/>
        <pt x="680" y="260" on="1"/>
        <pt x="680" y="200" on="1"/>
        <pt x="680" y="95" on="0"/>
        <pt x="585" y="0" on="0"/>
        <pt x="480" y="0" on="1"/>
        <pt x="60" y="0" on="1"/>
        <pt x="60" y="700" on="1"/>
        <pt x="240" y="700" on="1"/>
      </contour>
      <contour>
        <pt x="500" y="260" on="1"/>
        <pt x="500" y="320" on="0"/>
        <pt x="440" y="320" on="1"/>
        <pt x="240" y="320" on="1"/>
        <pt x="240" y="140" on="1"/>
        <pt x="440" y="140" on="1"/>
        <pt x="500" y="140" on="0"/>
        <pt x="500" y="200" on="1"/>
      </contour>
    </TTGlyph>
    <TTGlyph name="afii10047" xMin="20" yMin="-10" xMax="580" yMax="700">
      <contour>
        <pt x="20" y="145" on="1"/>
        <pt x="264" y="130" on="0"/>
        <pt x="350" y="130" on="1"/>
        <pt x="373" y="130" on="0"/>
        <pt x="400" y="157" on="0"/>
        <pt x="400" y="180" on="1"/>
        <pt x="400" y="275" on="1"/>
        <pt x="134" y="275" on="1"/>
        <pt x="134" y="415" on="1"/>
        <pt x="400" y="415" on="1"/>
        <pt x="400" y="500" on="1"/>
        <pt x="400" y="560" on="0"/>
        <pt x="340" y="560" on="1"/>
        <pt x="30" y="560" on="1"/>
        <pt x="30" y="700" on="1"/>
        <pt x="380" y="700" on="1"/>
        <pt x="485" y="700" on="0"/>
        <pt x="580" y="605" on="0"/>
        <pt x="580" y="500" on="1"/>
        <pt x="580" y="180" on="1"/>
        <pt x="580" y="82" on="0"/>
        <pt x="488" y="-10" on="0"/>
        <pt x="390" y="-10" on="1"/>
        <pt x="240" y="-10" on="0"/>
        <pt x="20" y="10" on="1"/>
      </contour>
    </TTGlyph>
    <TTGlyph name="afii10048" xMin="60" yMin="-10" xMax="930" yMax="710">
      <contour>
        <pt x="930" y="190" on="1"/>
        <pt x="930" y="85" on="0"/>
        <pt x="835" y="-10" on="0"/>
        <pt x="730" y="-10" on="1"/>
        <pt x="530" y="-10" on="1"/>
        <pt x="425" y="-10" on="0"/>
        <pt x="330" y="85" on="0"/>
        <pt x="330" y="190" on="1"/>
        <pt x="330" y="285" on="1"/>
        <pt x="240" y="285" on="1"/>
        <pt x="240" y="0" on="1"/>
        <pt x="60" y="0" on="1"/>
        <pt x="60" y="700" on="1"/>
        <pt x="240" y="700" on="1"/>
        <pt x="240" y="425" on="1"/>
        <pt x="330" y="425" on="1"/>
        <pt x="330" y="510" on="1"/>
        <pt x="330" y="615" on="0"/>
        <pt x="425" y="710" on="0"/>
        <pt x="530" y="710" on="1"/>
        <pt x="730" y="710" on="1"/>
        <pt x="835" y="710" on="0"/>
        <pt x="930" y="615" on="0"/>
        <pt x="930" y="510" on="1"/>
      </contour>
      <contour>
        <pt x="750" y="510" on="1"/>
        <pt x="750" y="570" on="0"/>
        <pt x="690" y="570" on="1"/>
        <pt x="570" y="570" on="1"/>
        <pt x="510" y="570" on="0"/>
        <pt x="510" y="510" on="1"/>
        <pt x="510" y="190" on="1"/>
        <pt x="510" y="130" on="0"/>
        <pt x="570" y="130" on="1"/>
        <pt x="690" y="130" on="1"/>
        <pt x="750" y="130" on="0"/>
        <pt x="750" y="190" on="1"/>
      </contour>
    </TTGlyph>
    <TTGlyph name="afii10049" xMin="30" yMin="0" xMax="660" yMax="700">
      <contour>
        <pt x="660" y="0" on="1"/>
        <pt x="480" y="0" on="1"/>
        <pt x="480" y="230" on="1"/>
        <pt x="345" y="230" on="1"/>
        <pt x="220" y="0" on="1"/>
        <pt x="30" y="0" on="1"/>
        <pt x="160" y="240" on="1"/>
        <pt x="96" y="255" on="0"/>
        <pt x="40" y="347" on="0"/>
        <pt x="40" y="430" on="1"/>
        <pt x="40" y="500" on="1"/>
        <pt x="40" y="605" on="0"/>
        <pt x="135" y="700" on="0"/>
        <pt x="240" y="700" on="1"/>
        <pt x="660" y="700" on="1"/>
      </contour>
      <contour>
        <pt x="220" y="430" on="1"/>
        <pt x="220" y="370" on="0"/>
        <pt x="280" y="370" on="1"/>
        <pt x="480" y="370" on="1"/>
        <pt x="480" y="560" on="1"/>
        <pt x="280" y="560" on="1"/>
        <pt x="220" y="560" on="0"/>
        <pt x="220" y="500" on="1"/>
      </contour>
    </TTGlyph>
    <TTGlyph name="afii10050" xMin="60" yMin="0" xMax="605" yMax="800">
      <contour>
        <pt x="240" y="560" on="1"/>
        <pt x="240" y="0" on="1"/>
        <pt x="60" y="0" on="1"/>
        <pt x="60" y="700" on="1"/>
        <pt x="435" y="700" on="1"/>
        <pt x="445" y="800" on="1"/>
        <pt x="605" y="800" on="1"/>
        <pt x="605" y="560" on="1"/>
      </contour>
    </TTGlyph>
    <TTGlyph name="afii10051" xMin="10" yMin="-10" xMax="760" yMax="700">
      <contour>
        <pt x="760" y="72" on="0"/>
        <pt x="678" y="-10" on="0"/>
        <pt x="530" y="-10" on="0"/>
        <pt x="450" y="0" on="1"/>
        <pt x="450" y="135" on="1"/>
        <pt x="545" y="135" on="1"/>
        <pt x="560" y="135" on="0"/>
        <pt x="580" y="155" on="0"/>
        <pt x="580" y="170" on="1"/>
        <pt x="580" y="270" on="1"/>
        <pt x="580" y="293" on="0"/>
        <pt x="553" y="320" on="0"/>
        <pt x="526" y="320" on="1"/>
        <pt x="475" y="320" on="0"/>
        <pt x="365" y="312" on="0"/>
        <pt x="330" y="310" on="1"/>
        <pt x="330" y="0" on="1"/>
        <pt x="150" y="0" on="1"/>
        <pt x="150" y="560" on="1"/>
        <pt x="10" y="560" on="1"/>
        <pt x="10" y="700" on="1"/>
        <pt x="510" y="700" on="1"/>
        <pt x="510" y="560" on="1"/>
        <pt x="330" y="560" on="1"/>
        <pt x="330" y="450" on="1"/>
        <pt x="369" y="452" on="0"/>
        <pt x="406" y="454" on="1"/>
        <pt x="489" y="460" on="0"/>
        <pt x="579" y="460" on="1"/>
        <pt x="760" y="460" on="0"/>
        <pt x="760" y="270" on="1"/>
        <pt x="760" y="140" on="1"/>
      </contour>
    </TTGlyph>
    <TTGlyph name="afii10052" xMin="60" yMin="0" xMax="605" yMax="900">
      <contour>
        <pt x="240" y="0" on="1"/>
        <pt x="60" y="0" on="1"/>
        <pt x="60" y="700" on="1"/>
        <pt x="605" y="700" on="1"/>
        <pt x="605" y="560" on="1"/>
        <pt x="240" y="560" on="1"/>
      </contour>
      <contour>
        <pt x="260" y="730" on="1"/>
        <pt x="320" y="900" on="1"/>
        <pt x="500" y="900" on="1"/>
        <pt x="390" y="730" on="1"/>
      </contour>
    </TTGlyph>
    <TTGlyph name="afii10053" xMin="40" yMin="-10" xMax="600" yMax="700">
      <contour>
        <pt x="600" y="10" on="1"/>
        <pt x="377" y="-10" on="0"/>
        <pt x="230" y="-10" on="1"/>
        <pt x="132" y="-10" on="0"/>
        <pt x="40" y="82" on="0"/>
        <pt x="40" y="180" on="1"/>
        <pt x="40" y="500" on="1"/>
        <pt x="40" y="605" on="0"/>
        <pt x="135" y="700" on="0"/>
        <pt x="240" y="700" on="1"/>
        <pt x="600" y="700" on="1"/>
        <pt x="600" y="560" on="1"/>
        <pt x="280" y="560" on="1"/>
        <pt x="220" y="560" on="0"/>
        <pt x="220" y="500" on="1"/>
        <pt x="220" y="415" on="1"/>
        <pt x="486" y="415" on="1"/>
        <pt x="486" y="275" on="1"/>
        <pt x="220" y="275" on="1"/>
        <pt x="220" y="180" on="1"/>
        <pt x="220" y="157" on="0"/>
        <pt x="247" y="130" on="0"/>
        <pt x="289" y="130" on="0"/>
        <pt x="339" y="131" on="0"/>
        <pt x="393" y="133" on="0"/>
        <pt x="448" y="135" on="0"/>
        <pt x="535" y="141" on="0"/>
        <pt x="600" y="145" on="1"/>
      </contour>
    </TTGlyph>
    <TTGlyph name="afii10054" xMin="30" yMin="-10" xMax="640" yMax="700">
      <contour>
        <pt x="39" y="145" on="1"/>
        <pt x="313" y="130" on="0"/>
        <pt x="410" y="130" on="1"/>
        <pt x="433" y="130" on="0"/>
        <pt x="460" y="157" on="0"/>
        <pt x="460" y="180" on="1"/>
        <pt x="460" y="270" on="1"/>
        <pt x="230" y="270" on="1"/>
        <pt x="125" y="270" on="0"/>
        <pt x="30" y="365" on="0"/>
        <pt x="30" y="470" on="1"/>
        <pt x="30" y="500" on="1"/>
        <pt x="30" y="605" on="0"/>
        <pt x="125" y="700" on="0"/>
        <pt x="230" y="700" on="1"/>
        <pt x="581" y="700" on="1"/>
        <pt x="581" y="560" on="1"/>
        <pt x="270" y="560" on="1"/>
        <pt x="210" y="560" on="0"/>
        <pt x="210" y="500" on="1"/>
        <pt x="210" y="480" on="1"/>
        <pt x="210" y="420" on="0"/>
        <pt x="270" y="420" on="1"/>
        <pt x="450" y="420" on="1"/>
        <pt x="548" y="420" on="0"/>
        <pt x="640" y="328" on="0"/>
        <pt x="640" y="230" on="1"/>
        <pt x="640" y="180" on="1"/>
        <pt x="640" y="82" on="0"/>
        <pt x="548" y="-10" on="0"/>
        <pt x="450" y="-10" on="1"/>
        <pt x="399" y="-10" on="0"/>
        <pt x="342" y="-8" on="1"/>
        <pt x="250" y="-4" on="1"/>
        <pt x="148" y="1" on="0"/>
        <pt x="39" y="10" on="1"/>
      </contour>
    </TTGlyph>
    <TTGlyph name="afii10055" xMin="30" yMin="0" xMax="390" yMax="700">
      <contour>
        <pt x="390" y="0" on="1"/>
        <pt x="30" y="0" on="1"/>
        <pt x="30" y="140" on="1"/>
        <pt x="120" y="140" on="1"/>
        <pt x="120" y="560" on="1"/>
        <pt x="30" y="560" on="1"/>
        <pt x="30" y="700" on="1"/>
        <pt x="390" y="700" on="1"/>
        <pt x="390" y="560" on="1"/>
        <pt x="300" y="560" on="1"/>
        <pt x="300" y="140" on="1"/>
        <pt x="390" y="140" on="1"/>
      </contour>
    </TTGlyph>
    <TTGlyph name="afii10056" xMin="10" yMin="0" xMax="410" yMax="890">
      <contour>
        <pt x="390" y="0" on="1"/>
        <pt x="30" y="0" on="1"/>
        <pt x="30" y="140" on="1"/>
        <pt x="120" y="140" on="1"/>
        <pt x="120" y="560" on="1"/>
        <pt x="30" y="560" on="1"/>
        <pt x="30" y="700" on="1"/>
        <pt x="390" y="700" on="1"/>
        <pt x="390" y="560" on="1"/>
        <pt x="300" y="560" on="1"/>
        <pt x="300" y="140" on="1"/>
        <pt x="390" y="140" on="1"/>
      </contour>
      <contour>
        <pt x="10" y="890" on="1"/>
        <pt x="180" y="890" on="1"/>
        <pt x="180" y="750" on="1"/>
        <pt x="10" y="750" on="1"/>
      </contour>
      <contour>
        <pt x="240" y="890" on="1"/>
        <pt x="410" y="890" on="1"/>
        <pt x="410" y="750" on="1"/>
        <pt x="240" y="750" on="1"/>
      </contour>
    </TTGlyph>
    <TTGlyph name="afii10057" xMin="10" yMin="-10" xMax="400" yMax="700">
      <contour>
        <pt x="400" y="82" on="0"/>
        <pt x="308" y="-10" on="0"/>
        <pt x="117" y="-10" on="0"/>
        <pt x="10" y="0" on="1"/>
        <pt x="10" y="135" on="1"/>
        <pt x="88" y="130" on="0"/>
        <pt x="170" y="130" on="1"/>
        <pt x="193" y="130" on="0"/>
        <pt x="220" y="157" on="0"/>
        <pt x="220" y="180" on="1"/>
        <pt x="220" y="560" on="1"/>
        <pt x="90" y="560" on="1"/>
        <pt x="90" y="700" on="1"/>
        <pt x="400" y="700" on="1"/>
        <pt x="400" y="180" on="1"/>
      </contour>
    </TTGlyph>
    <TTGlyph name="afii10058" xMin="10" yMin="-10" xMax="1065" yMax="700">
      <contour>
        <pt x="265" y="73" on="0"/>
        <pt x="183" y="-10" on="0"/>
        <pt x="63" y="-10" on="0"/>
        <pt x="10" y="0" on="1"/>
        <pt x="10" y="135" on="1"/>
        <pt x="55" y="135" on="1"/>
        <pt x="74" y="135" on="0"/>
        <pt x="99" y="161" on="0"/>
        <pt x="100" y="180" on="1"/>
        <pt x="130" y="700" on="1"/>
        <pt x="650" y="700" on="1"/>
        <pt x="650" y="460" on="1"/>
        <pt x="865" y="460" on="1"/>
        <pt x="970" y="460" on="0"/>
        <pt x="1065" y="365" on="0"/>
        <pt x="1065" y="260" on="1"/>
        <pt x="1065" y="200" on="1"/>
        <pt x="1065" y="95" on="0"/>
        <pt x="970" y="0" on="0"/>
        <pt x="865" y="0" on="1"/>
        <pt x="480" y="0" on="1"/>
        <pt x="480" y="560" on="1"/>
        <pt x="295" y="560" on="1"/>
        <pt x="270" y="145" on="1"/>
      </contour>
      <contour>
        <pt x="885" y="260" on="1"/>
        <pt x="885" y="320" on="0"/>
        <pt x="825" y="320" on="1"/>
        <pt x="650" y="320" on="1"/>
        <pt x="650" y="140" on="1"/>
        <pt x="825" y="140" on="1"/>
        <pt x="885" y="140" on="0"/>
        <pt x="885" y="200" on="1"/>
      </contour>
    </TTGlyph>
    <TTGlyph name="afii10059" xMin="60" yMin="0" xMax="1050" yMax="700">
      <contour>
        <pt x="635" y="440" on="1"/>
        <pt x="850" y="440" on="1"/>
        <pt x="955" y="440" on="0"/>
        <pt x="1050" y="345" on="0"/>
        <pt x="1050" y="240" on="1"/>
        <pt x="1050" y="200" on="1"/>
        <pt x="1050" y="95" on="0"/>
        <pt x="955" y="0" on="0"/>
        <pt x="850" y="0" on="1"/>
        <pt x="465" y="0" on="1"/>
        <pt x="465" y="300" on="1"/>
        <pt x="240" y="300" on="1"/>
        <pt x="240" y="0" on="1"/>
        <pt x="60" y="0" on="1"/>
        <pt x="60" y="700" on="1"/>
        <pt x="240" y="700" on="1"/>
        <pt x="240" y="440" on="1"/>
        <pt x="465" y="440" on="1"/>
        <pt x="465" y="700" on="1"/>
        <pt x="635" y="700" on="1"/>
      </contour>
      <contour>
        <pt x="870" y="240" on="1"/>
        <pt x="870" y="300" on="0"/>
        <pt x="810" y="300" on="1"/>
        <pt x="635" y="300" on="1"/>
        <pt x="635" y="140" on="1"/>
        <pt x="810" y="140" on="1"/>
        <pt x="870" y="140" on="0"/>
        <pt x="870" y="200" on="1"/>
      </contour>
    </TTGlyph>
    <TTGlyph name="afii10060" xMin="0" yMin="0" xMax="750" yMax="700">
      <contour>
        <pt x="750" y="0" on="1"/>
        <pt x="570" y="0" on="1"/>
        <pt x="570" y="270" on="1"/>
        <pt x="570" y="293" on="0"/>
        <pt x="543" y="320" on="0"/>
        <pt x="516" y="320" on="1"/>
        <pt x="465" y="320" on="0"/>
        <pt x="355" y="312" on="0"/>
        <pt x="320" y="310" on="1"/>
        <pt x="320" y="0" on="1"/>
        <pt x="140" y="0" on="1"/>
        <pt x="140" y="560" on="1"/>
        <pt x="0" y="560" on="1"/>
        <pt x="0" y="700" on="1"/>
        <pt x="500" y="700" on="1"/>
        <pt x="500" y="560" on="1"/>
        <pt x="320" y="560" on="1"/>
        <pt x="320" y="450" on="1"/>
        <pt x="359" y="452" on="0"/>
        <pt x="396" y="454" on="1"/>
        <pt x="479" y="460" on="0"/>
        <pt x="568" y="460" on="1"/>
        <pt x="750" y="460" on="0"/>
        <pt x="750" y="270" on="1"/>
      </contour>
    </TTGlyph>
    <TTGlyph name="afii10061" xMin="60" yMin="0" xMax="675" yMax="880">
      <contour>
        <pt x="280" y="710" on="1"/>
        <pt x="340" y="880" on="1"/>
        <pt x="520" y="880" on="1"/>
        <pt x="410" y="710" on="1"/>
      </contour>
      <contour>
        <pt x="570" y="710" on="1"/>
        <pt x="595" y="710" on="0"/>
        <pt x="660" y="700" on="1"/>
        <pt x="660" y="565" on="1"/>
        <pt x="620" y="565" on="1"/>
        <pt x="605" y="565" on="0"/>
        <pt x="581" y="546" on="0"/>
        <pt x="575" y="535" on="1"/>
        <pt x="480" y="355" on="1"/>
        <pt x="675" y="0" on="1"/>
        <pt x="485" y="0" on="1"/>
        <pt x="330" y="285" on="1"/>
        <pt x="240" y="285" on="1"/>
        <pt x="240" y="0" on="1"/>
        <pt x="60" y="0" on="1"/>
        <pt x="60" y="700" on="1"/>
        <pt x="240" y="700" on="1"/>
        <pt x="240" y="425" on="1"/>
        <pt x="330" y="425" on="1"/>
        <pt x="430" y="615" on="1"/>
        <pt x="452" y="657" on="0"/>
        <pt x="517" y="710" on="0"/>
      </contour>
    </TTGlyph>
    <TTGlyph name="afii10062" xMin="-20" yMin="-10" xMax="710" yMax="890">
      <contour>
        <pt x="228" y="-10" on="1"/>
        <pt x="178" y="-10" on="0"/>
        <pt x="125" y="0" on="1"/>
        <pt x="125" y="135" on="1"/>
        <pt x="215" y="135" on="1"/>
        <pt x="244" y="135" on="0"/>
        <pt x="255" y="158" on="1"/>
        <pt x="260" y="168" on="0"/>
        <pt x="260" y="191" on="0"/>
        <pt x="255" y="200" on="1"/>
        <pt x="-20" y="700" on="1"/>
        <pt x="180" y="700" on="1"/>
        <pt x="360" y="345" on="1"/>
        <pt x="510" y="700" on="1"/>
        <pt x="710" y="700" on="1"/>
        <pt x="455" y="150" on="1"/>
        <pt x="420" y="71" on="0"/>
        <pt x="371" y="32" on="1"/>
        <pt x="317" y="-10" on="0"/>
      </contour>
      <contour>
        <pt x="300" y="730" on="1"/>
        <pt x="170" y="730" on="0"/>
        <pt x="170" y="860" on="1"/>
        <pt x="170" y="890" on="1"/>
        <pt x="300" y="890" on="1"/>
        <pt x="300" y="865" on="1"/>
        <pt x="300" y="850" on="0"/>
        <pt x="320" y="830" on="0"/>
        <pt x="335" y="830" on="1"/>
        <pt x="365" y="830" on="1"/>
        <pt x="380" y="830" on="0"/>
        <pt x="400" y="850" on="0"/>
        <pt x="400" y="865" on="1"/>
        <pt x="400" y="890" on="1"/>
        <pt x="530" y="890" on="1"/>
        <pt x="530" y="860" on="1"/>
        <pt x="530" y="730" on="0"/>
        <pt x="400" y="730" on="1"/>
      </contour>
    </TTGlyph>
    <TTGlyph name="afii10065" xMin="25" yMin="-10" xMax="555" yMax="540">
      <contour>
        <pt x="260" y="130" on="1"/>
        <pt x="313" y="130" on="0"/>
        <pt x="380" y="150" on="1"/>
        <pt x="380" y="210" on="1"/>
        <pt x="235" y="210" on="1"/>
        <pt x="220" y="210" on="0"/>
        <pt x="200" y="190" on="0"/>
        <pt x="200" y="175" on="1"/>
        <pt x="200" y="165" on="1"/>
        <pt x="200" y="150" on="0"/>
        <pt x="220" y="130" on="0"/>
        <pt x="235" y="130" on="1"/>
      </contour>
      <contour>
        <pt x="75" y="520" on="1"/>
        <pt x="258" y="540" on="0"/>
        <pt x="405" y="540" on="1"/>
        <pt x="473" y="540" on="0"/>
        <pt x="555" y="458" on="0"/>
        <pt x="555" y="390" on="1"/>
        <pt x="555" y="0" on="1"/>
        <pt x="400" y="0" on="1"/>
        <pt x="390" y="50" on="1"/>
        <pt x="343" y="19" on="0"/>
        <pt x="244" y="-10" on="0"/>
        <pt x="210" y="-10" on="1"/>
        <pt x="175" y="-10" on="1"/>
        <pt x="107" y="-10" on="0"/>
        <pt x="25" y="72" on="0"/>
        <pt x="25" y="140" on="1"/>
        <pt x="25" y="185" on="1"/>
        <pt x="25" y="253" on="0"/>
        <pt x="107" y="335" on="0"/>
        <pt x="175" y="335" on="1"/>
        <pt x="380" y="335" on="1"/>
        <pt x="380" y="375" on="1"/>
        <pt x="380" y="390" on="0"/>
        <pt x="360" y="410" on="0"/>
        <pt x="345" y="410" on="1"/>
        <pt x="280" y="410" on="0"/>
        <pt x="123" y="398" on="0"/>
        <pt x="75" y="395" on="1"/>
      </contour>
    </TTGlyph>
    <TTGlyph name="afii10066" xMin="40" yMin="-10" xMax="580" yMax="725">
      <contour>
        <pt x="215" y="440" on="1"/>
        <pt x="312" y="460" on="0"/>
        <pt x="385" y="460" on="1"/>
        <pt x="430" y="460" on="1"/>
        <pt x="498" y="460" on="0"/>
        <pt x="580" y="378" on="0"/>
        <pt x="580" y="310" on="1"/>
        <pt x="580" y="150" on="1"/>
        <pt x="580" y="75" on="0"/>
        <pt x="495" y="-10" on="0"/>
        <pt x="420" y="-10" on="1"/>
        <pt x="200" y="-10" on="1"/>
        <pt x="125" y="-10" on="0"/>
        <pt x="40" y="75" on="0"/>
        <pt x="40" y="150" on="1"/>
        <pt x="40" y="505" on="1"/>
        <pt x="40" y="577" on="0"/>
        <pt x="137" y="675" on="0"/>
        <pt x="220" y="685" on="1"/>
        <pt x="560" y="725" on="1"/>
        <pt x="575" y="585" on="1"/>
        <pt x="265" y="550" on="1"/>
        <pt x="215" y="544" on="0"/>
        <pt x="215" y="500" on="1"/>
      </contour>
      <contour>
        <pt x="365" y="125" on="1"/>
        <pt x="405" y="125" on="0"/>
        <pt x="405" y="165" on="1"/>
        <pt x="405" y="290" on="1"/>
        <pt x="405" y="305" on="0"/>
        <pt x="385" y="325" on="0"/>
        <pt x="370" y="325" on="1"/>
        <pt x="335" y="325" on="1"/>
        <pt x="296" y="325" on="0"/>
        <pt x="234" y="317" on="0"/>
        <pt x="215" y="315" on="1"/>
        <pt x="215" y="165" on="1"/>
        <pt x="215" y="125" on="0"/>
        <pt x="255" y="125" on="1"/>
      </contour>
    </TTGlyph>
    <TTGlyph name="afii10067" xMin="50" yMin="0" xMax="580" yMax="530">
      <contour>
        <pt x="430" y="0" on="1"/>
        <pt x="50" y="0" on="1"/>
        <pt x="50" y="530" on="1"/>
        <pt x="400" y="530" on="1"/>
        <pt x="467" y="530" on="0"/>
        <pt x="550" y="451" on="0"/>
        <pt x="550" y="353" on="0"/>
        <pt x="508" y="291" on="0"/>
        <pt x="470" y="280" on="1"/>
        <pt x="515" y="272" on="0"/>
        <pt x="580" y="200" on="0"/>
        <pt x="580" y="80" on="0"/>
        <pt x="497" y="0" on="0"/>
      </contour>
      <contour>
        <pt x="405" y="170" on="1"/>
        <pt x="405" y="185" on="0"/>
        <pt x="385" y="205" on="0"/>
        <pt x="370" y="205" on="1"/>
        <pt x="225" y="205" on="1"/>
        <pt x="225" y="120" on="1"/>
        <pt x="370" y="120" on="1"/>
        <pt x="385" y="120" on="0"/>
        <pt x="405" y="140" on="0"/>
        <pt x="405" y="155" on="1"/>
      </contour>
      <contour>
        <pt x="375" y="375" on="1"/>
        <pt x="375" y="390" on="0"/>
        <pt x="355" y="410" on="0"/>
        <pt x="340" y="410" on="1"/>
        <pt x="225" y="410" on="1"/>
        <pt x="225" y="320" on="1"/>
        <pt x="340" y="320" on="1"/>
        <pt x="355" y="320" on="0"/>
        <pt x="375" y="340" on="0"/>
        <pt x="375" y="355" on="1"/>
      </contour>
    </TTGlyph>
    <TTGlyph name="afii10068" xMin="50" yMin="0" xMax="480" yMax="530">
      <contour>
        <pt x="480" y="530" on="1"/>
        <pt x="480" y="395" on="1"/>
        <pt x="225" y="395" on="1"/>
        <pt x="225" y="0" on="1"/>
        <pt x="50" y="0" on="1"/>
        <pt x="50" y="530" on="1"/>
      </contour>
    </TTGlyph>
    <TTGlyph name="afii10069" xMin="10" yMin="-120" xMax="670" yMax="530">
      <contour>
        <pt x="285" y="250" on="1"/>
        <pt x="280" y="180" on="0"/>
        <pt x="245" y="135" on="1"/>
        <pt x="420" y="135" on="1"/>
        <pt x="420" y="395" on="1"/>
        <pt x="295" y="395" on="1"/>
      </contour>
      <contour>
        <pt x="595" y="530" on="1"/>
        <pt x="595" y="135" on="1"/>
        <pt x="670" y="135" on="1"/>
        <pt x="670" y="-120" on="1"/>
        <pt x="504" y="-120" on="1"/>
        <pt x="494" y="0" on="1"/>
        <pt x="186" y="0" on="1"/>
        <pt x="176" y="-120" on="1"/>
        <pt x="10" y="-120" on="1"/>
        <pt x="10" y="135" on="1"/>
        <pt x="75" y="135" on="1"/>
        <pt x="115" y="182" on="0"/>
        <pt x="120" y="240" on="1"/>
        <pt x="140" y="530" on="1"/>
      </contour>
    </TTGlyph>
    <TTGlyph name="afii10070" xMin="40" yMin="-10" xMax="560" yMax="540">
      <contour>
        <pt x="255" y="415" on="1"/>
        <pt x="215" y="415" on="0"/>
        <pt x="215" y="375" on="1"/>
        <pt x="215" y="320" on="1"/>
        <pt x="385" y="320" on="1"/>
        <pt x="385" y="375" on="1"/>
        <pt x="385" y="415" on="0"/>
        <pt x="345" y="415" on="1"/>
      </contour>
      <contour>
        <pt x="540" y="10" on="1"/>
        <pt x="347" y="-10" on="0"/>
        <pt x="190" y="-10" on="1"/>
        <pt x="122" y="-10" on="0"/>
        <pt x="40" y="72" on="0"/>
        <pt x="40" y="140" on="1"/>
        <pt x="40" y="380" on="1"/>
        <pt x="40" y="455" on="0"/>
        <pt x="125" y="540" on="0"/>
        <pt x="200" y="540" on="1"/>
        <pt x="400" y="540" on="1"/>
        <pt x="475" y="540" on="0"/>
        <pt x="560" y="455" on="0"/>
        <pt x="560" y="380" on="1"/>
        <pt x="560" y="195" on="1"/>
        <pt x="215" y="195" on="1"/>
        <pt x="215" y="155" on="1"/>
        <pt x="215" y="140" on="0"/>
        <pt x="235" y="120" on="0"/>
        <pt x="250" y="120" on="1"/>
        <pt x="349" y="120" on="0"/>
        <pt x="540" y="135" on="1"/>
      </contour>
    </TTGlyph>
    <TTGlyph name="afii10071" xMin="40" yMin="-10" xMax="560" yMax="730">
      <contour>
        <pt x="100" y="730" on="1"/>
        <pt x="270" y="730" on="1"/>
        <pt x="270" y="590" on="1"/>
        <pt x="100" y="590" on="1"/>
      </contour>
      <contour>
        <pt x="330" y="730" on="1"/>
        <pt x="500" y="730" on="1"/>
        <pt x="500" y="590" on="1"/>
        <pt x="330" y="590" on="1"/>
      </contour>
      <contour>
        <pt x="255" y="415" on="1"/>
        <pt x="215" y="415" on="0"/>
        <pt x="215" y="375" on="1"/>
        <pt x="215" y="320" on="1"/>
        <pt x="385" y="320" on="1"/>
        <pt x="385" y="375" on="1"/>
        <pt x="385" y="415" on="0"/>
        <pt x="345" y="415" on="1"/>
      </contour>
      <contour>
        <pt x="540" y="10" on="1"/>
        <pt x="347" y="-10" on="0"/>
        <pt x="190" y="-10" on="1"/>
        <pt x="122" y="-10" on="0"/>
        <pt x="40" y="72" on="0"/>
        <pt x="40" y="140" on="1"/>
        <pt x="40" y="380" on="1"/>
        <pt x="40" y="455" on="0"/>
        <pt x="125" y="540" on="0"/>
        <pt x="200" y="540" on="1"/>
        <pt x="400" y="540" on="1"/>
        <pt x="475" y="540" on="0"/>
        <pt x="560" y="455" on="0"/>
        <pt x="560" y="380" on="1"/>
        <pt x="560" y="195" on="1"/>
        <pt x="215" y="195" on="1"/>
        <pt x="215" y="155" on="1"/>
        <pt x="215" y="140" on="0"/>
        <pt x="235" y="120" on="0"/>
        <pt x="250" y="120" on="1"/>
        <pt x="349" y="120" on="0"/>
        <pt x="540" y="135" on="1"/>
      </contour>
    </TTGlyph>
    <TTGlyph name="afii10072" xMin="0" yMin="0" xMax="875" yMax="540">
      <contour>
        <pt x="190" y="0" on="1"/>
        <pt x="0" y="0" on="1"/>
        <pt x="150" y="265" on="1"/>
        <pt x="100" y="365" on="1"/>
        <pt x="84" y="395" on="0"/>
        <pt x="50" y="395" on="1"/>
        <pt x="15" y="395" on="1"/>
        <pt x="15" y="530" on="1"/>
        <pt x="40" y="535" on="1"/>
        <pt x="67" y="540" on="0"/>
        <pt x="123" y="540" on="0"/>
        <pt x="168" y="524" on="0"/>
        <pt x="186" y="511" on="1"/>
        <pt x="221" y="486" on="0"/>
        <pt x="240" y="445" on="1"/>
        <pt x="295" y="335" on="1"/>
        <pt x="350" y="335" on="1"/>
        <pt x="350" y="530" on="1"/>
        <pt x="525" y="530" on="1"/>
        <pt x="525" y="335" on="1"/>
        <pt x="580" y="335" on="1"/>
        <pt x="635" y="445" on="1"/>
        <pt x="665" y="509" on="0"/>
        <pt x="730" y="532" on="1"/>
        <pt x="752" y="540" on="0"/>
        <pt x="774" y="540" on="1"/>
        <pt x="808" y="540" on="0"/>
        <pt x="835" y="535" on="1"/>
        <pt x="860" y="530" on="1"/>
        <pt x="860" y="395" on="1"/>
        <pt x="825" y="395" on="1"/>
        <pt x="791" y="395" on="0"/>
        <pt x="775" y="365" on="1"/>
        <pt x="725" y="265" on="1"/>
        <pt x="875" y="0" on="1"/>
        <pt x="685" y="0" on="1"/>
        <pt x="575" y="200" on="1"/>
        <pt x="525" y="200" on="1"/>
        <pt x="525" y="0" on="1"/>
        <pt x="350" y="0" on="1"/>
        <pt x="350" y="200" on="1"/>
        <pt x="300" y="200" on="1"/>
      </contour>
    </TTGlyph>
    <TTGlyph name="afii10073" xMin="20" yMin="-10" xMax="530" yMax="530">
      <contour>
        <pt x="20" y="130" on="1"/>
        <pt x="211" y="115" on="0"/>
        <pt x="320" y="115" on="1"/>
        <pt x="335" y="115" on="0"/>
        <pt x="355" y="135" on="0"/>
        <pt x="355" y="150" on="1"/>
        <pt x="355" y="165" on="1"/>
        <pt x="355" y="180" on="0"/>
        <pt x="335" y="200" on="0"/>
        <pt x="320" y="200" on="1"/>
        <pt x="100" y="200" on="1"/>
        <pt x="100" y="325" on="1"/>
        <pt x="300" y="325" on="1"/>
        <pt x="315" y="325" on="0"/>
        <pt x="335" y="345" on="0"/>
        <pt x="335" y="360" on="1"/>
        <pt x="335" y="370" on="1"/>
        <pt x="335" y="385" on="0"/>
        <pt x="315" y="405" on="0"/>
        <pt x="300" y="405" on="1"/>
        <pt x="30" y="405" on="1"/>
        <pt x="30" y="530" on="1"/>
        <pt x="360" y="530" on="1"/>
        <pt x="427" y="530" on="0"/>
        <pt x="510" y="451" on="0"/>
        <pt x="510" y="402" on="1"/>
        <pt x="510" y="302" on="0"/>
        <pt x="420" y="280" on="1"/>
        <pt x="465" y="272" on="0"/>
        <pt x="530" y="200" on="0"/>
        <pt x="530" y="72" on="0"/>
        <pt x="448" y="-10" on="0"/>
        <pt x="380" y="-10" on="1"/>
        <pt x="213" y="-10" on="0"/>
        <pt x="20" y="10" on="1"/>
      </contour>
    </TTGlyph>
    <TTGlyph name="afii10074" xMin="50" yMin="0" xMax="580" yMax="530">
      <contour>
        <pt x="395" y="530" on="1"/>
        <pt x="580" y="530" on="1"/>
        <pt x="580" y="0" on="1"/>
        <pt x="405" y="0" on="1"/>
        <pt x="405" y="290" on="1"/>
        <pt x="235" y="0" on="1"/>
        <pt x="50" y="0" on="1"/>
        <pt x="50" y="530" on="1"/>
        <pt x="225" y="530" on="1"/>
        <pt x="225" y="240" on="1"/>
      </contour>
    </TTGlyph>
    <TTGlyph name="afii10075" xMin="50" yMin="0" xMax="580" yMax="740">
      <contour>
        <pt x="260" y="580" on="1"/>
        <pt x="130" y="580" on="0"/>
        <pt x="130" y="710" on="1"/>
        <pt x="130" y="740" on="1"/>
        <pt x="260" y="740" on="1"/>
        <pt x="260" y="715" on="1"/>
        <pt x="260" y="700" on="0"/>
        <pt x="280" y="680" on="0"/>
        <pt x="295" y="680" on="1"/>
        <pt x="325" y="680" on="1"/>
        <pt x="340" y="680" on="0"/>
        <pt x="360" y="700" on="0"/>
        <pt x="360" y="715" on="1"/>
        <pt x="360" y="740" on="1"/>
        <pt x="490" y="740" on="1"/>
        <pt x="490" y="710" on="1"/>
        <pt x="490" y="580" on="0"/>
        <pt x="360" y="580" on="1"/>
      </contour>
      <contour>
        <pt x="395" y="530" on="1"/>
        <pt x="580" y="530" on="1"/>
        <pt x="580" y="0" on="1"/>
        <pt x="405" y="0" on="1"/>
        <pt x="405" y="290" on="1"/>
        <pt x="235" y="0" on="1"/>
        <pt x="50" y="0" on="1"/>
        <pt x="50" y="530" on="1"/>
        <pt x="225" y="530" on="1"/>
        <pt x="225" y="240" on="1"/>
      </contour>
    </TTGlyph>
    <TTGlyph name="afii10076" xMin="50" yMin="0" xMax="600" yMax="540">
      <contour>
        <pt x="300" y="200" on="1"/>
        <pt x="225" y="200" on="1"/>
        <pt x="225" y="0" on="1"/>
        <pt x="50" y="0" on="1"/>
        <pt x="50" y="530" on="1"/>
        <pt x="225" y="530" on="1"/>
        <pt x="225" y="335" on="1"/>
        <pt x="305" y="335" on="1"/>
        <pt x="360" y="445" on="1"/>
        <pt x="390" y="509" on="0"/>
        <pt x="454" y="532" on="1"/>
        <pt x="477" y="540" on="0"/>
        <pt x="498" y="540" on="1"/>
        <pt x="532" y="540" on="0"/>
        <pt x="560" y="535" on="1"/>
        <pt x="585" y="530" on="1"/>
        <pt x="585" y="395" on="1"/>
        <pt x="550" y="395" on="1"/>
        <pt x="516" y="395" on="0"/>
        <pt x="500" y="365" on="1"/>
        <pt x="450" y="265" on="1"/>
        <pt x="600" y="0" on="1"/>
        <pt x="410" y="0" on="1"/>
      </contour>
    </TTGlyph>
    <TTGlyph name="afii10077" xMin="10" yMin="-10" xMax="590" yMax="530">
      <contour>
        <pt x="110" y="-10" on="1"/>
        <pt x="67" y="-10" on="0"/>
        <pt x="10" y="0" on="1"/>
        <pt x="10" y="130" on="1"/>
        <pt x="50" y="130" on="1"/>
        <pt x="88" y="130" on="0"/>
        <pt x="90" y="170" on="1"/>
        <pt x="110" y="530" on="1"/>
        <pt x="590" y="530" on="1"/>
        <pt x="590" y="0" on="1"/>
        <pt x="415" y="0" on="1"/>
        <pt x="415" y="395" on="1"/>
        <pt x="275" y="395" on="1"/>
        <pt x="260" y="140" on="1"/>
        <pt x="256" y="72" on="0"/>
        <pt x="174" y="-10" on="0"/>
      </contour>
    </TTGlyph>
    <TTGlyph name="afii10078" xMin="50" yMin="0" xMax="730" yMax="530">
      <contour>
        <pt x="455" y="90" on="1"/>
        <pt x="325" y="90" on="1"/>
        <pt x="225" y="270" on="1"/>
        <pt x="225" y="0" on="1"/>
        <pt x="50" y="0" on="1"/>
        <pt x="50" y="530" on="1"/>
        <pt x="235" y="530" on="1"/>
        <pt x="390" y="250" on="1"/>
        <pt x="545" y="530" on="1"/>
        <pt x="730" y="530" on="1"/>
        <pt x="730" y="0" on="1"/>
        <pt x="555" y="0" on="1"/>
        <pt x="555" y="270" on="1"/>
      </contour>
    </TTGlyph>
    <TTGlyph name="afii10079" xMin="50" yMin="0" xMax="580" yMax="530">
      <contour>
        <pt x="405" y="335" on="1"/>
        <pt x="405" y="530" on="1"/>
        <pt x="580" y="530" on="1"/>
        <pt x="580" y="0" on="1"/>
        <pt x="405" y="0" on="1"/>
        <pt x="405" y="200" on="1"/>
        <pt x="225" y="200" on="1"/>
        <pt x="225" y="0" on="1"/>
        <pt x="50" y="0" on="1"/>
        <pt x="50" y="530" on="1"/>
        <pt x="225" y="530" on="1"/>
        <pt x="225" y="335" on="1"/>
      </contour>
    </TTGlyph>
    <TTGlyph name="afii10080" xMin="40" yMin="-10" xMax="590" yMax="540">
      <contour>
        <pt x="590" y="150" on="1"/>
        <pt x="590" y="75" on="0"/>
        <pt x="505" y="-10" on="0"/>
        <pt x="430" y="-10" on="1"/>
        <pt x="200" y="-10" on="1"/>
        <pt x="125" y="-10" on="0"/>
        <pt x="40" y="75" on="0"/>
        <pt x="40" y="150" on="1"/>
        <pt x="40" y="380" on="1"/>
        <pt x="40" y="455" on="0"/>
        <pt x="125" y="540" on="0"/>
        <pt x="200" y="540" on="1"/>
        <pt x="430" y="540" on="1"/>
        <pt x="505" y="540" on="0"/>
        <pt x="590" y="455" on="0"/>
        <pt x="590" y="380" on="1"/>
      </contour>
      <contour>
        <pt x="415" y="365" on="1"/>
        <pt x="415" y="405" on="0"/>
        <pt x="375" y="405" on="1"/>
        <pt x="255" y="405" on="1"/>
        <pt x="215" y="405" on="0"/>
        <pt x="215" y="365" on="1"/>
        <pt x="215" y="165" on="1"/>
        <pt x="215" y="125" on="0"/>
        <pt x="255" y="125" on="1"/>
        <pt x="375" y="125" on="1"/>
        <pt x="415" y="125" on="0"/>
        <pt x="415" y="165" on="1"/>
      </contour>
    </TTGlyph>
    <TTGlyph name="afii10081" xMin="50" yMin="0" xMax="580" yMax="530">
      <contour>
        <pt x="580" y="530" on="1"/>
        <pt x="580" y="0" on="1"/>
        <pt x="405" y="0" on="1"/>
        <pt x="405" y="395" on="1"/>
        <pt x="225" y="395" on="1"/>
        <pt x="225" y="0" on="1"/>
        <pt x="50" y="0" on="1"/>
        <pt x="50" y="530" on="1"/>
      </contour>
    </TTGlyph>
    <TTGlyph name="afii10082" xMin="50" yMin="-170" xMax="590" yMax="540">
      <contour>
        <pt x="345" y="395" on="1"/>
        <pt x="292" y="395" on="0"/>
        <pt x="225" y="375" on="1"/>
        <pt x="225" y="135" on="1"/>
        <pt x="375" y="135" on="1"/>
        <pt x="415" y="135" on="0"/>
        <pt x="415" y="175" on="1"/>
        <pt x="415" y="360" on="1"/>
        <pt x="415" y="375" on="0"/>
        <pt x="395" y="395" on="0"/>
        <pt x="380" y="395" on="1"/>
      </contour>
      <contour>
        <pt x="225" y="0" on="1"/>
        <pt x="225" y="-170" on="1"/>
        <pt x="50" y="-170" on="1"/>
        <pt x="50" y="530" on="1"/>
        <pt x="205" y="530" on="1"/>
        <pt x="215" y="480" on="1"/>
        <pt x="262" y="511" on="0"/>
        <pt x="361" y="540" on="0"/>
        <pt x="395" y="540" on="1"/>
        <pt x="440" y="540" on="1"/>
        <pt x="508" y="540" on="0"/>
        <pt x="590" y="458" on="0"/>
        <pt x="590" y="390" on="1"/>
        <pt x="590" y="160" on="1"/>
        <pt x="590" y="85" on="0"/>
        <pt x="505" y="0" on="0"/>
        <pt x="430" y="0" on="1"/>
      </contour>
    </TTGlyph>
    <TTGlyph name="afii10083" xMin="40" yMin="-10" xMax="520" yMax="530">
      <contour>
        <pt x="520" y="10" on="1"/>
        <pt x="333" y="-10" on="0"/>
        <pt x="190" y="-10" on="1"/>
        <pt x="122" y="-10" on="0"/>
        <pt x="40" y="72" on="0"/>
        <pt x="40" y="140" on="1"/>
        <pt x="40" y="370" on="1"/>
        <pt x="40" y="445" on="0"/>
        <pt x="125" y="530" on="0"/>
        <pt x="200" y="530" on="1"/>
        <pt x="520" y="530" on="1"/>
        <pt x="520" y="395" on="1"/>
        <pt x="255" y="395" on="1"/>
        <pt x="215" y="395" on="0"/>
        <pt x="215" y="355" on="1"/>
        <pt x="215" y="160" on="1"/>
        <pt x="215" y="145" on="0"/>
        <pt x="235" y="125" on="0"/>
        <pt x="250" y="125" on="1"/>
        <pt x="340" y="125" on="0"/>
        <pt x="520" y="140" on="1"/>
      </contour>
    </TTGlyph>
    <TTGlyph name="afii10084" xMin="10" yMin="0" xMax="515" yMax="530">
      <contour>
        <pt x="350" y="395" on="1"/>
        <pt x="350" y="0" on="1"/>
        <pt x="175" y="0" on="1"/>
        <pt x="175" y="395" on="1"/>
        <pt x="10" y="395" on="1"/>
        <pt x="10" y="530" on="1"/>
        <pt x="515" y="530" on="1"/>
        <pt x="515" y="395" on="1"/>
      </contour>
    </TTGlyph>
    <TTGlyph name="afii10085" xMin="-10" yMin="-180" xMax="590" yMax="530">
      <contour>
        <pt x="190" y="-180" on="1"/>
        <pt x="137" y="-180" on="0"/>
        <pt x="60" y="-170" on="1"/>
        <pt x="60" y="-40" on="1"/>
        <pt x="150" y="-40" on="1"/>
        <pt x="188" y="-40" on="0"/>
        <pt x="211" y="2" on="0"/>
        <pt x="195" y="40" on="1"/>
        <pt x="-10" y="530" on="1"/>
        <pt x="175" y="530" on="1"/>
        <pt x="300" y="190" on="1"/>
        <pt x="405" y="530" on="1"/>
        <pt x="590" y="530" on="1"/>
        <pt x="390" y="-20" on="1"/>
        <pt x="361" y="-99" on="0"/>
        <pt x="269" y="-180" on="0"/>
      </contour>
    </TTGlyph>
    <TTGlyph name="afii10086" xMin="40" yMin="-170" xMax="755" yMax="700">
      <contour>
        <pt x="755" y="160" on="1"/>
        <pt x="755" y="85" on="0"/>
        <pt x="670" y="0" on="0"/>
        <pt x="595" y="0" on="1"/>
        <pt x="485" y="0" on="1"/>
        <pt x="485" y="-170" on="1"/>
        <pt x="310" y="-170" on="1"/>
        <pt x="310" y="0" on="1"/>
        <pt x="200" y="0" on="1"/>
        <pt x="125" y="0" on="0"/>
        <pt x="40" y="85" on="0"/>
        <pt x="40" y="160" on="1"/>
        <pt x="40" y="370" on="1"/>
        <pt x="40" y="445" on="0"/>
        <pt x="125" y="530" on="0"/>
        <pt x="200" y="530" on="1"/>
        <pt x="310" y="530" on="1"/>
        <pt x="310" y="700" on="1"/>
        <pt x="485" y="700" on="1"/>
        <pt x="485" y="530" on="1"/>
        <pt x="595" y="530" on="1"/>
        <pt x="670" y="530" on="0"/>
        <pt x="755" y="445" on="0"/>
        <pt x="755" y="370" on="1"/>
      </contour>
      <contour>
        <pt x="215" y="175" on="1"/>
        <pt x="215" y="135" on="0"/>
        <pt x="255" y="135" on="1"/>
        <pt x="325" y="135" on="1"/>
        <pt x="325" y="395" on="1"/>
        <pt x="255" y="395" on="1"/>
        <pt x="215" y="395" on="0"/>
        <pt x="215" y="355" on="1"/>
      </contour>
      <contour>
        <pt x="580" y="355" on="1"/>
        <pt x="580" y="395" on="0"/>
        <pt x="540" y="395" on="1"/>
        <pt x="480" y="395" on="1"/>
        <pt x="480" y="135" on="1"/>
        <pt x="540" y="135" on="1"/>
        <pt x="580" y="135" on="0"/>
        <pt x="580" y="175" on="1"/>
      </contour>
    </TTGlyph>
    <TTGlyph name="afii10087" xMin="-10" yMin="0" xMax="580" yMax="530">
      <contour>
        <pt x="380" y="530" on="1"/>
        <pt x="575" y="530" on="1"/>
        <pt x="405" y="265" on="1"/>
        <pt x="580" y="0" on="1"/>
        <pt x="385" y="0" on="1"/>
        <pt x="285" y="160" on="1"/>
        <pt x="185" y="0" on="1"/>
        <pt x="-10" y="0" on="1"/>
        <pt x="165" y="265" on="1"/>
        <pt x="-5" y="530" on="1"/>
        <pt x="190" y="530" on="1"/>
        <pt x="285" y="370" on="1"/>
      </contour>
    </TTGlyph>
    <TTGlyph name="afii10088" xMin="50" yMin="-120" xMax="655" yMax="530">
      <contour>
        <pt x="480" y="0" on="1"/>
        <pt x="50" y="0" on="1"/>
        <pt x="50" y="530" on="1"/>
        <pt x="225" y="530" on="1"/>
        <pt x="225" y="135" on="1"/>
        <pt x="405" y="135" on="1"/>
        <pt x="405" y="530" on="1"/>
        <pt x="580" y="530" on="1"/>
        <pt x="580" y="135" on="1"/>
        <pt x="655" y="135" on="1"/>
        <pt x="655" y="-120" on="1"/>
        <pt x="490" y="-120" on="1"/>
      </contour>
    </TTGlyph>
    <TTGlyph name="afii10089" xMin="40" yMin="0" xMax="565" yMax="530">
      <contour>
        <pt x="250" y="285" on="1"/>
        <pt x="335" y="285" on="0"/>
        <pt x="390" y="290" on="1"/>
        <pt x="390" y="530" on="1"/>
        <pt x="565" y="530" on="1"/>
        <pt x="565" y="0" on="1"/>
        <pt x="390" y="0" on="1"/>
        <pt x="390" y="160" on="1"/>
        <pt x="283" y="150" on="0"/>
        <pt x="190" y="150" on="1"/>
        <pt x="122" y="150" on="0"/>
        <pt x="40" y="232" on="0"/>
        <pt x="40" y="300" on="1"/>
        <pt x="40" y="530" on="1"/>
        <pt x="215" y="530" on="1"/>
        <pt x="215" y="320" on="1"/>
        <pt x="215" y="305" on="0"/>
        <pt x="235" y="285" on="0"/>
      </contour>
    </TTGlyph>
    <TTGlyph name="afii10090" xMin="50" yMin="0" xMax="805" yMax="530">
      <contour>
        <pt x="50" y="0" on="1"/>
        <pt x="50" y="530" on="1"/>
        <pt x="225" y="530" on="1"/>
        <pt x="225" y="135" on="1"/>
        <pt x="340" y="135" on="1"/>
        <pt x="340" y="530" on="1"/>
        <pt x="515" y="530" on="1"/>
        <pt x="515" y="135" on="1"/>
        <pt x="630" y="135" on="1"/>
        <pt x="630" y="530" on="1"/>
        <pt x="805" y="530" on="1"/>
        <pt x="805" y="0" on="1"/>
      </contour>
    </TTGlyph>
    <TTGlyph name="afii10091" xMin="50" yMin="-120" xMax="880" yMax="530">
      <contour>
        <pt x="705" y="0" on="1"/>
        <pt x="50" y="0" on="1"/>
        <pt x="50" y="530" on="1"/>
        <pt x="225" y="530" on="1"/>
        <pt x="225" y="135" on="1"/>
        <pt x="340" y="135" on="1"/>
        <pt x="340" y="530" on="1"/>
        <pt x="515" y="530" on="1"/>
        <pt x="515" y="135" on="1"/>
        <pt x="630" y="135" on="1"/>
        <pt x="630" y="530" on="1"/>
        <pt x="805" y="530" on="1"/>
        <pt x="805" y="135" on="1"/>
        <pt x="880" y="135" on="1"/>
        <pt x="880" y="-120" on="1"/>
        <pt x="715" y="-120" on="1"/>
      </contour>
    </TTGlyph>
    <TTGlyph name="afii10092" xMin="10" yMin="0" xMax="680" yMax="530">
      <contour>
        <pt x="325" y="530" on="1"/>
        <pt x="325" y="365" on="1"/>
        <pt x="530" y="365" on="1"/>
        <pt x="598" y="365" on="0"/>
        <pt x="680" y="283" on="0"/>
        <pt x="680" y="215" on="1"/>
        <pt x="680" y="150" on="1"/>
        <pt x="680" y="82" on="0"/>
        <pt x="598" y="0" on="0"/>
        <pt x="530" y="0" on="1"/>
        <pt x="150" y="0" on="1"/>
        <pt x="150" y="395" on="1"/>
        <pt x="10" y="395" on="1"/>
        <pt x="10" y="530" on="1"/>
      </contour>
      <contour>
        <pt x="470" y="125" on="1"/>
        <pt x="485" y="125" on="0"/>
        <pt x="505" y="145" on="0"/>
        <pt x="505" y="160" on="1"/>
        <pt x="505" y="205" on="1"/>
        <pt x="505" y="220" on="0"/>
        <pt x="485" y="240" on="0"/>
        <pt x="470" y="240" on="1"/>
        <pt x="325" y="240" on="1"/>
        <pt x="325" y="125" on="1"/>
      </contour>
    </TTGlyph>
    <TTGlyph name="afii10093" xMin="50" yMin="0" xMax="810" yMax="530">
      <contour>
        <pt x="50" y="0" on="1"/>
        <pt x="50" y="530" on="1"/>
        <pt x="225" y="530" on="1"/>
        <pt x="225" y="365" on="1"/>
        <pt x="420" y="365" on="1"/>
        <pt x="488" y="365" on="0"/>
        <pt x="570" y="283" on="0"/>
        <pt x="570" y="215" on="1"/>
        <pt x="570" y="150" on="1"/>
        <pt x="570" y="82" on="0"/>
        <pt x="488" y="0" on="0"/>
        <pt x="420" y="0" on="1"/>
      </contour>
      <contour>
        <pt x="360" y="125" on="1"/>
        <pt x="375" y="125" on="0"/>
        <pt x="395" y="145" on="0"/>
        <pt x="395" y="160" on="1"/>
        <pt x="395" y="204" on="1"/>
        <pt x="395" y="219" on="0"/>
        <pt x="375" y="239" on="0"/>
        <pt x="360" y="239" on="1"/>
        <pt x="225" y="239" on="1"/>
        <pt x="225" y="125" on="1"/>
      </contour>
      <contour>
        <pt x="810" y="0" on="1"/>
        <pt x="635" y="0" on="1"/>
        <pt x="635" y="530" on="1"/>
        <pt x="810" y="530" on="1"/>
      </contour>
    </TTGlyph>
    <TTGlyph name="afii10094" xMin="50" yMin="0" xMax="580" yMax="530">
      <contour>
        <pt x="50" y="0" on="1"/>
        <pt x="50" y="530" on="1"/>
        <pt x="225" y="530" on="1"/>
        <pt x="225" y="365" on="1"/>
        <pt x="430" y="365" on="1"/>
        <pt x="498" y="365" on="0"/>
        <pt x="580" y="283" on="0"/>
        <pt x="580" y="215" on="1"/>
        <pt x="580" y="150" on="1"/>
        <pt x="580" y="82" on="0"/>
        <pt x="498" y="0" on="0"/>
        <pt x="430" y="0" on="1"/>
      </contour>
      <contour>
        <pt x="370" y="125" on="1"/>
        <pt x="385" y="125" on="0"/>
        <pt x="405" y="145" on="0"/>
        <pt x="405" y="160" on="1"/>
        <pt x="405" y="205" on="1"/>
        <pt x="405" y="220" on="0"/>
        <pt x="385" y="240" on="0"/>
        <pt x="370" y="240" on="1"/>
        <pt x="225" y="240" on="1"/>
        <pt x="225" y="125" on="1"/>
      </contour>
    </TTGlyph>
    <TTGlyph name="afii10095" xMin="30" yMin="-10" xMax="510" yMax="530">
      <contour>
        <pt x="360" y="-10" on="1"/>
        <pt x="213" y="-10" on="0"/>
        <pt x="30" y="10" on="1"/>
        <pt x="30" y="130" on="1"/>
        <pt x="210" y="115" on="0"/>
        <pt x="300" y="115" on="1"/>
        <pt x="315" y="115" on="0"/>
        <pt x="335" y="135" on="0"/>
        <pt x="335" y="150" on="1"/>
        <pt x="335" y="200" on="1"/>
        <pt x="110" y="200" on="1"/>
        <pt x="110" y="325" on="1"/>
        <pt x="335" y="325" on="1"/>
        <pt x="335" y="365" on="1"/>
        <pt x="335" y="405" on="0"/>
        <pt x="295" y="405" on="1"/>
        <pt x="40" y="405" on="1"/>
        <pt x="40" y="530" on="1"/>
        <pt x="350" y="530" on="1"/>
        <pt x="425" y="530" on="0"/>
        <pt x="510" y="445" on="0"/>
        <pt x="510" y="370" on="1"/>
        <pt x="510" y="140" on="1"/>
        <pt x="510" y="72" on="0"/>
        <pt x="428" y="-10" on="0"/>
      </contour>
    </TTGlyph>
    <TTGlyph name="afii10096" xMin="50" yMin="-10" xMax="810" yMax="540">
      <contour>
        <pt x="300" y="335" on="1"/>
        <pt x="300" y="380" on="1"/>
        <pt x="300" y="455" on="0"/>
        <pt x="385" y="540" on="0"/>
        <pt x="460" y="540" on="1"/>
        <pt x="650" y="540" on="1"/>
        <pt x="725" y="540" on="0"/>
        <pt x="810" y="455" on="0"/>
        <pt x="810" y="380" on="1"/>
        <pt x="810" y="150" on="1"/>
        <pt x="810" y="75" on="0"/>
        <pt x="725" y="-10" on="0"/>
        <pt x="650" y="-10" on="1"/>
        <pt x="460" y="-10" on="1"/>
        <pt x="385" y="-10" on="0"/>
        <pt x="300" y="75" on="0"/>
        <pt x="300" y="150" on="1"/>
        <pt x="300" y="200" on="1"/>
        <pt x="225" y="200" on="1"/>
        <pt x="225" y="0" on="1"/>
        <pt x="50" y="0" on="1"/>
        <pt x="50" y="530" on="1"/>
        <pt x="225" y="530" on="1"/>
        <pt x="225" y="335" on="1"/>
      </contour>
      <contour>
        <pt x="635" y="365" on="1"/>
        <pt x="635" y="405" on="0"/>
        <pt x="595" y="405" on="1"/>
        <pt x="515" y="405" on="1"/>
        <pt x="475" y="405" on="0"/>
        <pt x="475" y="365" on="1"/>
        <pt x="475" y="165" on="1"/>
        <pt x="475" y="125" on="0"/>
        <pt x="515" y="125" on="1"/>
        <pt x="595" y="125" on="1"/>
        <pt x="635" y="125" on="0"/>
        <pt x="635" y="165" on="1"/>
      </contour>
    </TTGlyph>
    <TTGlyph name="afii10097" xMin="30" yMin="0" xMax="570" yMax="530">
      <contour>
        <pt x="570" y="530" on="1"/>
        <pt x="570" y="0" on="1"/>
        <pt x="395" y="0" on="1"/>
        <pt x="395" y="165" on="1"/>
        <pt x="310" y="165" on="1"/>
        <pt x="215" y="0" on="1"/>
        <pt x="30" y="0" on="1"/>
        <pt x="130" y="175" on="1"/>
        <pt x="88" y="190" on="0"/>
        <pt x="40" y="262" on="0"/>
        <pt x="40" y="315" on="1"/>
        <pt x="40" y="380" on="1"/>
        <pt x="40" y="448" on="0"/>
        <pt x="122" y="530" on="0"/>
        <pt x="190" y="530" on="1"/>
      </contour>
      <contour>
        <pt x="250" y="405" on="1"/>
        <pt x="235" y="405" on="0"/>
        <pt x="215" y="385" on="0"/>
        <pt x="215" y="370" on="1"/>
        <pt x="215" y="325" on="1"/>
        <pt x="215" y="310" on="0"/>
        <pt x="235" y="290" on="0"/>
        <pt x="250" y="290" on="1"/>
        <pt x="395" y="290" on="1"/>
        <pt x="395" y="405" on="1"/>
      </contour>
    </TTGlyph>
    <TTGlyph name="afii10098" xMin="50" yMin="0" xMax="480" yMax="620">
      <contour>
        <pt x="315" y="530" on="1"/>
        <pt x="325" y="620" on="1"/>
        <pt x="480" y="620" on="1"/>
        <pt x="480" y="395" on="1"/>
        <pt x="226" y="395" on="1"/>
        <pt x="226" y="0" on="1"/>
        <pt x="50" y="0" on="1"/>
        <pt x="50" y="530" on="1"/>
      </contour>
    </TTGlyph>
    <TTGlyph name="afii10099" xMin="20" yMin="-10" xMax="620" yMax="700">
      <contour>
        <pt x="255" y="430" on="1"/>
        <pt x="352" y="450" on="0"/>
        <pt x="425" y="450" on="1"/>
        <pt x="470" y="450" on="1"/>
        <pt x="538" y="450" on="0"/>
        <pt x="620" y="368" on="0"/>
        <pt x="620" y="300" on="1"/>
        <pt x="620" y="140" on="1"/>
        <pt x="620" y="72" on="0"/>
        <pt x="538" y="-10" on="0"/>
        <pt x="407" y="-10" on="0"/>
        <pt x="340" y="0" on="1"/>
        <pt x="340" y="130" on="1"/>
        <pt x="410" y="130" on="1"/>
        <pt x="425" y="130" on="0"/>
        <pt x="445" y="150" on="0"/>
        <pt x="445" y="165" on="1"/>
        <pt x="445" y="280" on="1"/>
        <pt x="445" y="295" on="0"/>
        <pt x="425" y="315" on="0"/>
        <pt x="410" y="315" on="1"/>
        <pt x="375" y="315" on="1"/>
        <pt x="336" y="315" on="0"/>
        <pt x="274" y="307" on="0"/>
        <pt x="255" y="305" on="1"/>
        <pt x="255" y="0" on="1"/>
        <pt x="80" y="0" on="1"/>
        <pt x="80" y="495" on="1"/>
        <pt x="20" y="495" on="1"/>
        <pt x="20" y="620" on="1"/>
        <pt x="80" y="620" on="1"/>
        <pt x="100" y="700" on="1"/>
        <pt x="255" y="700" on="1"/>
        <pt x="255" y="620" on="1"/>
        <pt x="380" y="620" on="1"/>
        <pt x="380" y="495" on="1"/>
        <pt x="255" y="495" on="1"/>
      </contour>
    </TTGlyph>
    <TTGlyph name="afii10100" xMin="50" yMin="0" xMax="480" yMax="740">
      <contour>
        <pt x="480" y="530" on="1"/>
        <pt x="480" y="395" on="1"/>
        <pt x="225" y="395" on="1"/>
        <pt x="225" y="0" on="1"/>
        <pt x="50" y="0" on="1"/>
        <pt x="50" y="530" on="1"/>
      </contour>
      <contour>
        <pt x="170" y="570" on="1"/>
        <pt x="230" y="740" on="1"/>
        <pt x="410" y="740" on="1"/>
        <pt x="300" y="570" on="1"/>
      </contour>
    </TTGlyph>
    <TTGlyph name="afii10101" xMin="40" yMin="-10" xMax="520" yMax="530">
      <contour>
        <pt x="520" y="10" on="1"/>
        <pt x="333" y="-10" on="0"/>
        <pt x="190" y="-10" on="1"/>
        <pt x="122" y="-10" on="0"/>
        <pt x="40" y="72" on="0"/>
        <pt x="40" y="140" on="1"/>
        <pt x="40" y="370" on="1"/>
        <pt x="40" y="445" on="0"/>
        <pt x="125" y="530" on="0"/>
        <pt x="200" y="530" on="1"/>
        <pt x="510" y="530" on="1"/>
        <pt x="510" y="405" on="1"/>
        <pt x="255" y="405" on="1"/>
        <pt x="215" y="405" on="0"/>
        <pt x="215" y="365" on="1"/>
        <pt x="215" y="325" on="1"/>
        <pt x="440" y="325" on="1"/>
        <pt x="440" y="200" on="1"/>
        <pt x="215" y="200" on="1"/>
        <pt x="215" y="150" on="1"/>
        <pt x="215" y="135" on="0"/>
        <pt x="235" y="115" on="0"/>
        <pt x="250" y="115" on="1"/>
        <pt x="340" y="115" on="0"/>
        <pt x="520" y="130" on="1"/>
      </contour>
    </TTGlyph>
    <TTGlyph name="afii10102" xMin="20" yMin="-10" xMax="560" yMax="530">
      <contour>
        <pt x="30" y="140" on="1"/>
        <pt x="233" y="125" on="0"/>
        <pt x="350" y="125" on="1"/>
        <pt x="365" y="125" on="0"/>
        <pt x="385" y="145" on="0"/>
        <pt x="385" y="160" on="1"/>
        <pt x="385" y="195" on="1"/>
        <pt x="170" y="195" on="1"/>
        <pt x="102" y="195" on="0"/>
        <pt x="20" y="277" on="0"/>
        <pt x="20" y="345" on="1"/>
        <pt x="20" y="380" on="1"/>
        <pt x="20" y="448" on="0"/>
        <pt x="102" y="530" on="0"/>
        <pt x="170" y="530" on="1"/>
        <pt x="510" y="530" on="1"/>
        <pt x="510" y="400" on="1"/>
        <pt x="230" y="400" on="1"/>
        <pt x="215" y="400" on="0"/>
        <pt x="195" y="380" on="0"/>
        <pt x="195" y="365" on="1"/>
        <pt x="195" y="350" on="0"/>
        <pt x="215" y="330" on="0"/>
        <pt x="230" y="330" on="1"/>
        <pt x="410" y="330" on="1"/>
        <pt x="478" y="330" on="0"/>
        <pt x="560" y="248" on="0"/>
        <pt x="560" y="180" on="1"/>
        <pt x="560" y="140" on="1"/>
        <pt x="560" y="72" on="0"/>
        <pt x="478" y="-10" on="0"/>
        <pt x="410" y="-10" on="1"/>
        <pt x="233" y="-10" on="0"/>
        <pt x="30" y="10" on="1"/>
      </contour>
    </TTGlyph>
    <TTGlyph name="afii10103" xMin="20" yMin="0" xMax="270" yMax="710">
      <contour>
        <pt x="270" y="510" on="1"/>
        <pt x="270" y="0" on="1"/>
        <pt x="95" y="0" on="1"/>
        <pt x="95" y="375" on="1"/>
        <pt x="20" y="375" on="1"/>
        <pt x="20" y="510" on="1"/>
      </contour>
      <contour>
        <pt x="95" y="710" on="1"/>
        <pt x="270" y="710" on="1"/>
        <pt x="270" y="570" on="1"/>
        <pt x="95" y="570" on="1"/>
      </contour>
    </TTGlyph>
    <TTGlyph name="afii10104" xMin="-30" yMin="0" xMax="370" yMax="710">
      <contour>
        <pt x="-30" y="710" on="1"/>
        <pt x="140" y="710" on="1"/>
        <pt x="140" y="570" on="1"/>
        <pt x="-30" y="570" on="1"/>
      </contour>
      <contour>
        <pt x="200" y="710" on="1"/>
        <pt x="370" y="710" on="1"/>
        <pt x="370" y="570" on="1"/>
        <pt x="200" y="570" on="1"/>
      </contour>
      <contour>
        <pt x="284" y="510" on="1"/>
        <pt x="284" y="0" on="1"/>
        <pt x="109" y="0" on="1"/>
        <pt x="109" y="375" on="1"/>
        <pt x="34" y="375" on="1"/>
        <pt x="34" y="510" on="1"/>
      </contour>
    </TTGlyph>
    <TTGlyph name="afii10105" xMin="-90" yMin="-180" xMax="250" yMax="710">
      <contour>
        <pt x="100" y="-180" on="1"/>
        <pt x="7" y="-180" on="0"/>
        <pt x="-90" y="-170" on="1"/>
        <pt x="-90" y="-40" on="1"/>
        <pt x="40" y="-40" on="1"/>
        <pt x="55" y="-40" on="0"/>
        <pt x="75" y="-20" on="0"/>
        <pt x="75" y="-5" on="1"/>
        <pt x="75" y="510" on="1"/>
        <pt x="250" y="510" on="1"/>
        <pt x="250" y="-30" on="1"/>
        <pt x="250" y="-98" on="0"/>
        <pt x="168" y="-180" on="0"/>
      </contour>
      <contour>
        <pt x="75" y="710" on="1"/>
        <pt x="250" y="710" on="1"/>
        <pt x="250" y="570" on="1"/>
        <pt x="75" y="570" on="1"/>
      </contour>
    </TTGlyph>
    <TTGlyph name="afii10106" xMin="10" yMin="-10" xMax="885" yMax="530">
      <contour>
        <pt x="110" y="-10" on="1"/>
        <pt x="67" y="-10" on="0"/>
        <pt x="10" y="0" on="1"/>
        <pt x="10" y="130" on="1"/>
        <pt x="50" y="130" on="1"/>
        <pt x="88" y="130" on="0"/>
        <pt x="90" y="170" on="1"/>
        <pt x="110" y="530" on="1"/>
        <pt x="555" y="530" on="1"/>
        <pt x="555" y="355" on="1"/>
        <pt x="735" y="355" on="1"/>
        <pt x="803" y="355" on="0"/>
        <pt x="885" y="273" on="0"/>
        <pt x="885" y="205" on="1"/>
        <pt x="885" y="150" on="1"/>
        <pt x="885" y="82" on="0"/>
        <pt x="803" y="0" on="0"/>
        <pt x="735" y="0" on="1"/>
        <pt x="390" y="0" on="1"/>
        <pt x="390" y="395" on="1"/>
        <pt x="275" y="395" on="1"/>
        <pt x="260" y="140" on="1"/>
        <pt x="256" y="72" on="0"/>
        <pt x="174" y="-10" on="0"/>
      </contour>
      <contour>
        <pt x="675" y="120" on="1"/>
        <pt x="690" y="120" on="0"/>
        <pt x="710" y="140" on="0"/>
        <pt x="710" y="155" on="1"/>
        <pt x="710" y="190" on="1"/>
        <pt x="710" y="205" on="0"/>
        <pt x="690" y="225" on="0"/>
        <pt x="675" y="225" on="1"/>
        <pt x="555" y="225" on="1"/>
        <pt x="555" y="120" on="1"/>
      </contour>
    </TTGlyph>
    <TTGlyph name="afii10107" xMin="50" yMin="0" xMax="875" yMax="530">
      <contour>
        <pt x="380" y="0" on="1"/>
        <pt x="380" y="225" on="1"/>
        <pt x="225" y="225" on="1"/>
        <pt x="225" y="0" on="1"/>
        <pt x="50" y="0" on="1"/>
        <pt x="50" y="530" on="1"/>
        <pt x="225" y="530" on="1"/>
        <pt x="225" y="355" on="1"/>
        <pt x="380" y="355" on="1"/>
        <pt x="380" y="530" on="1"/>
        <pt x="545" y="530" on="1"/>
        <pt x="545" y="355" on="1"/>
        <pt x="725" y="355" on="1"/>
        <pt x="793" y="355" on="0"/>
        <pt x="875" y="273" on="0"/>
        <pt x="875" y="205" on="1"/>
        <pt x="875" y="150" on="1"/>
        <pt x="875" y="82" on="0"/>
        <pt x="793" y="0" on="0"/>
        <pt x="725" y="0" on="1"/>
      </contour>
      <contour>
        <pt x="665" y="130" on="1"/>
        <pt x="680" y="130" on="0"/>
        <pt x="700" y="150" on="0"/>
        <pt x="700" y="165" on="1"/>
        <pt x="700" y="190" on="1"/>
        <pt x="700" y="205" on="0"/>
        <pt x="680" y="225" on="0"/>
        <pt x="665" y="225" on="1"/>
        <pt x="545" y="225" on="1"/>
        <pt x="545" y="130" on="1"/>
      </contour>
    </TTGlyph>
    <TTGlyph name="afii10108" xMin="20" yMin="0" xMax="620" yMax="700">
      <contour>
        <pt x="255" y="430" on="1"/>
        <pt x="352" y="450" on="0"/>
        <pt x="425" y="450" on="1"/>
        <pt x="470" y="450" on="1"/>
        <pt x="538" y="450" on="0"/>
        <pt x="620" y="368" on="0"/>
        <pt x="620" y="300" on="1"/>
        <pt x="620" y="0" on="1"/>
        <pt x="445" y="0" on="1"/>
        <pt x="445" y="280" on="1"/>
        <pt x="445" y="295" on="0"/>
        <pt x="425" y="315" on="0"/>
        <pt x="410" y="315" on="1"/>
        <pt x="375" y="315" on="1"/>
        <pt x="336" y="315" on="0"/>
        <pt x="274" y="307" on="0"/>
        <pt x="255" y="305" on="1"/>
        <pt x="255" y="0" on="1"/>
        <pt x="80" y="0" on="1"/>
        <pt x="80" y="495" on="1"/>
        <pt x="20" y="495" on="1"/>
        <pt x="20" y="620" on="1"/>
        <pt x="80" y="620" on="1"/>
        <pt x="100" y="700" on="1"/>
        <pt x="255" y="700" on="1"/>
        <pt x="255" y="620" on="1"/>
        <pt x="380" y="620" on="1"/>
        <pt x="380" y="495" on="1"/>
        <pt x="255" y="495" on="1"/>
      </contour>
    </TTGlyph>
    <TTGlyph name="afii10109" xMin="50" yMin="0" xMax="600" yMax="740">
      <contour>
        <pt x="240" y="570" on="1"/>
        <pt x="300" y="740" on="1"/>
        <pt x="480" y="740" on="1"/>
        <pt x="370" y="570" on="1"/>
      </contour>
      <contour>
        <pt x="300" y="200" on="1"/>
        <pt x="225" y="200" on="1"/>
        <pt x="225" y="0" on="1"/>
        <pt x="50" y="0" on="1"/>
        <pt x="50" y="530" on="1"/>
        <pt x="225" y="530" on="1"/>
        <pt x="225" y="335" on="1"/>
        <pt x="305" y="335" on="1"/>
        <pt x="360" y="445" on="1"/>
        <pt x="390" y="509" on="0"/>
        <pt x="454" y="532" on="1"/>
        <pt x="477" y="540" on="0"/>
        <pt x="498" y="540" on="1"/>
        <pt x="532" y="540" on="0"/>
        <pt x="560" y="535" on="1"/>
        <pt x="585" y="530" on="1"/>
        <pt x="585" y="395" on="1"/>
        <pt x="550" y="395" on="1"/>
        <pt x="516" y="395" on="0"/>
        <pt x="500" y="365" on="1"/>
        <pt x="450" y="265" on="1"/>
        <pt x="600" y="0" on="1"/>
        <pt x="410" y="0" on="1"/>
      </contour>
    </TTGlyph>
    <TTGlyph name="afii10110" xMin="-10" yMin="-180" xMax="590" yMax="730">
      <contour>
        <pt x="240" y="570" on="1"/>
        <pt x="110" y="570" on="0"/>
        <pt x="110" y="700" on="1"/>
        <pt x="110" y="730" on="1"/>
        <pt x="240" y="730" on="1"/>
        <pt x="240" y="705" on="1"/>
        <pt x="240" y="690" on="0"/>
        <pt x="260" y="670" on="0"/>
        <pt x="275" y="670" on="1"/>
        <pt x="305" y="670" on="1"/>
        <pt x="320" y="670" on="0"/>
        <pt x="340" y="690" on="0"/>
        <pt x="340" y="705" on="1"/>
        <pt x="340" y="730" on="1"/>
        <pt x="470" y="730" on="1"/>
        <pt x="470" y="700" on="1"/>
        <pt x="470" y="570" on="0"/>
        <pt x="340" y="570" on="1"/>
      </contour>
      <contour>
        <pt x="190" y="-180" on="1"/>
        <pt x="137" y="-180" on="0"/>
        <pt x="60" y="-170" on="1"/>
        <pt x="60" y="-40" on="1"/>
        <pt x="150" y="-40" on="1"/>
        <pt x="188" y="-40" on="0"/>
        <pt x="211" y="2" on="0"/>
        <pt x="195" y="40" on="1"/>
        <pt x="-10" y="530" on="1"/>
        <pt x="175" y="530" on="1"/>
        <pt x="300" y="190" on="1"/>
        <pt x="405" y="530" on="1"/>
        <pt x="590" y="530" on="1"/>
        <pt x="390" y="-20" on="1"/>
        <pt x="361" y="-99" on="0"/>
        <pt x="269" y="-180" on="0"/>
      </contour>
    </TTGlyph>
    <TTGlyph name="afii10145" xMin="60" yMin="-130" xMax="670" yMax="700">
      <contour>
        <pt x="60" y="0" on="1"/>
        <pt x="60" y="700" on="1"/>
        <pt x="240" y="700" on="1"/>
        <pt x="240" y="140" on="1"/>
        <pt x="490" y="140" on="1"/>
        <pt x="490" y="700" on="1"/>
        <pt x="670" y="700" on="1"/>
        <pt x="670" y="0" on="1"/>
        <pt x="455" y="0" on="1"/>
        <pt x="445" y="-130" on="1"/>
        <pt x="285" y="-130" on="1"/>
        <pt x="275" y="0" on="1"/>
      </contour>
    </TTGlyph>
    <TTGlyph name="afii10193" xMin="50" yMin="-120" xMax="580" yMax="530">
      <contour>
        <pt x="50" y="0" on="1"/>
        <pt x="50" y="530" on="1"/>
        <pt x="225" y="530" on="1"/>
        <pt x="225" y="135" on="1"/>
        <pt x="405" y="135" on="1"/>
        <pt x="405" y="530" on="1"/>
        <pt x="580" y="530" on="1"/>
        <pt x="580" y="0" on="1"/>
        <pt x="405" y="0" on="1"/>
        <pt x="395" y="-120" on="1"/>
        <pt x="235" y="-120" on="1"/>
        <pt x="225" y="0" on="1"/>
      </contour>
    </TTGlyph>
    <TTGlyph name="afii61352" xMin="60" yMin="0" xMax="1070" yMax="710">
      <contour>
        <pt x="750" y="300" on="1"/>
        <pt x="1050" y="300" on="1"/>
        <pt x="1050" y="200" on="1"/>
        <pt x="750" y="200" on="1"/>
      </contour>
      <contour>
        <pt x="670" y="0" on="1"/>
        <pt x="480" y="0" on="1"/>
        <pt x="240" y="420" on="1"/>
        <pt x="240" y="0" on="1"/>
        <pt x="60" y="0" on="1"/>
        <pt x="60" y="700" on="1"/>
        <pt x="250" y="700" on="1"/>
        <pt x="490" y="280" on="1"/>
        <pt x="490" y="700" on="1"/>
        <pt x="670" y="700" on="1"/>
      </contour>
      <contour>
        <pt x="1070" y="465" on="1"/>
        <pt x="1070" y="405" on="0"/>
        <pt x="1005" y="340" on="0"/>
        <pt x="945" y="340" on="1"/>
        <pt x="855" y="340" on="1"/>
        <pt x="795" y="340" on="0"/>
        <pt x="730" y="405" on="0"/>
        <pt x="730" y="465" on="1"/>
        <pt x="730" y="585" on="1"/>
        <pt x="730" y="645" on="0"/>
        <pt x="795" y="710" on="0"/>
        <pt x="855" y="710" on="1"/>
        <pt x="945" y="710" on="1"/>
        <pt x="1005" y="710" on="0"/>
        <pt x="1070" y="645" on="0"/>
        <pt x="1070" y="585" on="1"/>
      </contour>
      <contour>
        <pt x="950" y="585" on="1"/>
        <pt x="950" y="620" on="0"/>
        <pt x="915" y="620" on="1"/>
        <pt x="885" y="620" on="1"/>
        <pt x="850" y="620" on="0"/>
        <pt x="850" y="585" on="1"/>
        <pt x="850" y="465" on="1"/>
        <pt x="850" y="430" on="0"/>
        <pt x="885" y="430" on="1"/>
        <pt x="915" y="430" on="1"/>
        <pt x="950" y="430" on="0"/>
        <pt x="950" y="465" on="1"/>
      </contour>
    </TTGlyph>
    <TTGlyph name="agrave" xMin="25" yMin="-10" xMax="555" yMax="740">
      <component glyphName=".ttfautohint" x="25" y="0" flags="0x1000"/>
      <component glyphName="a" x="0" y="0" flags="0x1204"/>
      <component glyphName="grave" x="152" y="30" flags="0x1004"/>
    </TTGlyph>
    <TTGlyph name="amacron" xMin="25" yMin="-10" xMax="555" yMax="711">
      <component glyphName=".ttfautohint" x="25" y="0" flags="0x1000"/>
      <component glyphName="a" x="0" y="0" flags="0x1204"/>
      <component glyphName="macron" x="167" y="-74" flags="0x1004"/>
    </TTGlyph>
    <TTGlyph name="ampersand" xMin="30" yMin="-10" xMax="710" yMax="700">
      <contour>
        <pt x="630" y="10" on="1"/>
        <pt x="403" y="-10" on="0"/>
        <pt x="220" y="-10" on="1"/>
        <pt x="122" y="-10" on="0"/>
        <pt x="30" y="82" on="0"/>
        <pt x="30" y="180" on="1"/>
        <pt x="30" y="256" on="0"/>
        <pt x="68" y="306" on="1"/>
        <pt x="98" y="346" on="0"/>
        <pt x="150" y="360" on="1"/>
        <pt x="105" y="375" on="0"/>
        <pt x="50" y="450" on="0"/>
        <pt x="50" y="510" on="1"/>
        <pt x="50" y="520" on="1"/>
        <pt x="50" y="611" on="0"/>
        <pt x="142" y="700" on="0"/>
        <pt x="240" y="700" on="1"/>
        <pt x="560" y="700" on="1"/>
        <pt x="560" y="560" on="1"/>
        <pt x="290" y="560" on="1"/>
        <pt x="230" y="560" on="0"/>
        <pt x="230" y="500" on="1"/>
        <pt x="230" y="470" on="1"/>
        <pt x="230" y="410" on="0"/>
        <pt x="290" y="410" on="1"/>
        <pt x="450" y="410" on="1"/>
        <pt x="465" y="490" on="1"/>
        <pt x="630" y="490" on="1"/>
        <pt x="630" y="410" on="1"/>
        <pt x="710" y="410" on="1"/>
        <pt x="710" y="270" on="1"/>
        <pt x="630" y="270" on="1"/>
      </contour>
      <contour>
        <pt x="260" y="130" on="1"/>
        <pt x="370" y="130" on="0"/>
        <pt x="450" y="135" on="1"/>
        <pt x="450" y="270" on="1"/>
        <pt x="270" y="270" on="1"/>
        <pt x="210" y="270" on="0"/>
        <pt x="210" y="210" on="1"/>
        <pt x="210" y="180" on="1"/>
        <pt x="210" y="157" on="0"/>
        <pt x="237" y="130" on="0"/>
      </contour>
    </TTGlyph>
    <TTGlyph name="aogonek" xMin="25" yMin="-200" xMax="555" yMax="540">
      <component glyphName=".ttfautohint" x="25" y="0" flags="0x1000"/>
      <component glyphName="a" x="0" y="0" flags="0x1204"/>
      <component glyphName="ogonek" x="340" y="0" flags="0x1004"/>
    </TTGlyph>
    <TTGlyph name="aring" xMin="25" yMin="-10" xMax="555" yMax="765">
      <component glyphName=".ttfautohint" x="25" y="0" flags="0x1000"/>
      <component glyphName="a" x="0" y="0" flags="0x1204"/>
      <component glyphName="ring" x="437" y="-65" flags="0x1004"/>
    </TTGlyph>
    <TTGlyph name="asciicircum" xMin="0" yMin="400" xMax="510" yMax="700">
      <contour>
        <pt x="330" y="700" on="1"/>
        <pt x="510" y="400" on="1"/>
        <pt x="360" y="400" on="1"/>
        <pt x="255" y="580" on="1"/>
        <pt x="150" y="400" on="1"/>
        <pt x="0" y="400" on="1"/>
        <pt x="180" y="700" on="1"/>
      </contour>
    </TTGlyph>
    <TTGlyph name="asciitilde" xMin="10" yMin="245" xMax="491" yMax="455">
      <contour>
        <pt x="175" y="305" on="1"/>
        <pt x="129" y="305" on="0"/>
        <pt x="85" y="250" on="1"/>
        <pt x="10" y="330" on="1"/>
        <pt x="36" y="395" on="0"/>
        <pt x="94" y="435" on="1"/>
        <pt x="123" y="455" on="0"/>
        <pt x="197" y="455" on="0"/>
        <pt x="238" y="436" on="0"/>
        <pt x="271" y="414" on="0"/>
        <pt x="302" y="395" on="0"/>
        <pt x="325" y="395" on="1"/>
        <pt x="371" y="395" on="0"/>
        <pt x="416" y="450" on="1"/>
        <pt x="491" y="370" on="1"/>
        <pt x="463" y="303" on="0"/>
        <pt x="406" y="264" on="1"/>
        <pt x="377" y="245" on="0"/>
        <pt x="303" y="245" on="0"/>
        <pt x="262" y="264" on="0"/>
        <pt x="229" y="286" on="0"/>
        <pt x="197" y="305" on="0"/>
      </contour>
    </TTGlyph>
    <TTGlyph name="asterisk" xMin="10" yMin="240" xMax="485" yMax="700">
      <contour>
        <pt x="310" y="365" on="1"/>
        <pt x="310" y="240" on="1"/>
        <pt x="185" y="240" on="1"/>
        <pt x="185" y="365" on="1"/>
        <pt x="70" y="300" on="1"/>
        <pt x="10" y="400" on="1"/>
        <pt x="130" y="470" on="1"/>
        <pt x="10" y="540" on="1"/>
        <pt x="70" y="640" on="1"/>
        <pt x="185" y="575" on="1"/>
        <pt x="185" y="700" on="1"/>
        <pt x="310" y="700" on="1"/>
        <pt x="310" y="575" on="1"/>
        <pt x="425" y="640" on="1"/>
        <pt x="485" y="540" on="1"/>
        <pt x="365" y="470" on="1"/>
        <pt x="485" y="400" on="1"/>
        <pt x="425" y="300" on="1"/>
      </contour>
    </TTGlyph>
    <TTGlyph name="at" xMin="40" yMin="-10" xMax="740" yMax="710">
      <contour>
        <pt x="650" y="10" on="1"/>
        <pt x="437" y="-10" on="0"/>
        <pt x="260" y="-10" on="1"/>
        <pt x="154" y="-10" on="0"/>
        <pt x="40" y="104" on="0"/>
        <pt x="40" y="210" on="1"/>
        <pt x="40" y="490" on="1"/>
        <pt x="40" y="596" on="0"/>
        <pt x="154" y="710" on="0"/>
        <pt x="260" y="710" on="1"/>
        <pt x="580" y="710" on="1"/>
        <pt x="655" y="710" on="0"/>
        <pt x="740" y="625" on="0"/>
        <pt x="740" y="550" on="1"/>
        <pt x="740" y="180" on="1"/>
        <pt x="600" y="180" on="1"/>
        <pt x="590" y="230" on="1"/>
        <pt x="546" y="199" on="0"/>
        <pt x="460" y="170" on="0"/>
        <pt x="430" y="170" on="1"/>
        <pt x="410" y="170" on="1"/>
        <pt x="342" y="170" on="0"/>
        <pt x="260" y="252" on="0"/>
        <pt x="260" y="320" on="1"/>
        <pt x="260" y="355" on="1"/>
        <pt x="260" y="423" on="0"/>
        <pt x="342" y="505" on="0"/>
        <pt x="410" y="505" on="1"/>
        <pt x="580" y="505" on="1"/>
        <pt x="580" y="535" on="1"/>
        <pt x="580" y="554" on="0"/>
        <pt x="554" y="580" on="0"/>
        <pt x="535" y="580" on="1"/>
        <pt x="270" y="580" on="1"/>
        <pt x="240" y="580" on="0"/>
        <pt x="200" y="540" on="0"/>
        <pt x="200" y="510" on="1"/>
        <pt x="200" y="190" on="1"/>
        <pt x="200" y="160" on="0"/>
        <pt x="240" y="120" on="0"/>
        <pt x="270" y="120" on="1"/>
        <pt x="399" y="120" on="0"/>
        <pt x="650" y="135" on="1"/>
      </contour>
      <contour>
        <pt x="480" y="305" on="1"/>
        <pt x="523" y="305" on="0"/>
        <pt x="580" y="325" on="1"/>
        <pt x="580" y="380" on="1"/>
        <pt x="465" y="380" on="1"/>
        <pt x="450" y="380" on="0"/>
        <pt x="430" y="360" on="0"/>
        <pt x="430" y="345" on="1"/>
        <pt x="430" y="340" on="1"/>
        <pt x="430" y="325" on="0"/>
        <pt x="450" y="305" on="0"/>
        <pt x="465" y="305" on="1"/>
      </contour>
    </TTGlyph>
    <TTGlyph name="atilde" xMin="25" yMin="-10" xMax="555" yMax="736">
      <component glyphName=".ttfautohint" x="25" y="0" flags="0x1000"/>
      <component glyphName="a" x="0" y="0" flags="0x1204"/>
      <component glyphName="tilde" x="142" y="-79" flags="0x1004"/>
    </TTGlyph>
    <TTGlyph name="b" xMin="50" yMin="0" xMax="580" yMax="700">
      <contour>
        <pt x="405" y="370" on="1"/>
        <pt x="405" y="385" on="0"/>
        <pt x="385" y="405" on="0"/>
        <pt x="370" y="405" on="1"/>
        <pt x="345" y="405" on="1"/>
        <pt x="303" y="405" on="0"/>
        <pt x="242" y="397" on="0"/>
        <pt x="225" y="395" on="1"/>
        <pt x="225" y="135" on="1"/>
        <pt x="365" y="135" on="1"/>
        <pt x="405" y="135" on="0"/>
        <pt x="405" y="175" on="1"/>
      </contour>
      <contour>
        <pt x="225" y="520" on="1"/>
        <pt x="322" y="540" on="0"/>
        <pt x="395" y="540" on="1"/>
        <pt x="430" y="540" on="1"/>
        <pt x="498" y="540" on="0"/>
        <pt x="580" y="458" on="0"/>
        <pt x="580" y="390" on="1"/>
        <pt x="580" y="160" on="1"/>
        <pt x="580" y="85" on="0"/>
        <pt x="495" y="0" on="0"/>
        <pt x="420" y="0" on="1"/>
        <pt x="50" y="0" on="1"/>
        <pt x="50" y="700" on="1"/>
        <pt x="225" y="700" on="1"/>
      </contour>
    </TTGlyph>
    <TTGlyph name="backslash" xMin="0" yMin="0" xMax="470" yMax="700">
      <contour>
        <pt x="290" y="0" on="1"/>
        <pt x="0" y="700" on="1"/>
        <pt x="170" y="700" on="1"/>
        <pt x="470" y="0" on="1"/>
      </contour>
    </TTGlyph>
    <TTGlyph name="bar" xMin="60" yMin="-170" xMax="240" yMax="700">
      <contour>
        <pt x="240" y="-170" on="1"/>
        <pt x="60" y="-170" on="1"/>
        <pt x="60" y="700" on="1"/>
        <pt x="240" y="700" on="1"/>
      </contour>
    </TTGlyph>
    <TTGlyph name="braceleft" xMin="10" yMin="-210" xMax="370" yMax="800">
      <contour>
        <pt x="180" y="295" on="1"/>
        <pt x="270" y="257" on="0"/>
        <pt x="270" y="170" on="1"/>
        <pt x="270" y="-35" on="1"/>
        <pt x="270" y="-50" on="0"/>
        <pt x="290" y="-70" on="0"/>
        <pt x="305" y="-70" on="1"/>
        <pt x="370" y="-70" on="1"/>
        <pt x="370" y="-210" on="1"/>
        <pt x="240" y="-210" on="1"/>
        <pt x="172" y="-210" on="0"/>
        <pt x="90" y="-128" on="0"/>
        <pt x="90" y="-60" on="1"/>
        <pt x="90" y="190" on="1"/>
        <pt x="90" y="205" on="0"/>
        <pt x="70" y="225" on="0"/>
        <pt x="55" y="225" on="1"/>
        <pt x="10" y="225" on="1"/>
        <pt x="10" y="365" on="1"/>
        <pt x="55" y="365" on="1"/>
        <pt x="70" y="365" on="0"/>
        <pt x="90" y="385" on="0"/>
        <pt x="90" y="400" on="1"/>
        <pt x="90" y="650" on="1"/>
        <pt x="90" y="718" on="0"/>
        <pt x="172" y="800" on="0"/>
        <pt x="240" y="800" on="1"/>
        <pt x="370" y="800" on="1"/>
        <pt x="370" y="660" on="1"/>
        <pt x="305" y="660" on="1"/>
        <pt x="290" y="660" on="0"/>
        <pt x="270" y="640" on="0"/>
        <pt x="270" y="625" on="1"/>
        <pt x="270" y="420" on="1"/>
        <pt x="270" y="333" on="0"/>
      </contour>
    </TTGlyph>
    <TTGlyph name="braceright" xMin="0" yMin="-210" xMax="360" yMax="800">
      <contour>
        <pt x="190" y="295" on="1"/>
        <pt x="100" y="333" on="0"/>
        <pt x="100" y="420" on="1"/>
        <pt x="100" y="625" on="1"/>
        <pt x="100" y="640" on="0"/>
        <pt x="80" y="660" on="0"/>
        <pt x="65" y="660" on="1"/>
        <pt x="0" y="660" on="1"/>
        <pt x="0" y="800" on="1"/>
        <pt x="130" y="800" on="1"/>
        <pt x="198" y="800" on="0"/>
        <pt x="280" y="718" on="0"/>
        <pt x="280" y="650" on="1"/>
        <pt x="280" y="400" on="1"/>
        <pt x="280" y="385" on="0"/>
        <pt x="300" y="365" on="0"/>
        <pt x="315" y="365" on="1"/>
        <pt x="360" y="365" on="1"/>
        <pt x="360" y="225" on="1"/>
        <pt x="315" y="225" on="1"/>
        <pt x="300" y="225" on="0"/>
        <pt x="280" y="205" on="0"/>
        <pt x="280" y="190" on="1"/>
        <pt x="280" y="-60" on="1"/>
        <pt x="280" y="-128" on="0"/>
        <pt x="198" y="-210" on="0"/>
        <pt x="130" y="-210" on="1"/>
        <pt x="0" y="-210" on="1"/>
        <pt x="0" y="-70" on="1"/>
        <pt x="65" y="-70" on="1"/>
        <pt x="80" y="-70" on="0"/>
        <pt x="100" y="-50" on="0"/>
        <pt x="100" y="-35" on="1"/>
        <pt x="100" y="170" on="1"/>
        <pt x="100" y="257" on="0"/>
      </contour>
    </TTGlyph>
    <TTGlyph name="bracketleft" xMin="60" yMin="-210" xMax="360" yMax="800">
      <contour>
        <pt x="60" y="800" on="1"/>
        <pt x="360" y="800" on="1"/>
        <pt x="360" y="660" on="1"/>
        <pt x="240" y="660" on="1"/>
        <pt x="240" y="-70" on="1"/>
        <pt x="360" y="-70" on="1"/>
        <pt x="360" y="-210" on="1"/>
        <pt x="60" y="-210" on="1"/>
      </contour>
    </TTGlyph>
    <TTGlyph name="bracketright" xMin="0" yMin="-210" xMax="300" yMax="800">
      <contour>
        <pt x="300" y="-210" on="1"/>
        <pt x="0" y="-210" on="1"/>
        <pt x="0" y="-70" on="1"/>
        <pt x="120" y="-70" on="1"/>
        <pt x="120" y="660" on="1"/>
        <pt x="0" y="660" on="1"/>
        <pt x="0" y="800" on="1"/>
        <pt x="300" y="800" on="1"/>
      </contour>
    </TTGlyph>
    <TTGlyph name="breve" xMin="0" yMin="655" xMax="360" yMax="815">
      <contour>
        <pt x="130" y="655" on="1"/>
        <pt x="0" y="655" on="0"/>
        <pt x="0" y="785" on="1"/>
        <pt x="0" y="815" on="1"/>
        <pt x="130" y="815" on="1"/>
        <pt x="130" y="790" on="1"/>
        <pt x="130" y="775" on="0"/>
        <pt x="150" y="755" on="0"/>
        <pt x="165" y="755" on="1"/>
        <pt x="195" y="755" on="1"/>
        <pt x="210" y="755" on="0"/>
        <pt x="230" y="775" on="0"/>
        <pt x="230" y="790" on="1"/>
        <pt x="230" y="815" on="1"/>
        <pt x="360" y="815" on="1"/>
        <pt x="360" y="785" on="1"/>
        <pt x="360" y="655" on="0"/>
        <pt x="230" y="655" on="1"/>
      </contour>
    </TTGlyph>
    <TTGlyph name="brokenbar" xMin="60" yMin="-170" xMax="240" yMax="700">
      <contour>
        <pt x="240" y="330" on="1"/>
        <pt x="60" y="330" on="1"/>
        <pt x="60" y="700" on="1"/>
        <pt x="240" y="700" on="1"/>
      </contour>
      <contour>
        <pt x="60" y="-170" on="1"/>
        <pt x="60" y="200" on="1"/>
        <pt x="240" y="200" on="1"/>
        <pt x="240" y="-170" on="1"/>
      </contour>
    </TTGlyph>
    <TTGlyph name="bullet" xMin="50" yMin="220" xMax="310" yMax="480">
      <contour>
        <pt x="200" y="480" on="1"/>
        <pt x="249" y="480" on="0"/>
        <pt x="310" y="419" on="0"/>
        <pt x="310" y="370" on="1"/>
        <pt x="310" y="330" on="1"/>
        <pt x="310" y="281" on="0"/>
        <pt x="249" y="220" on="0"/>
        <pt x="200" y="220" on="1"/>
        <pt x="160" y="220" on="1"/>
        <pt x="111" y="220" on="0"/>
        <pt x="50" y="281" on="0"/>
        <pt x="50" y="330" on="1"/>
        <pt x="50" y="370" on="1"/>
        <pt x="50" y="419" on="0"/>
        <pt x="111" y="480" on="0"/>
        <pt x="160" y="480" on="1"/>
      </contour>
    </TTGlyph>
    <TTGlyph name="c" xMin="40" yMin="-10" xMax="520" yMax="530">
      <contour>
        <pt x="520" y="10" on="1"/>
        <pt x="333" y="-10" on="0"/>
        <pt x="190" y="-10" on="1"/>
        <pt x="122" y="-10" on="0"/>
        <pt x="40" y="72" on="0"/>
        <pt x="40" y="140" on="1"/>
        <pt x="40" y="370" on="1"/>
        <pt x="40" y="445" on="0"/>
        <pt x="125" y="530" on="0"/>
        <pt x="200" y="530" on="1"/>
        <pt x="520" y="530" on="1"/>
        <pt x="520" y="395" on="1"/>
        <pt x="255" y="395" on="1"/>
        <pt x="215" y="395" on="0"/>
        <pt x="215" y="355" on="1"/>
        <pt x="215" y="160" on="1"/>
        <pt x="215" y="145" on="0"/>
        <pt x="235" y="125" on="0"/>
        <pt x="250" y="125" on="1"/>
        <pt x="340" y="125" on="0"/>
        <pt x="520" y="140" on="1"/>
      </contour>
    </TTGlyph>
    <TTGlyph name="cacute" xMin="40" yMin="-10" xMax="520" yMax="740">
      <component glyphName=".ttfautohint" x="40" y="0" flags="0x1000"/>
      <component glyphName="c" x="0" y="0" flags="0x1204"/>
      <component glyphName="acute" x="205" y="-65" flags="0x1004"/>
    </TTGlyph>
    <TTGlyph name="caron" xMin="0" yMin="635" xMax="380" yMax="805">
      <contour>
        <pt x="125" y="805" on="1"/>
        <pt x="190" y="725" on="1"/>
        <pt x="255" y="805" on="1"/>
        <pt x="380" y="805" on="1"/>
        <pt x="260" y="635" on="1"/>
        <pt x="120" y="635" on="1"/>
        <pt x="0" y="805" on="1"/>
      </contour>
    </TTGlyph>
    <TTGlyph name="ccaron" xMin="40" yMin="-10" xMax="520" yMax="740">
      <component glyphName=".ttfautohint" x="40" y="0" flags="0x1000"/>
      <component glyphName="c" x="0" y="0" flags="0x1204"/>
      <component glyphName="caron" x="105" y="-65" flags="0x1004"/>
    </TTGlyph>
    <TTGlyph name="ccedilla" xMin="40" yMin="-200" xMax="520" yMax="530">
      <component glyphName=".ttfautohint" x="40" y="0" flags="0x1000"/>
      <component glyphName="c" x="0" y="0" flags="0x1204"/>
      <component glyphName="cedilla" x="205" y="0" flags="0x1004"/>
    </TTGlyph>
    <TTGlyph name="cedilla" xMin="0" yMin="-200" xMax="220" yMax="20">
      <contour>
        <pt x="110" y="20" on="1"/>
        <pt x="110" y="-20" on="1"/>
        <pt x="120" y="-20" on="1"/>
        <pt x="169" y="-20" on="0"/>
        <pt x="220" y="-68" on="0"/>
        <pt x="220" y="-110" on="1"/>
        <pt x="220" y="-152" on="0"/>
        <pt x="169" y="-200" on="0"/>
        <pt x="120" y="-200" on="1"/>
        <pt x="0" y="-200" on="1"/>
        <pt x="0" y="-135" on="1"/>
        <pt x="100" y="-135" on="1"/>
        <pt x="135" y="-135" on="0"/>
        <pt x="135" y="-110" on="1"/>
        <pt x="135" y="-85" on="0"/>
        <pt x="100" y="-85" on="1"/>
        <pt x="25" y="-85" on="1"/>
        <pt x="25" y="20" on="1"/>
      </contour>
    </TTGlyph>
    <TTGlyph name="cent" xMin="40" yMin="-90" xMax="520" yMax="620">
      <contour>
        <pt x="520" y="10" on="1"/>
        <pt x="455" y="3" on="0"/>
        <pt x="370" y="-2" on="1"/>
        <pt x="380" y="-90" on="1"/>
        <pt x="230" y="-90" on="1"/>
        <pt x="239" y="-9" on="1"/>
        <pt x="226" y="-10" on="0"/>
        <pt x="214" y="-10" on="1"/>
        <pt x="190" y="-10" on="1"/>
        <pt x="122" y="-10" on="0"/>
        <pt x="40" y="72" on="0"/>
        <pt x="40" y="140" on="1"/>
        <pt x="40" y="370" on="1"/>
        <pt x="40" y="445" on="0"/>
        <pt x="125" y="530" on="0"/>
        <pt x="200" y="530" on="1"/>
        <pt x="240" y="530" on="1"/>
        <pt x="230" y="620" on="1"/>
        <pt x="380" y="620" on="1"/>
        <pt x="370" y="530" on="1"/>
        <pt x="520" y="530" on="1"/>
        <pt x="520" y="395" on="1"/>
        <pt x="255" y="395" on="1"/>
        <pt x="215" y="395" on="0"/>
        <pt x="215" y="355" on="1"/>
        <pt x="215" y="160" on="1"/>
        <pt x="215" y="145" on="0"/>
        <pt x="235" y="125" on="0"/>
        <pt x="250" y="125" on="1"/>
        <pt x="340" y="125" on="0"/>
        <pt x="520" y="140" on="1"/>
      </contour>
    </TTGlyph>
    <TTGlyph name="circumflex" xMin="0" yMin="635" xMax="380" yMax="805">
      <contour>
        <pt x="0" y="635" on="1"/>
        <pt x="120" y="805" on="1"/>
        <pt x="260" y="805" on="1"/>
        <pt x="380" y="635" on="1"/>
        <pt x="255" y="635" on="1"/>
        <pt x="190" y="715" on="1"/>
        <pt x="125" y="635" on="1"/>
      </contour>
    </TTGlyph>
    <TTGlyph name="colon" xMin="30" yMin="0" xMax="210" yMax="530">
      <contour>
        <pt x="30" y="150" on="1"/>
        <pt x="210" y="150" on="1"/>
        <pt x="210" y="0" on="1"/>
        <pt x="30" y="0" on="1"/>
      </contour>
      <contour>
        <pt x="30" y="530" on="1"/>
        <pt x="210" y="530" on="1"/>
        <pt x="210" y="380" on="1"/>
        <pt x="30" y="380" on="1"/>
      </contour>
    </TTGlyph>
    <TTGlyph name="comma" xMin="30" yMin="-100" xMax="210" yMax="150">
      <contour>
        <pt x="30" y="150" on="1"/>
        <pt x="210" y="150" on="1"/>
        <pt x="210" y="10" on="1"/>
        <pt x="140" y="-100" on="1"/>
        <pt x="50" y="-100" on="1"/>
        <pt x="90" y="0" on="1"/>
        <pt x="30" y="0" on="1"/>
      </contour>
    </TTGlyph>
    <TTGlyph name="commaaccent" xMin="0" yMin="-270" xMax="170" yMax="-30">
      <contour>
        <pt x="0" y="-30" on="1"/>
        <pt x="170" y="-30" on="1"/>
        <pt x="170" y="-160" on="1"/>
        <pt x="100" y="-270" on="1"/>
        <pt x="20" y="-270" on="1"/>
        <pt x="60" y="-170" on="1"/>
        <pt x="0" y="-170" on="1"/>
      </contour>
    </TTGlyph>
    <TTGlyph name="copyright" xMin="20" yMin="-10" xMax="830" yMax="710">
      <contour>
        <pt x="20" y="490" on="1"/>
        <pt x="20" y="596" on="0"/>
        <pt x="134" y="710" on="0"/>
        <pt x="240" y="710" on="1"/>
        <pt x="610" y="710" on="1"/>
        <pt x="716" y="710" on="0"/>
        <pt x="830" y="596" on="0"/>
        <pt x="830" y="490" on="1"/>
        <pt x="830" y="210" on="1"/>
        <pt x="830" y="104" on="0"/>
        <pt x="716" y="-10" on="0"/>
        <pt x="610" y="-10" on="1"/>
        <pt x="240" y="-10" on="1"/>
        <pt x="134" y="-10" on="0"/>
        <pt x="20" y="104" on="0"/>
        <pt x="20" y="210" on="1"/>
      </contour>
      <contour>
        <pt x="680" y="520" on="1"/>
        <pt x="680" y="550" on="0"/>
        <pt x="640" y="590" on="0"/>
        <pt x="610" y="590" on="1"/>
        <pt x="240" y="590" on="1"/>
        <pt x="210" y="590" on="0"/>
        <pt x="170" y="550" on="0"/>
        <pt x="170" y="520" on="1"/>
        <pt x="170" y="180" on="1"/>
        <pt x="170" y="150" on="0"/>
        <pt x="210" y="110" on="0"/>
        <pt x="240" y="110" on="1"/>
        <pt x="610" y="110" on="1"/>
        <pt x="640" y="110" on="0"/>
        <pt x="680" y="150" on="0"/>
        <pt x="680" y="180" on="1"/>
      </contour>
      <contour>
        <pt x="415" y="255" on="1"/>
        <pt x="482" y="255" on="0"/>
        <pt x="595" y="270" on="1"/>
        <pt x="595" y="170" on="1"/>
        <pt x="464" y="155" on="0"/>
        <pt x="365" y="155" on="1"/>
        <pt x="308" y="155" on="0"/>
        <pt x="245" y="218" on="0"/>
        <pt x="245" y="275" on="1"/>
        <pt x="245" y="410" on="1"/>
        <pt x="245" y="470" on="0"/>
        <pt x="310" y="535" on="0"/>
        <pt x="370" y="535" on="1"/>
        <pt x="595" y="535" on="1"/>
        <pt x="595" y="435" on="1"/>
        <pt x="420" y="435" on="1"/>
        <pt x="385" y="435" on="0"/>
        <pt x="385" y="400" on="1"/>
        <pt x="385" y="285" on="1"/>
        <pt x="385" y="255" on="0"/>
      </contour>
    </TTGlyph>
    <TTGlyph name="currency" xMin="10" yMin="0" xMax="700" yMax="700">
      <contour>
        <pt x="260" y="0" on="1"/>
        <pt x="80" y="0" on="1"/>
        <pt x="80" y="110" on="1"/>
        <pt x="10" y="110" on="1"/>
        <pt x="20" y="215" on="1"/>
        <pt x="80" y="215" on="1"/>
        <pt x="80" y="255" on="1"/>
        <pt x="10" y="255" on="1"/>
        <pt x="20" y="364" on="1"/>
        <pt x="80" y="364" on="1"/>
        <pt x="80" y="700" on="1"/>
        <pt x="500" y="700" on="1"/>
        <pt x="605" y="700" on="0"/>
        <pt x="700" y="605" on="0"/>
        <pt x="700" y="500" on="1"/>
        <pt x="700" y="460" on="1"/>
        <pt x="700" y="354" on="0"/>
        <pt x="606" y="255" on="0"/>
        <pt x="500" y="255" on="1"/>
        <pt x="260" y="255" on="1"/>
        <pt x="260" y="215" on="1"/>
        <pt x="520" y="215" on="1"/>
        <pt x="520" y="110" on="1"/>
        <pt x="260" y="110" on="1"/>
      </contour>
      <contour>
        <pt x="520" y="500" on="1"/>
        <pt x="520" y="560" on="0"/>
        <pt x="460" y="560" on="1"/>
        <pt x="260" y="560" on="1"/>
        <pt x="260" y="360" on="1"/>
        <pt x="460" y="360" on="1"/>
        <pt x="520" y="360" on="0"/>
        <pt x="520" y="420" on="1"/>
      </contour>
    </TTGlyph>
    <TTGlyph name="d" xMin="40" yMin="-10" xMax="580" yMax="700">
      <contour>
        <pt x="425" y="0" on="1"/>
        <pt x="415" y="50" on="1"/>
        <pt x="368" y="19" on="0"/>
        <pt x="269" y="-10" on="0"/>
        <pt x="235" y="-10" on="1"/>
        <pt x="190" y="-10" on="1"/>
        <pt x="122" y="-10" on="0"/>
        <pt x="40" y="72" on="0"/>
        <pt x="40" y="140" on="1"/>
        <pt x="40" y="370" on="1"/>
        <pt x="40" y="445" on="0"/>
        <pt x="125" y="530" on="0"/>
        <pt x="200" y="530" on="1"/>
        <pt x="405" y="530" on="1"/>
        <pt x="405" y="700" on="1"/>
        <pt x="580" y="700" on="1"/>
        <pt x="580" y="0" on="1"/>
      </contour>
      <contour>
        <pt x="285" y="135" on="1"/>
        <pt x="338" y="135" on="0"/>
        <pt x="405" y="155" on="1"/>
        <pt x="405" y="395" on="1"/>
        <pt x="255" y="395" on="1"/>
        <pt x="215" y="395" on="0"/>
        <pt x="215" y="355" on="1"/>
        <pt x="215" y="170" on="1"/>
        <pt x="215" y="155" on="0"/>
        <pt x="235" y="135" on="0"/>
        <pt x="250" y="135" on="1"/>
      </contour>
    </TTGlyph>
    <TTGlyph name="dagger" xMin="20" yMin="-170" xMax="570" yMax="700">
      <contour>
        <pt x="570" y="480" on="1"/>
        <pt x="570" y="340" on="1"/>
        <pt x="390" y="340" on="1"/>
        <pt x="390" y="-170" on="1"/>
        <pt x="210" y="-170" on="1"/>
        <pt x="210" y="340" on="1"/>
        <pt x="20" y="340" on="1"/>
        <pt x="20" y="480" on="1"/>
        <pt x="210" y="480" on="1"/>
        <pt x="210" y="700" on="1"/>
        <pt x="390" y="700" on="1"/>
        <pt x="390" y="480" on="1"/>
      </contour>
    </TTGlyph>
    <TTGlyph name="daggerdbl" xMin="20" yMin="-170" xMax="550" yMax="700">
      <contour>
        <pt x="380" y="10" on="1"/>
        <pt x="380" y="-170" on="1"/>
        <pt x="200" y="-170" on="1"/>
        <pt x="200" y="10" on="1"/>
        <pt x="20" y="10" on="1"/>
        <pt x="20" y="150" on="1"/>
        <pt x="200" y="150" on="1"/>
        <pt x="200" y="380" on="1"/>
        <pt x="20" y="380" on="1"/>
        <pt x="20" y="520" on="1"/>
        <pt x="200" y="520" on="1"/>
        <pt x="200" y="700" on="1"/>
        <pt x="380" y="700" on="1"/>
        <pt x="380" y="520" on="1"/>
        <pt x="550" y="520" on="1"/>
        <pt x="550" y="380" on="1"/>
        <pt x="380" y="380" on="1"/>
        <pt x="380" y="150" on="1"/>
        <pt x="550" y="150" on="1"/>
        <pt x="550" y="10" on="1"/>
      </contour>
    </TTGlyph>
    <TTGlyph name="dcaron" xMin="40" yMin="-10" xMax="800" yMax="700">
      <contour>
        <pt x="630" y="700" on="1"/>
        <pt x="800" y="700" on="1"/>
        <pt x="800" y="570" on="1"/>
        <pt x="730" y="460" on="1"/>
        <pt x="650" y="460" on="1"/>
        <pt x="690" y="560" on="1"/>
        <pt x="630" y="560" on="1"/>
      </contour>
      <contour>
        <pt x="425" y="0" on="1"/>
        <pt x="415" y="50" on="1"/>
        <pt x="368" y="19" on="0"/>
        <pt x="269" y="-10" on="0"/>
        <pt x="235" y="-10" on="1"/>
        <pt x="190" y="-10" on="1"/>
        <pt x="122" y="-10" on="0"/>
        <pt x="40" y="72" on="0"/>
        <pt x="40" y="140" on="1"/>
        <pt x="40" y="370" on="1"/>
        <pt x="40" y="445" on="0"/>
        <pt x="125" y="530" on="0"/>
        <pt x="200" y="530" on="1"/>
        <pt x="405" y="530" on="1"/>
        <pt x="405" y="700" on="1"/>
        <pt x="580" y="700" on="1"/>
        <pt x="580" y="0" on="1"/>
      </contour>
      <contour>
        <pt x="285" y="135" on="1"/>
        <pt x="338" y="135" on="0"/>
        <pt x="405" y="155" on="1"/>
        <pt x="405" y="395" on="1"/>
        <pt x="255" y="395" on="1"/>
        <pt x="215" y="395" on="0"/>
        <pt x="215" y="355" on="1"/>
        <pt x="215" y="170" on="1"/>
        <pt x="215" y="155" on="0"/>
        <pt x="235" y="135" on="0"/>
        <pt x="250" y="135" on="1"/>
      </contour>
    </TTGlyph>
    <TTGlyph name="dcroat" xMin="40" yMin="-10" xMax="640" yMax="700">
      <contour>
        <pt x="425" y="0" on="1"/>
        <pt x="415" y="50" on="1"/>
        <pt x="368" y="19" on="0"/>
        <pt x="269" y="-10" on="0"/>
        <pt x="235" y="-10" on="1"/>
        <pt x="190" y="-10" on="1"/>
        <pt x="122" y="-10" on="0"/>
        <pt x="40" y="72" on="0"/>
        <pt x="40" y="140" on="1"/>
        <pt x="40" y="290" on="1"/>
        <pt x="40" y="365" on="0"/>
        <pt x="125" y="450" on="0"/>
        <pt x="200" y="450" on="1"/>
        <pt x="405" y="450" on="1"/>
        <pt x="405" y="495" on="1"/>
        <pt x="280" y="495" on="1"/>
        <pt x="280" y="620" on="1"/>
        <pt x="405" y="620" on="1"/>
        <pt x="405" y="700" on="1"/>
        <pt x="560" y="700" on="1"/>
        <pt x="580" y="620" on="1"/>
        <pt x="640" y="620" on="1"/>
        <pt x="640" y="495" on="1"/>
        <pt x="580" y="495" on="1"/>
        <pt x="580" y="0" on="1"/>
      </contour>
      <contour>
        <pt x="285" y="135" on="1"/>
        <pt x="338" y="135" on="0"/>
        <pt x="405" y="155" on="1"/>
        <pt x="405" y="315" on="1"/>
        <pt x="255" y="315" on="1"/>
        <pt x="215" y="315" on="0"/>
        <pt x="215" y="275" on="1"/>
        <pt x="215" y="170" on="1"/>
        <pt x="215" y="155" on="0"/>
        <pt x="235" y="135" on="0"/>
        <pt x="250" y="135" on="1"/>
      </contour>
    </TTGlyph>
    <TTGlyph name="degree" xMin="20" yMin="340" xMax="370" yMax="710">
      <contour>
        <pt x="370" y="465" on="1"/>
        <pt x="370" y="405" on="0"/>
        <pt x="305" y="340" on="0"/>
        <pt x="245" y="340" on="1"/>
        <pt x="145" y="340" on="1"/>
        <pt x="85" y="340" on="0"/>
        <pt x="20" y="405" on="0"/>
        <pt x="20" y="465" on="1"/>
        <pt x="20" y="585" on="1"/>
        <pt x="20" y="645" on="0"/>
        <pt x="85" y="710" on="0"/>
        <pt x="145" y="710" on="1"/>
        <pt x="245" y="710" on="1"/>
        <pt x="305" y="710" on="0"/>
        <pt x="370" y="645" on="0"/>
        <pt x="370" y="585" on="1"/>
      </contour>
      <contour>
        <pt x="250" y="585" on="1"/>
        <pt x="250" y="620" on="0"/>
        <pt x="215" y="620" on="1"/>
        <pt x="175" y="620" on="1"/>
        <pt x="140" y="620" on="0"/>
        <pt x="140" y="585" on="1"/>
        <pt x="140" y="465" on="1"/>
        <pt x="140" y="430" on="0"/>
        <pt x="175" y="430" on="1"/>
        <pt x="215" y="430" on="1"/>
        <pt x="250" y="430" on="0"/>
        <pt x="250" y="465" on="1"/>
      </contour>
    </TTGlyph>
    <TTGlyph name="dieresis" xMin="0" yMin="665" xMax="400" yMax="805">
      <contour>
        <pt x="230" y="805" on="1"/>
        <pt x="400" y="805" on="1"/>
        <pt x="400" y="665" on="1"/>
        <pt x="230" y="665" on="1"/>
      </contour>
      <contour>
        <pt x="0" y="805" on="1"/>
        <pt x="170" y="805" on="1"/>
        <pt x="170" y="665" on="1"/>
        <pt x="0" y="665" on="1"/>
      </contour>
    </TTGlyph>
    <TTGlyph name="divide" xMin="30" yMin="90" xMax="510" yMax="610">
      <contour>
        <pt x="510" y="420" on="1"/>
        <pt x="510" y="280" on="1"/>
        <pt x="30" y="280" on="1"/>
        <pt x="30" y="420" on="1"/>
      </contour>
      <contour>
        <pt x="190" y="230" on="1"/>
        <pt x="350" y="230" on="1"/>
        <pt x="350" y="90" on="1"/>
        <pt x="190" y="90" on="1"/>
      </contour>
      <contour>
        <pt x="190" y="610" on="1"/>
        <pt x="350" y="610" on="1"/>
        <pt x="350" y="470" on="1"/>
        <pt x="190" y="470" on="1"/>
      </contour>
    </TTGlyph>
    <TTGlyph name="dollar" xMin="30" yMin="-100" xMax="599" yMax="790">
      <contour>
        <pt x="39" y="145" on="1"/>
        <pt x="271" y="130" on="0"/>
        <pt x="369" y="130" on="1"/>
        <pt x="392" y="130" on="0"/>
        <pt x="419" y="157" on="0"/>
        <pt x="419" y="180" on="1"/>
        <pt x="419" y="280" on="1"/>
        <pt x="230" y="280" on="1"/>
        <pt x="125" y="280" on="0"/>
        <pt x="30" y="375" on="0"/>
        <pt x="30" y="480" on="1"/>
        <pt x="30" y="500" on="1"/>
        <pt x="30" y="605" on="0"/>
        <pt x="125" y="700" on="0"/>
        <pt x="230" y="700" on="1"/>
        <pt x="250" y="700" on="1"/>
        <pt x="240" y="790" on="1"/>
        <pt x="390" y="790" on="1"/>
        <pt x="380" y="700" on="1"/>
        <pt x="540" y="700" on="1"/>
        <pt x="540" y="560" on="1"/>
        <pt x="270" y="560" on="1"/>
        <pt x="210" y="560" on="0"/>
        <pt x="210" y="500" on="1"/>
        <pt x="210" y="480" on="1"/>
        <pt x="210" y="420" on="0"/>
        <pt x="270" y="420" on="1"/>
        <pt x="409" y="420" on="1"/>
        <pt x="507" y="420" on="0"/>
        <pt x="599" y="328" on="0"/>
        <pt x="599" y="230" on="1"/>
        <pt x="599" y="180" on="1"/>
        <pt x="599" y="82" on="0"/>
        <pt x="508" y="-10" on="0"/>
        <pt x="410" y="-10" on="1"/>
        <pt x="382" y="-10" on="1"/>
        <pt x="390" y="-100" on="1"/>
        <pt x="240" y="-100" on="1"/>
        <pt x="250" y="-5" on="1"/>
        <pt x="134" y="1" on="0"/>
        <pt x="39" y="10" on="1"/>
      </contour>
    </TTGlyph>
    <TTGlyph name="dotaccent" xMin="0" yMin="665" xMax="170" yMax="805">
      <contour>
        <pt x="0" y="805" on="1"/>
        <pt x="170" y="805" on="1"/>
        <pt x="170" y="665" on="1"/>
        <pt x="0" y="665" on="1"/>
      </contour>
    </TTGlyph>
    <TTGlyph name="dotlessi" xMin="20" yMin="0" xMax="270" yMax="530">
      <contour>
        <pt x="270" y="530" on="1"/>
        <pt x="270" y="0" on="1"/>
        <pt x="95" y="0" on="1"/>
        <pt x="95" y="395" on="1"/>
        <pt x="20" y="395" on="1"/>
        <pt x="20" y="530" on="1"/>
      </contour>
    </TTGlyph>
    <TTGlyph name="e" xMin="40" yMin="-10" xMax="560" yMax="540">
      <contour>
        <pt x="255" y="415" on="1"/>
        <pt x="215" y="415" on="0"/>
        <pt x="215" y="375" on="1"/>
        <pt x="215" y="320" on="1"/>
        <pt x="385" y="320" on="1"/>
        <pt x="385" y="375" on="1"/>
        <pt x="385" y="415" on="0"/>
        <pt x="345" y="415" on="1"/>
      </contour>
      <contour>
        <pt x="540" y="10" on="1"/>
        <pt x="347" y="-10" on="0"/>
        <pt x="190" y="-10" on="1"/>
        <pt x="122" y="-10" on="0"/>
        <pt x="40" y="72" on="0"/>
        <pt x="40" y="140" on="1"/>
        <pt x="40" y="380" on="1"/>
        <pt x="40" y="455" on="0"/>
        <pt x="125" y="540" on="0"/>
        <pt x="200" y="540" on="1"/>
        <pt x="400" y="540" on="1"/>
        <pt x="475" y="540" on="0"/>
        <pt x="560" y="455" on="0"/>
        <pt x="560" y="380" on="1"/>
        <pt x="560" y="195" on="1"/>
        <pt x="215" y="195" on="1"/>
        <pt x="215" y="155" on="1"/>
        <pt x="215" y="140" on="0"/>
        <pt x="235" y="120" on="0"/>
        <pt x="250" y="120" on="1"/>
        <pt x="349" y="120" on="0"/>
        <pt x="540" y="135" on="1"/>
      </contour>
    </TTGlyph>
    <TTGlyph name="eacute" xMin="40" yMin="-10" xMax="560" yMax="741">
      <component glyphName=".ttfautohint" x="40" y="0" flags="0x1000"/>
      <component glyphName="e" x="0" y="0" flags="0x1204"/>
      <component glyphName="acute" x="210" y="-64" flags="0x1004"/>
    </TTGlyph>
    <TTGlyph name="ecaron" xMin="40" yMin="-10" xMax="560" yMax="740">
      <component glyphName=".ttfautohint" x="40" y="0" flags="0x1000"/>
      <component glyphName="e" x="0" y="0" flags="0x1204"/>
      <component glyphName="caron" x="110" y="-65" flags="0x1004"/>
    </TTGlyph>
    <TTGlyph name="ecircumflex" xMin="40" yMin="-10" xMax="560" yMax="741">
      <component glyphName=".ttfautohint" x="40" y="0" flags="0x1000"/>
      <component glyphName="e" x="0" y="0" flags="0x1204"/>
      <component glyphName="circumflex" x="110" y="-64" flags="0x1004"/>
    </TTGlyph>
    <TTGlyph name="edieresis" xMin="40" yMin="-10" xMax="560" yMax="710">
      <component glyphName=".ttfautohint" x="40" y="0" flags="0x1000"/>
      <component glyphName="e" x="0" y="0" flags="0x1204"/>
      <component glyphName="dieresis" x="100" y="-95" flags="0x1004"/>
    </TTGlyph>
    <TTGlyph name="edotaccent" xMin="40" yMin="-10" xMax="560" yMax="730">
      <component glyphName=".ttfautohint" x="40" y="0" flags="0x1000"/>
      <component glyphName="e" x="0" y="0" flags="0x1204"/>
      <component glyphName="dotaccent" x="215" y="-75" flags="0x1004"/>
    </TTGlyph>
    <TTGlyph name="egrave" xMin="40" yMin="-10" xMax="560" yMax="740">
      <component glyphName=".ttfautohint" x="40" y="0" flags="0x1000"/>
      <component glyphName="e" x="0" y="0" flags="0x1204"/>
      <component glyphName="grave" x="145" y="30" flags="0x1004"/>
    </TTGlyph>
    <TTGlyph name="eight" xMin="30" yMin="-10" xMax="640" yMax="710">
      <contour>
        <pt x="270" y="280" on="1"/>
        <pt x="210" y="280" on="0"/>
        <pt x="210" y="220" on="1"/>
        <pt x="210" y="180" on="1"/>
        <pt x="210" y="157" on="0"/>
        <pt x="237" y="130" on="0"/>
        <pt x="260" y="130" on="1"/>
        <pt x="410" y="130" on="1"/>
        <pt x="433" y="130" on="0"/>
        <pt x="460" y="157" on="0"/>
        <pt x="460" y="180" on="1"/>
        <pt x="460" y="220" on="1"/>
        <pt x="460" y="280" on="0"/>
        <pt x="400" y="280" on="1"/>
      </contour>
      <contour>
        <pt x="290" y="570" on="1"/>
        <pt x="230" y="570" on="0"/>
        <pt x="230" y="510" on="1"/>
        <pt x="230" y="480" on="1"/>
        <pt x="230" y="420" on="0"/>
        <pt x="290" y="420" on="1"/>
        <pt x="380" y="420" on="1"/>
        <pt x="440" y="420" on="0"/>
        <pt x="440" y="480" on="1"/>
        <pt x="440" y="510" on="1"/>
        <pt x="440" y="570" on="0"/>
        <pt x="380" y="570" on="1"/>
      </contour>
      <contour>
        <pt x="640" y="180" on="1"/>
        <pt x="640" y="82" on="0"/>
        <pt x="548" y="-10" on="0"/>
        <pt x="450" y="-10" on="1"/>
        <pt x="220" y="-10" on="1"/>
        <pt x="122" y="-10" on="0"/>
        <pt x="30" y="82" on="0"/>
        <pt x="30" y="180" on="1"/>
        <pt x="30" y="190" on="1"/>
        <pt x="30" y="266" on="0"/>
        <pt x="68" y="316" on="1"/>
        <pt x="98" y="356" on="0"/>
        <pt x="150" y="370" on="1"/>
        <pt x="105" y="385" on="0"/>
        <pt x="50" y="460" on="0"/>
        <pt x="50" y="520" on="1"/>
        <pt x="50" y="530" on="1"/>
        <pt x="50" y="621" on="0"/>
        <pt x="142" y="710" on="0"/>
        <pt x="240" y="710" on="1"/>
        <pt x="430" y="710" on="1"/>
        <pt x="528" y="710" on="0"/>
        <pt x="620" y="621" on="0"/>
        <pt x="620" y="530" on="1"/>
        <pt x="620" y="520" on="1"/>
        <pt x="620" y="460" on="0"/>
        <pt x="565" y="385" on="0"/>
        <pt x="520" y="370" on="1"/>
        <pt x="601" y="348" on="0"/>
        <pt x="630" y="262" on="1"/>
        <pt x="640" y="231" on="0"/>
        <pt x="640" y="190" on="1"/>
      </contour>
    </TTGlyph>
    <TTGlyph name="ellipsis" xMin="30" yMin="0" xMax="690" yMax="150">
      <contour>
        <pt x="30" y="150" on="1"/>
        <pt x="210" y="150" on="1"/>
        <pt x="210" y="0" on="1"/>
        <pt x="30" y="0" on="1"/>
      </contour>
      <contour>
        <pt x="270" y="150" on="1"/>
        <pt x="450" y="150" on="1"/>
        <pt x="450" y="0" on="1"/>
        <pt x="270" y="0" on="1"/>
      </contour>
      <contour>
        <pt x="510" y="150" on="1"/>
        <pt x="690" y="150" on="1"/>
        <pt x="690" y="0" on="1"/>
        <pt x="510" y="0" on="1"/>
      </contour>
    </TTGlyph>
    <TTGlyph name="emacron" xMin="40" yMin="-10" xMax="560" yMax="711">
      <component glyphName=".ttfautohint" x="40" y="0" flags="0x1000"/>
      <component glyphName="e" x="0" y="0" flags="0x1204"/>
      <component glyphName="macron" x="150" y="-74" flags="0x1004"/>
    </TTGlyph>
    <TTGlyph name="emdash" xMin="30" yMin="285" xMax="770" yMax="415">
      <contour>
        <pt x="30" y="285" on="1"/>
        <pt x="30" y="415" on="1"/>
        <pt x="770" y="415" on="1"/>
        <pt x="770" y="285" on="1"/>
      </contour>
    </TTGlyph>
    <TTGlyph name="endash" xMin="30" yMin="285" xMax="600" yMax="415">
      <contour>
        <pt x="30" y="285" on="1"/>
        <pt x="30" y="415" on="1"/>
        <pt x="600" y="415" on="1"/>
        <pt x="600" y="285" on="1"/>
      </contour>
    </TTGlyph>
    <TTGlyph name="eogonek" xMin="40" yMin="-200" xMax="560" yMax="540">
      <contour>
        <pt x="530" y="-190" on="1"/>
        <pt x="483" y="-200" on="0"/>
        <pt x="377" y="-200" on="0"/>
        <pt x="325" y="-153" on="0"/>
        <pt x="325" y="-85" on="0"/>
        <pt x="357" y="-42" on="0"/>
        <pt x="378" y="-28" on="1"/>
        <pt x="410" y="-7" on="0"/>
        <pt x="438" y="0" on="1"/>
        <pt x="435" y="0" on="0"/>
        <pt x="383" y="-3" on="0"/>
        <pt x="346" y="-5" on="1"/>
        <pt x="255" y="-10" on="0"/>
        <pt x="122" y="-10" on="0"/>
        <pt x="40" y="72" on="0"/>
        <pt x="40" y="140" on="1"/>
        <pt x="40" y="380" on="1"/>
        <pt x="40" y="455" on="0"/>
        <pt x="125" y="540" on="0"/>
        <pt x="200" y="540" on="1"/>
        <pt x="400" y="540" on="1"/>
        <pt x="475" y="540" on="0"/>
        <pt x="560" y="455" on="0"/>
        <pt x="560" y="380" on="1"/>
        <pt x="560" y="195" on="1"/>
        <pt x="215" y="195" on="1"/>
        <pt x="215" y="155" on="1"/>
        <pt x="215" y="140" on="0"/>
        <pt x="235" y="120" on="0"/>
        <pt x="250" y="120" on="1"/>
        <pt x="349" y="120" on="0"/>
        <pt x="540" y="135" on="1"/>
        <pt x="540" y="10" on="1"/>
        <pt x="420" y="-54" on="0"/>
        <pt x="420" y="-100" on="1"/>
        <pt x="420" y="-125" on="0"/>
        <pt x="487" y="-125" on="0"/>
        <pt x="530" y="-115" on="1"/>
      </contour>
      <contour>
        <pt x="255" y="415" on="1"/>
        <pt x="215" y="415" on="0"/>
        <pt x="215" y="375" on="1"/>
        <pt x="215" y="320" on="1"/>
        <pt x="385" y="320" on="1"/>
        <pt x="385" y="375" on="1"/>
        <pt x="385" y="415" on="0"/>
        <pt x="345" y="415" on="1"/>
      </contour>
    </TTGlyph>
    <TTGlyph name="equal" xMin="40" yMin="180" xMax="450" yMax="520">
      <contour>
        <pt x="40" y="390" on="1"/>
        <pt x="40" y="520" on="1"/>
        <pt x="450" y="520" on="1"/>
        <pt x="450" y="390" on="1"/>
      </contour>
      <contour>
        <pt x="40" y="180" on="1"/>
        <pt x="40" y="310" on="1"/>
        <pt x="450" y="310" on="1"/>
        <pt x="450" y="180" on="1"/>
      </contour>
    </TTGlyph>
    <TTGlyph name="eth" xMin="40" yMin="-10" xMax="580" yMax="765">
      <contour>
        <pt x="235" y="440" on="1"/>
        <pt x="308" y="440" on="0"/>
        <pt x="405" y="420" on="1"/>
        <pt x="405" y="485" on="1"/>
        <pt x="405" y="511" on="0"/>
        <pt x="370" y="543" on="0"/>
        <pt x="340" y="546" on="1"/>
        <pt x="300" y="550" on="1"/>
        <pt x="295" y="495" on="1"/>
        <pt x="180" y="505" on="1"/>
        <pt x="185" y="562" on="1"/>
        <pt x="105" y="570" on="1"/>
        <pt x="120" y="710" on="1"/>
        <pt x="199" y="703" on="1"/>
        <pt x="205" y="765" on="1"/>
        <pt x="320" y="755" on="1"/>
        <pt x="314" y="692" on="1"/>
        <pt x="380" y="685" on="1"/>
        <pt x="471" y="675" on="0"/>
        <pt x="525" y="620" on="1"/>
        <pt x="580" y="563" on="0"/>
        <pt x="580" y="485" on="1"/>
        <pt x="580" y="150" on="1"/>
        <pt x="580" y="75" on="0"/>
        <pt x="495" y="-10" on="0"/>
        <pt x="420" y="-10" on="1"/>
        <pt x="200" y="-10" on="1"/>
        <pt x="125" y="-10" on="0"/>
        <pt x="40" y="75" on="0"/>
        <pt x="40" y="150" on="1"/>
        <pt x="40" y="290" on="1"/>
        <pt x="40" y="358" on="0"/>
        <pt x="122" y="440" on="0"/>
        <pt x="190" y="440" on="1"/>
      </contour>
      <contour>
        <pt x="365" y="125" on="1"/>
        <pt x="405" y="125" on="0"/>
        <pt x="405" y="165" on="1"/>
        <pt x="405" y="295" on="1"/>
        <pt x="386" y="297" on="0"/>
        <pt x="368" y="300" on="1"/>
        <pt x="327" y="305" on="0"/>
        <pt x="285" y="305" on="1"/>
        <pt x="250" y="305" on="1"/>
        <pt x="235" y="305" on="0"/>
        <pt x="215" y="285" on="0"/>
        <pt x="215" y="270" on="1"/>
        <pt x="215" y="165" on="1"/>
        <pt x="215" y="125" on="0"/>
        <pt x="255" y="125" on="1"/>
      </contour>
    </TTGlyph>
    <TTGlyph name="exclam" xMin="50" yMin="0" xMax="230" yMax="700">
      <contour>
        <pt x="50" y="150" on="1"/>
        <pt x="230" y="150" on="1"/>
        <pt x="230" y="0" on="1"/>
        <pt x="50" y="0" on="1"/>
      </contour>
      <contour>
        <pt x="70" y="210" on="1"/>
        <pt x="50" y="420" on="1"/>
        <pt x="50" y="700" on="1"/>
        <pt x="230" y="700" on="1"/>
        <pt x="230" y="420" on="1"/>
        <pt x="210" y="210" on="1"/>
      </contour>
    </TTGlyph>
    <TTGlyph name="exclamdown" xMin="50" yMin="-170" xMax="230" yMax="530">
      <contour>
        <pt x="50" y="530" on="1"/>
        <pt x="230" y="530" on="1"/>
        <pt x="230" y="380" on="1"/>
        <pt x="50" y="380" on="1"/>
      </contour>
      <contour>
        <pt x="210" y="320" on="1"/>
        <pt x="230" y="110" on="1"/>
        <pt x="230" y="-170" on="1"/>
        <pt x="50" y="-170" on="1"/>
        <pt x="50" y="110" on="1"/>
        <pt x="70" y="320" on="1"/>
      </contour>
    </TTGlyph>
    <TTGlyph name="f" xMin="20" yMin="0" xMax="480" yMax="710">
      <contour>
        <pt x="480" y="565" on="1"/>
        <pt x="451" y="567" on="0"/>
        <pt x="355" y="575" on="0"/>
        <pt x="285" y="575" on="0"/>
        <pt x="265" y="555" on="0"/>
        <pt x="265" y="540" on="1"/>
        <pt x="265" y="490" on="1"/>
        <pt x="430" y="490" on="1"/>
        <pt x="430" y="355" on="1"/>
        <pt x="265" y="355" on="1"/>
        <pt x="265" y="0" on="1"/>
        <pt x="90" y="0" on="1"/>
        <pt x="90" y="355" on="1"/>
        <pt x="20" y="355" on="1"/>
        <pt x="20" y="490" on="1"/>
        <pt x="90" y="490" on="1"/>
        <pt x="90" y="560" on="1"/>
        <pt x="90" y="628" on="0"/>
        <pt x="172" y="710" on="0"/>
        <pt x="240" y="710" on="1"/>
        <pt x="301" y="710" on="0"/>
        <pt x="437" y="702" on="0"/>
        <pt x="480" y="700" on="1"/>
      </contour>
    </TTGlyph>
    <TTGlyph name="five" xMin="20" yMin="-10" xMax="580" yMax="700">
      <contour>
        <pt x="390" y="-10" on="1"/>
        <pt x="223" y="-10" on="0"/>
        <pt x="20" y="10" on="1"/>
        <pt x="20" y="145" on="1"/>
        <pt x="241" y="130" on="0"/>
        <pt x="350" y="130" on="1"/>
        <pt x="373" y="130" on="0"/>
        <pt x="400" y="157" on="0"/>
        <pt x="400" y="180" on="1"/>
        <pt x="400" y="230" on="1"/>
        <pt x="400" y="290" on="0"/>
        <pt x="340" y="290" on="1"/>
        <pt x="50" y="290" on="1"/>
        <pt x="50" y="700" on="1"/>
        <pt x="530" y="700" on="1"/>
        <pt x="530" y="560" on="1"/>
        <pt x="230" y="560" on="1"/>
        <pt x="230" y="430" on="1"/>
        <pt x="390" y="430" on="1"/>
        <pt x="488" y="430" on="0"/>
        <pt x="580" y="341" on="0"/>
        <pt x="580" y="250" on="1"/>
        <pt x="580" y="180" on="1"/>
        <pt x="580" y="82" on="0"/>
        <pt x="488" y="-10" on="0"/>
      </contour>
    </TTGlyph>
    <TTGlyph name="florin" xMin="-130" yMin="-180" xMax="540" yMax="710">
      <contour>
        <pt x="325" y="575" on="0"/>
        <pt x="302" y="555" on="0"/>
        <pt x="300" y="540" on="1"/>
        <pt x="295" y="490" on="1"/>
        <pt x="450" y="490" on="1"/>
        <pt x="430" y="355" on="1"/>
        <pt x="265" y="355" on="1"/>
        <pt x="210" y="-30" on="1"/>
        <pt x="200" y="-96" on="0"/>
        <pt x="152" y="-137" on="1"/>
        <pt x="101" y="-180" on="0"/>
        <pt x="35" y="-180" on="1"/>
        <pt x="-50" y="-180" on="0"/>
        <pt x="-130" y="-170" on="1"/>
        <pt x="-110" y="-40" on="1"/>
        <pt x="0" y="-40" on="1"/>
        <pt x="15" y="-40" on="0"/>
        <pt x="38" y="-20" on="0"/>
        <pt x="40" y="-5" on="1"/>
        <pt x="90" y="355" on="1"/>
        <pt x="20" y="355" on="1"/>
        <pt x="40" y="490" on="1"/>
        <pt x="120" y="490" on="1"/>
        <pt x="130" y="560" on="1"/>
        <pt x="138" y="624" on="0"/>
        <pt x="235" y="710" on="0"/>
        <pt x="305" y="710" on="1"/>
        <pt x="366" y="710" on="0"/>
        <pt x="497" y="702" on="0"/>
        <pt x="540" y="700" on="1"/>
        <pt x="520" y="575" on="1"/>
        <pt x="340" y="575" on="1"/>
      </contour>
    </TTGlyph>
    <TTGlyph name="four" xMin="20" yMin="0" xMax="640" yMax="700">
      <contour>
        <pt x="390" y="140" on="1"/>
        <pt x="20" y="140" on="1"/>
        <pt x="20" y="280" on="1"/>
        <pt x="260" y="700" on="1"/>
        <pt x="460" y="700" on="1"/>
        <pt x="220" y="280" on="1"/>
        <pt x="390" y="280" on="1"/>
        <pt x="390" y="430" on="1"/>
        <pt x="570" y="430" on="1"/>
        <pt x="570" y="280" on="1"/>
        <pt x="640" y="280" on="1"/>
        <pt x="640" y="140" on="1"/>
        <pt x="570" y="140" on="1"/>
        <pt x="570" y="0" on="1"/>
        <pt x="390" y="0" on="1"/>
      </contour>
    </TTGlyph>
    <TTGlyph name="foursuperior" xMin="10" yMin="340" xMax="350" yMax="710">
      <contour>
        <pt x="205" y="415" on="1"/>
        <pt x="10" y="415" on="1"/>
        <pt x="10" y="505" on="1"/>
        <pt x="125" y="710" on="1"/>
        <pt x="250" y="710" on="1"/>
        <pt x="135" y="505" on="1"/>
        <pt x="205" y="505" on="1"/>
        <pt x="205" y="570" on="1"/>
        <pt x="315" y="570" on="1"/>
        <pt x="315" y="505" on="1"/>
        <pt x="350" y="505" on="1"/>
        <pt x="350" y="415" on="1"/>
        <pt x="315" y="415" on="1"/>
        <pt x="315" y="340" on="1"/>
        <pt x="205" y="340" on="1"/>
      </contour>
    </TTGlyph>
    <TTGlyph name="g" xMin="40" yMin="-180" xMax="570" yMax="530">
      <contour>
        <pt x="395" y="40" on="1"/>
        <pt x="298" y="20" on="0"/>
        <pt x="225" y="20" on="1"/>
        <pt x="190" y="20" on="1"/>
        <pt x="122" y="20" on="0"/>
        <pt x="40" y="102" on="0"/>
        <pt x="40" y="170" on="1"/>
        <pt x="40" y="370" on="1"/>
        <pt x="40" y="445" on="0"/>
        <pt x="125" y="530" on="0"/>
        <pt x="200" y="530" on="1"/>
        <pt x="570" y="530" on="1"/>
        <pt x="570" y="-30" on="1"/>
        <pt x="570" y="-98" on="0"/>
        <pt x="488" y="-180" on="0"/>
        <pt x="420" y="-180" on="1"/>
        <pt x="263" y="-180" on="0"/>
        <pt x="70" y="-160" on="1"/>
        <pt x="70" y="-30" on="1"/>
        <pt x="261" y="-45" on="0"/>
        <pt x="360" y="-45" on="1"/>
        <pt x="375" y="-45" on="0"/>
        <pt x="395" y="-25" on="0"/>
        <pt x="395" y="-10" on="1"/>
      </contour>
      <contour>
        <pt x="275" y="155" on="1"/>
        <pt x="338" y="155" on="0"/>
        <pt x="395" y="165" on="1"/>
        <pt x="395" y="395" on="1"/>
        <pt x="255" y="395" on="1"/>
        <pt x="215" y="395" on="0"/>
        <pt x="215" y="355" on="1"/>
        <pt x="215" y="190" on="1"/>
        <pt x="215" y="175" on="0"/>
        <pt x="235" y="155" on="0"/>
        <pt x="250" y="155" on="1"/>
      </contour>
    </TTGlyph>
</ttFont>
